Merriweather35-BlackWide.ufo
<glyph name="percent" format="2">
  <advance width="2366"/>
  <unicode hex="0025"/>
  <outline>
    <contour>
      <point x="718" y="0" type="line"/>
      <point x="930" y="0" type="line"/>
      <point x="1641" y="1502" type="line"/>
      <point x="1428" y="1502" type="line"/>
    </contour>
    <contour>
      <point x="522" y="624" type="curve" smooth="yes"/>
      <point x="771" y="624"/>
      <point x="981" y="779"/>
      <point x="981" y="1063" type="curve" smooth="yes"/>
      <point x="981" y="1304"/>
      <point x="868" y="1495"/>
      <point x="562" y="1495" type="curve" smooth="yes"/>
      <point x="309" y="1495"/>
      <point x="105" y="1335"/>
      <point x="105" y="1051" type="curve" smooth="yes"/>
      <point x="105" y="819"/>
      <point x="252" y="624"/>
    </contour>
    <contour>
      <point x="541" y="753" type="curve" smooth="yes"/>
      <point x="445" y="753"/>
      <point x="414" y="926"/>
      <point x="414" y="1063" type="curve" smooth="yes"/>
      <point x="414" y="1237"/>
      <point x="450" y="1364"/>
      <point x="549" y="1364" type="curve" smooth="yes"/>
      <point x="645" y="1364"/>
      <point x="674" y="1209"/>
      <point x="674" y="1055" type="curve" smooth="yes"/>
      <point x="674" y="878"/>
      <point x="639" y="753"/>
    </contour>
    <contour>
      <point x="1800" y="21" type="curve" smooth="yes"/>
      <point x="2049" y="21"/>
      <point x="2259" y="176"/>
      <point x="2259" y="460" type="curve" smooth="yes"/>
      <point x="2259" y="701"/>
      <point x="2146" y="892"/>
      <point x="1840" y="892" type="curve" smooth="yes"/>
      <point x="1587" y="892"/>
      <point x="1383" y="732"/>
      <point x="1383" y="448" type="curve" smooth="yes"/>
      <point x="1383" y="216"/>
      <point x="1530" y="21"/>
    </contour>
    <contour>
      <point x="1819" y="150" type="curve" smooth="yes"/>
      <point x="1723" y="150"/>
      <point x="1692" y="323"/>
      <point x="1692" y="460" type="curve" smooth="yes"/>
      <point x="1692" y="634"/>
      <point x="1728" y="761"/>
      <point x="1827" y="761" type="curve" smooth="yes"/>
      <point x="1923" y="761"/>
      <point x="1952" y="605"/>
      <point x="1952" y="452" type="curve" smooth="yes"/>
      <point x="1952" y="276"/>
      <point x="1917" y="150"/>
    </contour>
  </outline>
</glyph>
<glyph name="asterisk" format="2">
  <advance width="1337"/>
  <unicode hex="002A"/>
  <outline>
    <contour>
      <point x="306" y="1070" type="line"/>
      <point x="129" y="980" type="line"/>
      <point x="257" y="765" type="line"/>
      <point x="420" y="884" type="line"/>
      <point x="624" y="1079" type="line"/>
      <point x="562" y="810" type="line"/>
      <point x="547" y="604" type="line"/>
      <point x="807" y="604" type="line"/>
      <point x="786" y="810" type="line"/>
      <point x="711" y="1076" type="line"/>
      <point x="925" y="887" type="line"/>
      <point x="1082" y="772" type="line"/>
      <point x="1214" y="995" type="line"/>
      <point x="1035" y="1078" type="line"/>
      <point x="756" y="1152" type="line"/>
      <point x="1035" y="1232" type="line"/>
      <point x="1209" y="1323" type="line"/>
      <point x="1080" y="1537" type="line"/>
      <point x="913" y="1419" type="line"/>
      <point x="711" y="1227" type="line"/>
      <point x="774" y="1493" type="line"/>
      <point x="791" y="1697" type="line"/>
      <point x="529" y="1697" type="line"/>
      <point x="550" y="1488" type="line"/>
      <point x="624" y="1222" type="line"/>
      <point x="416" y="1413" type="line"/>
      <point x="250" y="1529" type="line"/>
      <point x="125" y="1313" type="line"/>
      <point x="306" y="1229" type="line"/>
      <point x="579" y="1152" type="line"/>
    </contour>
  </outline>
</glyph>
<glyph name="period" format="2">
  <advance width="620"/>
  <unicode hex="002E"/>
  <outline>
    <contour>
      <point x="293" y="-16" type="curve" smooth="yes"/>
      <point x="413" y="-16"/>
      <point x="499" y="50"/>
      <point x="499" y="165" type="curve" smooth="yes"/>
      <point x="499" y="251"/>
      <point x="434" y="333"/>
      <point x="323" y="333" type="curve" smooth="yes"/>
      <point x="213" y="333"/>
      <point x="122" y="259"/>
      <point x="122" y="151" type="curve" smooth="yes"/>
      <point x="122" y="53"/>
      <point x="205" y="-16"/>
    </contour>
  </outline>
</glyph>
<glyph name="one" format="2">
  <advance width="954"/>
  <unicode hex="0031"/>
  <outline>
    <contour>
      <point x="339" y="152" type="line"/>
      <point x="112" y="130" type="line"/>
      <point x="112" y="0" type="line"/>
      <point x="906" y="0" type="line"/>
      <point x="906" y="130" type="line"/>
      <point x="700" y="154" type="line"/>
      <point x="700" y="1486" type="line"/>
      <point x="523" y="1506" type="line"/>
      <point x="521" y="1506" type="line"/>
      <point x="427" y="1426"/>
      <point x="218" y="1342"/>
      <point x="62" y="1312" type="curve"/>
      <point x="92" y="1144" type="line"/>
      <point x="152" y="1150"/>
      <point x="293" y="1182"/>
      <point x="339" y="1196" type="curve"/>
    </contour>
  </outline>
</glyph>
<glyph name="two" format="2">
  <advance width="1280"/>
  <unicode hex="0032"/>
  <outline>
    <contour>
      <point x="52" y="122" type="curve"/>
      <point x="100" y="0" type="line"/>
      <point x="1154" y="0" type="line"/>
      <point x="1208" y="358" type="line"/>
      <point x="1055" y="386" type="line"/>
      <point x="977" y="233" type="line"/>
      <point x="397" y="176" type="line"/>
      <point x="744" y="377"/>
      <point x="1113" y="750"/>
      <point x="1113" y="1087" type="curve" smooth="yes"/>
      <point x="1113" y="1360"/>
      <point x="885" y="1504"/>
      <point x="609" y="1504" type="curve" smooth="yes"/>
      <point x="412" y="1504"/>
      <point x="188" y="1420"/>
      <point x="52" y="1248" type="curve"/>
      <point x="157" y="1130" type="line"/>
      <point x="254" y="1229"/>
      <point x="382" y="1278"/>
      <point x="482" y="1278" type="curve" smooth="yes"/>
      <point x="637" y="1278"/>
      <point x="738" y="1186"/>
      <point x="738" y="1028" type="curve" smooth="yes"/>
      <point x="738" y="714"/>
      <point x="382" y="331"/>
    </contour>
  </outline>
</glyph>
<glyph name="seven" format="2">
  <advance width="1274"/>
  <unicode hex="0037"/>
  <outline>
    <contour>
      <point x="722" y="0" type="line"/>
      <point x="1234" y="1410" type="line"/>
      <point x="1174" y="1486" type="line"/>
      <point x="111" y="1486" type="line"/>
      <point x="56" y="1012" type="line"/>
      <point x="250" y="974" type="line"/>
      <point x="358" y="1264" type="line"/>
      <point x="922" y="1278" type="line"/>
      <point x="768" y="900"/>
      <point x="562" y="474"/>
      <point x="324" y="0" type="curve"/>
    </contour>
  </outline>
</glyph>
<glyph name="nine" format="2">
  <advance width="1332"/>
  <unicode hex="0039"/>
  <outline>
    <contour>
      <point x="655" y="1506" type="curve" smooth="yes"/>
      <point x="262" y="1506"/>
      <point x="52" y="1283"/>
      <point x="52" y="989" type="curve" smooth="yes"/>
      <point x="52" y="679"/>
      <point x="234" y="484"/>
      <point x="519" y="484" type="curve" smooth="yes"/>
      <point x="671" y="484"/>
      <point x="771" y="539"/>
      <point x="837" y="593" type="curve"/>
      <point x="756" y="318"/>
      <point x="625" y="132"/>
      <point x="305" y="24" type="curve"/>
      <point x="369" y="-96" type="line"/>
      <point x="801" y="-14"/>
      <point x="1252" y="324"/>
      <point x="1252" y="898" type="curve" smooth="yes"/>
      <point x="1252" y="1234"/>
      <point x="1044" y="1506"/>
    </contour>
    <contour>
      <point x="642" y="652" type="curve" smooth="yes"/>
      <point x="492" y="652"/>
      <point x="422" y="847"/>
      <point x="422" y="1043" type="curve" smooth="yes"/>
      <point x="422" y="1236"/>
      <point x="496" y="1372"/>
      <point x="642" y="1372" type="curve" smooth="yes"/>
      <point x="804" y="1372"/>
      <point x="884" y="1191"/>
      <point x="884" y="921" type="curve" smooth="yes"/>
      <point x="884" y="851"/>
      <point x="880" y="798"/>
      <point x="875" y="752" type="curve"/>
      <point x="836" y="709"/>
      <point x="765" y="652"/>
    </contour>
  </outline>
</glyph>
<glyph name="I" format="2">
  <advance width="840"/>
  <unicode hex="0049"/>
  <anchor x="415" y="0" name="bottom"/>
  <anchor x="417" y="-166" name="mark0"/>
  <anchor x="717" y="20" name="ogonek"/>
  <anchor x="415" y="1486" name="top"/>
  <anchor x="36" y="1486" name="topleft"/>
  <outline>
    <contour>
      <point x="241" y="154" type="line"/>
      <point x="80" y="132" type="line"/>
      <point x="80" y="0" type="line"/>
      <point x="762" y="0" type="line"/>
      <point x="762" y="130" type="line"/>
      <point x="594" y="153" type="line"/>
      <point x="594" y="1319" type="line"/>
      <point x="762" y="1347" type="line"/>
      <point x="762" y="1486" type="line"/>
      <point x="78" y="1486" type="line"/>
      <point x="78" y="1347" type="line"/>
      <point x="241" y="1319" type="line"/>
    </contour>
  </outline>
</glyph>
<glyph name="J" format="2">
  <advance width="880"/>
  <unicode hex="004A"/>
  <anchor x="375" y="-166" name="mark0"/>
  <anchor x="463" y="1486" name="top"/>
  <outline>
    <contour>
      <point x="14" y="-271" type="curve"/>
      <point x="91" y="-387" type="line"/>
      <point x="373" y="-342"/>
      <point x="553" y="-184"/>
      <point x="612" y="29" type="curve" smooth="yes"/>
      <point x="636" y="122"/>
      <point x="641" y="298"/>
      <point x="641" y="550" type="curve" smooth="yes"/>
      <point x="641" y="1320" type="line"/>
      <point x="801" y="1347" type="line"/>
      <point x="801" y="1486" type="line"/>
      <point x="130" y="1486" type="line"/>
      <point x="130" y="1347" type="line"/>
      <point x="301" y="1318" type="line"/>
      <point x="301" y="382" type="line" smooth="yes"/>
      <point x="301" y="171"/>
      <point x="286" y="68"/>
      <point x="259" y="-12" type="curve" smooth="yes"/>
      <point x="211" y="-155"/>
      <point x="107" y="-239"/>
    </contour>
  </outline>
</glyph>
<glyph name="N" format="2">
  <advance width="1633"/>
  <unicode hex="004E"/>
  <anchor x="813" y="0" name="bottom"/>
  <anchor x="868" y="-166" name="mark0"/>
  <anchor x="848" y="1486" name="top"/>
  <outline>
    <contour>
      <point x="199" y="153" type="line"/>
      <point x="51" y="132" type="line"/>
      <point x="51" y="0" type="line"/>
      <point x="551" y="0" type="line"/>
      <point x="551" y="132" type="line"/>
      <point x="388" y="154" type="line"/>
      <point x="388" y="1194" type="line"/>
      <point x="525" y="938" type="line"/>
      <point x="1126" y="0" type="line"/>
      <point x="1465" y="0" type="line"/>
      <point x="1465" y="1320" type="line"/>
      <point x="1615" y="1347" type="line"/>
      <point x="1615" y="1486" type="line"/>
      <point x="1115" y="1486" type="line"/>
      <point x="1115" y="1347" type="line"/>
      <point x="1275" y="1320" type="line"/>
      <point x="1275" y="363" type="line"/>
      <point x="1158" y="594" type="line"/>
      <point x="584" y="1486" type="line"/>
      <point x="40" y="1486" type="line"/>
      <point x="40" y="1347" type="line"/>
      <point x="92" y="1338"/>
      <point x="147" y="1329"/>
      <point x="199" y="1320" type="curve"/>
    </contour>
  </outline>
</glyph>
<glyph name="T" format="2">
  <advance width="1536"/>
  <unicode hex="0054"/>
  <anchor x="774" y="0" name="bottom"/>
  <anchor x="774" y="744" name="center"/>
  <anchor x="774" y="1486" name="top"/>
  <outline>
    <contour>
      <point x="595" y="154" type="line"/>
      <point x="318" y="132" type="line"/>
      <point x="318" y="0" type="line"/>
      <point x="1219" y="0" type="line"/>
      <point x="1219" y="132" type="line"/>
      <point x="941" y="154" type="line"/>
      <point x="941" y="1338" type="line"/>
      <point x="1235" y="1328" type="line"/>
      <point x="1328" y="862" type="line"/>
      <point x="1526" y="862" type="line"/>
      <point x="1491" y="1486" type="line"/>
      <point x="50" y="1486" type="line"/>
      <point x="10" y="862" type="line"/>
      <point x="208" y="862" type="line"/>
      <point x="306" y="1328" type="line"/>
      <point x="595" y="1338" type="line"/>
    </contour>
  </outline>
</glyph>
<glyph name="asciicircum" format="2">
  <advance width="1483"/>
  <unicode hex="005E"/>
  <outline>
    <contour>
      <point x="856" y="1496" type="line"/>
      <point x="621" y="1496" type="line"/>
      <point x="175" y="267" type="line"/>
      <point x="409" y="267" type="line"/>
      <point x="739" y="1149" type="line"/>
      <point x="1057" y="267" type="line"/>
      <point x="1308" y="267" type="line"/>
    </contour>
  </outline>
</glyph>
<glyph name="e" format="2">
  <advance width="1162"/>
  <unicode hex="0065"/>
  <anchor x="640" y="0" name="bottom"/>
  <anchor x="551" y="-166" name="mark0"/>
  <anchor x="693" y="20" name="ogonek"/>
  <anchor x="656" y="1111" name="top"/>
  <outline>
    <contour>
      <point x="610" y="-22" type="curve" smooth="yes"/>
      <point x="844" y="-22"/>
      <point x="1013" y="75"/>
      <point x="1074" y="141" type="curve"/>
      <point x="1017" y="262" type="line"/>
      <point x="956" y="224"/>
      <point x="861" y="175"/>
      <point x="736" y="175" type="curve" smooth="yes"/>
      <point x="527" y="175"/>
      <point x="434" y="322"/>
      <point x="432" y="528" type="curve"/>
      <point x="1094" y="528" type="line"/>
      <point x="1106" y="579"/>
      <point x="1112" y="643"/>
      <point x="1112" y="734" type="curve"/>
      <point x="1107" y="989"/>
      <point x="944" y="1140"/>
      <point x="656" y="1140" type="curve" smooth="yes"/>
      <point x="310" y="1140"/>
      <point x="49" y="950"/>
      <point x="48" y="556" type="curve" smooth="yes"/>
      <point x="47" y="187"/>
      <point x="266" y="-22"/>
    </contour>
    <contour>
      <point x="430" y="661" type="line"/>
      <point x="436" y="940"/>
      <point x="536" y="1005"/>
      <point x="614" y="1005" type="curve" smooth="yes"/>
      <point x="722" y="1005"/>
      <point x="758" y="905"/>
      <point x="758" y="748" type="curve" smooth="yes"/>
      <point x="758" y="720"/>
      <point x="756" y="689"/>
      <point x="755" y="661" type="curve"/>
    </contour>
  </outline>
</glyph>
<glyph name="f" format="2">
  <advance width="838"/>
  <unicode hex="0066"/>
  <anchor x="387" y="1483" name="top"/>
  <outline>
    <contour>
      <point x="218" y="151" type="line"/>
      <point x="66" y="132" type="line"/>
      <point x="66" y="0" type="line"/>
      <point x="747" y="0" type="line"/>
      <point x="747" y="132" type="line"/>
      <point x="544" y="150" type="line"/>
      <point x="544" y="944" type="line"/>
      <point x="795" y="944" type="line"/>
      <point x="795" y="1111" type="line"/>
      <point x="544" y="1111" type="line"/>
      <point x="544" y="1287" type="line" smooth="yes"/>
      <point x="544" y="1393"/>
      <point x="592" y="1434"/>
      <point x="696" y="1434" type="curve" smooth="yes"/>
      <point x="770" y="1434"/>
      <point x="847" y="1418"/>
      <point x="887" y="1386" type="curve"/>
      <point x="888" y="1658" type="line"/>
      <point x="872" y="1663"/>
      <point x="830" y="1676"/>
      <point x="754" y="1676" type="curve" smooth="yes"/>
      <point x="470" y="1676"/>
      <point x="218" y="1466"/>
      <point x="218" y="1194" type="curve" smooth="yes"/>
      <point x="218" y="1108" type="line"/>
      <point x="62" y="1067" type="line"/>
      <point x="62" y="944" type="line"/>
      <point x="218" y="944" type="line"/>
    </contour>
  </outline>
</glyph>
<glyph name="h" format="2">
  <advance width="1426"/>
  <unicode hex="0068"/>
  <anchor x="736" y="0" name="bottom"/>
  <anchor x="677" y="556" name="center"/>
  <anchor x="313" y="1596" name="top"/>
  <outline>
    <contour>
      <point x="177" y="150" type="line"/>
      <point x="58" y="132" type="line"/>
      <point x="58" y="0" type="line"/>
      <point x="656" y="0" type="line"/>
      <point x="656" y="132" type="line"/>
      <point x="537" y="151" type="line"/>
      <point x="537" y="861" type="line"/>
      <point x="584" y="898"/>
      <point x="672" y="946"/>
      <point x="781" y="946" type="curve" smooth="yes"/>
      <point x="895" y="946"/>
      <point x="935" y="881"/>
      <point x="935" y="696" type="curve" smooth="yes"/>
      <point x="935" y="151" type="line"/>
      <point x="825" y="132" type="line"/>
      <point x="825" y="0" type="line"/>
      <point x="1412" y="-1" type="line"/>
      <point x="1412" y="133" type="line"/>
      <point x="1297" y="150" type="line"/>
      <point x="1297" y="696" type="line" smooth="yes"/>
      <point x="1297" y="1016"/>
      <point x="1183" y="1135"/>
      <point x="928" y="1135" type="curve" smooth="yes"/>
      <point x="761" y="1135"/>
      <point x="599" y="1055"/>
      <point x="514" y="980" type="curve"/>
      <point x="529" y="1164" type="line"/>
      <point x="528" y="1597" type="line"/>
      <point x="469" y="1639" type="line"/>
      <point x="464" y="1639" type="line"/>
      <point x="34" y="1592" type="line"/>
      <point x="34" y="1471" type="line"/>
      <point x="177" y="1444" type="line"/>
    </contour>
  </outline>
</glyph>
<glyph name="r" format="2">
  <advance width="929"/>
  <unicode hex="0072"/>
  <anchor x="346" y="0" name="bottom"/>
  <anchor x="490" y="1110" name="top"/>
  <outline>
    <contour>
      <point x="52" y="0" type="line"/>
      <point x="721" y="0" type="line"/>
      <point x="721" y="131" type="line"/>
      <point x="501" y="150" type="line"/>
      <point x="501" y="762" type="line"/>
      <point x="538" y="787"/>
      <point x="616" y="824"/>
      <point x="723" y="824" type="curve" smooth="yes"/>
      <point x="810" y="824"/>
      <point x="856" y="811"/>
      <point x="888" y="787" type="curve"/>
      <point x="888" y="1119" type="line"/>
      <point x="872" y="1126"/>
      <point x="844" y="1133"/>
      <point x="807" y="1133" type="curve" smooth="yes"/>
      <point x="614" y="1133"/>
      <point x="474" y="956"/>
      <point x="450" y="874" type="curve"/>
      <point x="443" y="874" type="line"/>
      <point x="450" y="1048" type="line"/>
      <point x="450" y="1096" type="line"/>
      <point x="393" y="1138" type="line"/>
      <point x="387" y="1138" type="line"/>
      <point x="55" y="1095" type="line"/>
      <point x="55" y="938" type="line"/>
      <point x="174" y="901" type="line"/>
      <point x="174" y="149" type="line"/>
      <point x="52" y="131" type="line"/>
    </contour>
  </outline>
</glyph>
<glyph name="s" format="2">
  <advance width="1082"/>
  <unicode hex="0073"/>
  <anchor x="487" y="-9" name="bottom"/>
  <anchor x="494" y="-176" name="mark0"/>
  <anchor x="492" y="1111" name="top"/>
  <outline>
    <contour>
      <point x="283" y="324" type="line"/>
      <point x="85" y="324" type="line"/>
      <point x="85" y="58" type="line"/>
      <point x="161" y="41"/>
      <point x="324" y="-22"/>
      <point x="546" y="-22" type="curve" smooth="yes"/>
      <point x="882" y="-22"/>
      <point x="1028" y="139"/>
      <point x="1028" y="339" type="curve" smooth="yes"/>
      <point x="1028" y="561"/>
      <point x="804" y="639"/>
      <point x="630" y="710" type="curve" smooth="yes"/>
      <point x="544" y="745"/>
      <point x="415" y="790"/>
      <point x="414" y="887" type="curve" smooth="yes"/>
      <point x="413" y="961"/>
      <point x="482" y="1008"/>
      <point x="593" y="1008" type="curve" smooth="yes"/>
      <point x="654" y="1008"/>
      <point x="697" y="983"/>
      <point x="710" y="959" type="curve"/>
      <point x="761" y="806" type="line"/>
      <point x="945" y="806" type="line"/>
      <point x="945" y="1078" type="line"/>
      <point x="872" y="1085"/>
      <point x="783" y="1137"/>
      <point x="575" y="1137" type="curve" smooth="yes"/>
      <point x="282" y="1137"/>
      <point x="78" y="998"/>
      <point x="78" y="815" type="curve" smooth="yes"/>
      <point x="78" y="574"/>
      <point x="225" y="508"/>
      <point x="415" y="421" type="curve" smooth="yes"/>
      <point x="544" y="362"/>
      <point x="665" y="339"/>
      <point x="665" y="234" type="curve" smooth="yes"/>
      <point x="665" y="163"/>
      <point x="609" y="109"/>
      <point x="497" y="109" type="curve" smooth="yes"/>
      <point x="429" y="109"/>
      <point x="348" y="138"/>
      <point x="332" y="167" type="curve"/>
    </contour>
  </outline>
</glyph>
<glyph name="z" format="2">
  <advance width="1131"/>
  <unicode hex="007A"/>
  <anchor x="564" y="0" name="bottom"/>
  <anchor x="562" y="-176" name="mark0"/>
  <anchor x="595" y="1111" name="top"/>
  <outline>
    <contour>
      <point x="703" y="973" type="line"/>
      <point x="552" y="810" type="line"/>
      <point x="38" y="122" type="line"/>
      <point x="94" y="0" type="line"/>
      <point x="1040" y="0" type="line"/>
      <point x="1071" y="375" type="line"/>
      <point x="922" y="393" type="line"/>
      <point x="820" y="158" type="line"/>
      <point x="424" y="136" type="line"/>
      <point x="568" y="290" type="line"/>
      <point x="1066" y="996" type="line"/>
      <point x="1014" y="1111" type="line"/>
      <point x="113" y="1111" type="line"/>
      <point x="113" y="760" type="line"/>
      <point x="270" y="760" type="line"/>
      <point x="323" y="958" type="line"/>
    </contour>
  </outline>
</glyph>
<glyph name="yen" format="2">
  <advance width="1739"/>
  <unicode hex="00A5"/>
  <outline>
    <contour>
      <point x="624" y="795" type="line"/>
      <point x="251" y="795" type="line"/>
      <point x="251" y="662" type="line"/>
      <point x="708" y="662" type="line"/>
      <point x="708" y="460" type="line"/>
      <point x="251" y="460" type="line"/>
      <point x="251" y="327" type="line"/>
      <point x="708" y="327" type="line"/>
      <point x="708" y="150" type="line"/>
      <point x="500" y="126" type="line"/>
      <point x="500" y="0" type="line"/>
      <point x="1302" y="0" type="line"/>
      <point x="1302" y="126" type="line"/>
      <point x="1089" y="150" type="line"/>
      <point x="1089" y="327" type="line"/>
      <point x="1540" y="327" type="line"/>
      <point x="1540" y="460" type="line"/>
      <point x="1089" y="460" type="line"/>
      <point x="1089" y="662" type="line"/>
      <point x="1540" y="662" type="line"/>
      <point x="1540" y="795" type="line"/>
      <point x="1122" y="795" type="line"/>
      <point x="1462" y="1324" type="line"/>
      <point x="1624" y="1353" type="line"/>
      <point x="1624" y="1486" type="line"/>
      <point x="1079" y="1486" type="line"/>
      <point x="1079" y="1353" type="line"/>
      <point x="1252" y="1327" type="line"/>
      <point x="1018" y="915" type="line"/>
      <point x="955" y="795" type="line"/>
      <point x="907" y="915" type="line"/>
      <point x="697" y="1327" type="line"/>
      <point x="852" y="1353" type="line"/>
      <point x="852" y="1486" type="line"/>
      <point x="116" y="1486" type="line"/>
      <point x="116" y="1353" type="line"/>
      <point x="262" y="1324" type="line"/>
    </contour>
  </outline>
</glyph>
<glyph name="section" format="2">
  <advance width="1477"/>
  <unicode hex="00A7"/>
  <outline>
    <contour>
      <point x="463" y="219" type="line"/>
      <point x="223" y="219" type="line"/>
      <point x="202" y="-106" type="line"/>
      <point x="274" y="-112"/>
      <point x="464" y="-198"/>
      <point x="726" y="-198" type="curve" smooth="yes"/>
      <point x="1104" y="-198"/>
      <point x="1262" y="-20"/>
      <point x="1262" y="153" type="curve" smooth="yes"/>
      <point x="1262" y="246"/>
      <point x="1220" y="322"/>
      <point x="1152" y="385" type="curve"/>
      <point x="1227" y="443"/>
      <point x="1305" y="577"/>
      <point x="1305" y="718" type="curve" smooth="yes"/>
      <point x="1305" y="1005"/>
      <point x="980" y="1107"/>
      <point x="813" y="1171" type="curve" smooth="yes"/>
      <point x="590" y="1256"/>
      <point x="558" y="1308"/>
      <point x="558" y="1367" type="curve" smooth="yes"/>
      <point x="558" y="1453"/>
      <point x="625" y="1502"/>
      <point x="737" y="1502" type="curve" smooth="yes"/>
      <point x="831" y="1502"/>
      <point x="893" y="1467"/>
      <point x="908" y="1443" type="curve"/>
      <point x="969" y="1269" type="line"/>
      <point x="1188" y="1269" type="line"/>
      <point x="1200" y="1572" type="line"/>
      <point x="1132" y="1583"/>
      <point x="967" y="1645"/>
      <point x="758" y="1645" type="curve" smooth="yes"/>
      <point x="454" y="1645"/>
      <point x="235" y="1514"/>
      <point x="235" y="1308" type="curve" smooth="yes"/>
      <point x="235" y="1216"/>
      <point x="279" y="1130"/>
      <point x="346" y="1067" type="curve"/>
      <point x="235" y="988"/>
      <point x="187" y="879"/>
      <point x="187" y="757" type="curve" smooth="yes"/>
      <point x="187" y="522"/>
      <point x="366" y="403"/>
      <point x="627" y="293" type="curve" smooth="yes"/>
      <point x="803" y="219"/>
      <point x="941" y="181"/>
      <point x="941" y="73" type="curve" smooth="yes"/>
      <point x="941" y="-6"/>
      <point x="867" y="-61"/>
      <point x="737" y="-61" type="curve" smooth="yes"/>
      <point x="627" y="-61"/>
      <point x="540" y="-21"/>
      <point x="507" y="19" type="curve"/>
    </contour>
    <contour>
      <point x="787" y="591" type="curve" smooth="yes"/>
      <point x="551" y="695"/>
      <point x="420" y="756"/>
      <point x="420" y="890" type="curve" smooth="yes"/>
      <point x="420" y="934"/>
      <point x="435" y="966"/>
      <point x="450" y="988" type="curve"/>
      <point x="491" y="965"/>
      <point x="491" y="956"/>
      <point x="702" y="858" type="curve" smooth="yes"/>
      <point x="903" y="765"/>
      <point x="1047" y="705"/>
      <point x="1047" y="571" type="curve" smooth="yes"/>
      <point x="1047" y="540"/>
      <point x="1039" y="505"/>
      <point x="1023" y="476" type="curve"/>
      <point x="933" y="527"/>
      <point x="878" y="551"/>
    </contour>
  </outline>
</glyph>
<glyph name="logicalnot" format="2">
  <advance width="1486"/>
  <unicode hex="00AC"/>
  <outline>
    <contour>
      <point x="1262" y="712" type="line"/>
      <point x="180" y="712" type="line"/>
      <point x="180" y="526" type="line"/>
      <point x="1034" y="526" type="line"/>
      <point x="1034" y="163" type="line"/>
      <point x="1262" y="163" type="line"/>
    </contour>
  </outline>
</glyph>
<glyph name="micro" format="2">
  <advance width="1537"/>
  <unicode hex="00B5"/>
  <outline>
    <contour>
      <point x="227" y="-364" type="line"/>
      <point x="577" y="-364" type="line"/>
      <point x="577" y="51" type="line"/>
      <point x="620" y="6"/>
      <point x="696" y="-20"/>
      <point x="771" y="-20" type="curve" smooth="yes"/>
      <point x="895" y="-20"/>
      <point x="1006" y="50"/>
      <point x="1048" y="150" type="curve"/>
      <point x="1048" y="94" type="line" smooth="yes"/>
      <point x="1048" y="63"/>
      <point x="1048" y="-26"/>
      <point x="1207" y="-26" type="curve" smooth="yes"/>
      <point x="1284" y="-26"/>
      <point x="1395" y="-5"/>
      <point x="1441" y="9" type="curve"/>
      <point x="1441" y="138" type="line"/>
      <point x="1318" y="138" type="line"/>
      <point x="1318" y="1108" type="line"/>
      <point x="1277" y="1133" type="line"/>
      <point x="852" y="1109" type="line"/>
      <point x="854" y="991" type="line"/>
      <point x="949" y="952" type="line"/>
      <point x="949" y="265" type="line"/>
      <point x="935" y="229"/>
      <point x="882" y="164"/>
      <point x="780" y="164" type="curve" smooth="yes"/>
      <point x="658" y="164"/>
      <point x="597" y="256"/>
      <point x="597" y="339" type="curve" smooth="yes"/>
      <point x="597" y="1108" type="line"/>
      <point x="550" y="1133" type="line"/>
      <point x="106" y="1108" type="line"/>
      <point x="106" y="990" type="line"/>
      <point x="226" y="952" type="line"/>
    </contour>
  </outline>
</glyph>
<glyph name="paragraph" format="2">
  <advance width="1772"/>
  <unicode hex="00B6"/>
  <outline>
    <contour>
      <point x="602" y="151" type="line"/>
      <point x="402" y="130" type="line"/>
      <point x="402" y="0" type="line"/>
      <point x="899" y="0" type="line"/>
      <point x="899" y="1509" type="line"/>
      <point x="916" y="1511"/>
      <point x="935" y="1512"/>
      <point x="967" y="1512" type="curve" smooth="yes"/>
      <point x="1031" y="1512"/>
      <point x="1102" y="1508"/>
      <point x="1149" y="1503" type="curve"/>
      <point x="1149" y="0" type="line"/>
      <point x="1578" y="0" type="line"/>
      <point x="1578" y="130" type="line"/>
      <point x="1442" y="151" type="line"/>
      <point x="1442" y="1495" type="line"/>
      <point x="1604" y="1517" type="line"/>
      <point x="1604" y="1652" type="line"/>
      <point x="1325" y="1652" type="line" smooth="yes"/>
      <point x="1138" y="1652"/>
      <point x="971" y="1670"/>
      <point x="816" y="1670" type="curve" smooth="yes"/>
      <point x="313" y="1670"/>
      <point x="147" y="1479"/>
      <point x="147" y="1207" type="curve" smooth="yes"/>
      <point x="147" y="952"/>
      <point x="293" y="771"/>
      <point x="602" y="771" type="curve"/>
    </contour>
  </outline>
</glyph>
<glyph name="divide" format="2">
  <advance width="1374"/>
  <unicode hex="00F7"/>
  <outline>
    <contour>
      <point x="679" y="926" type="curve" smooth="yes"/>
      <point x="788" y="926"/>
      <point x="867" y="986"/>
      <point x="867" y="1089" type="curve" smooth="yes"/>
      <point x="867" y="1168"/>
      <point x="808" y="1241"/>
      <point x="705" y="1241" type="curve" smooth="yes"/>
      <point x="607" y="1241"/>
      <point x="522" y="1172"/>
      <point x="522" y="1077" type="curve" smooth="yes"/>
      <point x="522" y="987"/>
      <point x="598" y="926"/>
    </contour>
    <contour>
      <point x="1194" y="745" type="line"/>
      <point x="180" y="745" type="line"/>
      <point x="180" y="547" type="line"/>
      <point x="1194" y="547" type="line"/>
    </contour>
    <contour>
      <point x="513" y="221" type="curve" smooth="yes"/>
      <point x="513" y="132"/>
      <point x="590" y="71"/>
      <point x="669" y="71" type="curve" smooth="yes"/>
      <point x="778" y="71"/>
      <point x="859" y="130"/>
      <point x="859" y="235" type="curve" smooth="yes"/>
      <point x="859" y="313"/>
      <point x="799" y="385"/>
      <point x="697" y="385" type="curve" smooth="yes"/>
      <point x="597" y="385"/>
      <point x="513" y="318"/>
    </contour>
  </outline>
</glyph>
<glyph name="eogonek" format="2">
  <advance width="1081"/>
  <unicode hex="0119"/>
  <anchor x="683" y="20" name="_ogonek"/>
  <anchor x="540" y="0" name="bottom"/>
  <anchor x="541" y="-166" name="mark0"/>
  <anchor x="683" y="20" name="ogonek"/>
  <anchor x="567" y="1111" name="top"/>
  <outline>
    <contour>
      <point x="602" y="-483" type="curve" smooth="yes"/>
      <point x="704" y="-483"/>
      <point x="808" y="-446"/>
      <point x="881" y="-391" type="curve"/>
      <point x="879" y="-269" type="line"/>
      <point x="836" y="-286"/>
      <point x="787" y="-307"/>
      <point x="729" y="-307" type="curve" smooth="yes"/>
      <point x="645" y="-307"/>
      <point x="601" y="-267"/>
      <point x="601" y="-201" type="curve" smooth="yes"/>
      <point x="601" y="-118"/>
      <point x="694" y="-26"/>
      <point x="805" y="18" type="curve"/>
      <point x="903" y="52"/>
      <point x="982" y="106"/>
      <point x="1017" y="141" type="curve"/>
      <point x="961" y="262" type="line"/>
      <point x="901" y="224"/>
      <point x="781" y="179"/>
      <point x="675" y="179" type="curve" smooth="yes"/>
      <point x="497" y="179"/>
      <point x="401" y="302"/>
      <point x="387" y="528" type="curve"/>
      <point x="1014" y="528" type="line"/>
      <point x="1025" y="579"/>
      <point x="1031" y="643"/>
      <point x="1031" y="734" type="curve"/>
      <point x="1026" y="989"/>
      <point x="879" y="1140"/>
      <point x="596" y="1140" type="curve" smooth="yes"/>
      <point x="265" y="1140"/>
      <point x="48" y="926"/>
      <point x="48" y="556" type="curve" smooth="yes"/>
      <point x="48" y="230"/>
      <point x="191" y="-3"/>
      <point x="539" y="-21" type="curve"/>
      <point x="410" y="-91"/>
      <point x="340" y="-188"/>
      <point x="340" y="-284" type="curve" smooth="yes"/>
      <point x="340" y="-424"/>
      <point x="480" y="-483"/>
    </contour>
    <contour>
      <point x="385" y="661" type="line"/>
      <point x="391" y="940"/>
      <point x="464" y="1001"/>
      <point x="566" y="1001" type="curve" smooth="yes"/>
      <point x="679" y="1001"/>
      <point x="715" y="901"/>
      <point x="716" y="744" type="curve" smooth="yes"/>
      <point x="716" y="716"/>
      <point x="714" y="689"/>
      <point x="713" y="661" type="curve"/>
    </contour>
  </outline>
</glyph>
<glyph name="hbar" format="2">
  <advance width="1426"/>
  <unicode hex="0127"/>
  <anchor x="736" y="0" name="bottom"/>
  <anchor x="677" y="556" name="center"/>
  <anchor x="313" y="1596" name="top"/>
  <outline>
    <contour>
      <point x="16" y="1351" type="line"/>
      <point x="16" y="1218" type="line"/>
      <point x="837" y="1218" type="line"/>
      <point x="837" y="1351" type="line"/>
    </contour>
    <component base="h"/>
  </outline>
</glyph>
<glyph name="eng" format="2">
  <advance width="1349"/>
  <unicode hex="014B"/>
  <outline>
    <contour>
      <point x="173" y="151" type="line"/>
      <point x="64" y="132" type="line"/>
      <point x="64" y="0" type="line"/>
      <point x="616" y="0" type="line"/>
      <point x="616" y="132" type="line"/>
      <point x="507" y="151" type="line"/>
      <point x="507" y="861" type="line"/>
      <point x="549" y="894"/>
      <point x="626" y="946"/>
      <point x="711" y="946" type="curve" smooth="yes"/>
      <point x="831" y="946"/>
      <point x="864" y="879"/>
      <point x="864" y="702" type="curve" smooth="yes"/>
      <point x="864" y="44" type="line" smooth="yes"/>
      <point x="864" y="-153"/>
      <point x="854" y="-311"/>
      <point x="740" y="-358" type="curve"/>
      <point x="713" y="-371"/>
      <point x="654" y="-381"/>
      <point x="634" y="-379" type="curve"/>
      <point x="643" y="-513" type="line"/>
      <point x="654" y="-521"/>
      <point x="735" y="-523"/>
      <point x="751" y="-521" type="curve"/>
      <point x="1048" y="-514"/>
      <point x="1198" y="-310"/>
      <point x="1198" y="22" type="curve" smooth="yes"/>
      <point x="1198" y="702" type="line" smooth="yes"/>
      <point x="1198" y="1014"/>
      <point x="1113" y="1137"/>
      <point x="877" y="1137" type="curve" smooth="yes"/>
      <point x="711" y="1137"/>
      <point x="561" y="1057"/>
      <point x="474" y="978" type="curve"/>
      <point x="476" y="1031" type="line"/>
      <point x="476" y="1097" type="line"/>
      <point x="423" y="1140" type="line"/>
      <point x="419" y="1140" type="line"/>
      <point x="52" y="1097" type="line"/>
      <point x="52" y="940" type="line"/>
      <point x="173" y="903" type="line"/>
    </contour>
  </outline>
</glyph>
<glyph name="oe" format="2">
  <advance width="1837"/>
  <unicode hex="0153"/>
  <anchor x="1057" y="-166" name="mark0"/>
  <outline>
    <contour>
      <point x="586" y="-22" type="curve" smooth="yes"/>
      <point x="735" y="-22"/>
      <point x="861" y="31"/>
      <point x="951" y="128" type="curve"/>
      <point x="1035" y="33"/>
      <point x="1163" y="-22"/>
      <point x="1341" y="-22" type="curve" smooth="yes"/>
      <point x="1531" y="-22"/>
      <point x="1712" y="75"/>
      <point x="1774" y="141" type="curve"/>
      <point x="1721" y="260" type="line"/>
      <point x="1660" y="223"/>
      <point x="1537" y="179"/>
      <point x="1432" y="179" type="curve" smooth="yes"/>
      <point x="1253" y="179"/>
      <point x="1157" y="303"/>
      <point x="1143" y="528" type="curve"/>
      <point x="1772" y="528" type="line"/>
      <point x="1782" y="579"/>
      <point x="1788" y="643"/>
      <point x="1787" y="734" type="curve"/>
      <point x="1783" y="989"/>
      <point x="1635" y="1140"/>
      <point x="1351" y="1140" type="curve" smooth="yes"/>
      <point x="1199" y="1140"/>
      <point x="1073" y="1090"/>
      <point x="982" y="1000" type="curve"/>
      <point x="901" y="1095"/>
      <point x="777" y="1140"/>
      <point x="615" y="1140" type="curve" smooth="yes"/>
      <point x="312" y="1140"/>
      <point x="48" y="948"/>
      <point x="48" y="549" type="curve" smooth="yes"/>
      <point x="48" y="178"/>
      <point x="259" y="-22"/>
    </contour>
    <contour>
      <point x="604" y="118" type="curve" smooth="yes"/>
      <point x="468" y="118"/>
      <point x="403" y="248"/>
      <point x="403" y="573" type="curve" smooth="yes"/>
      <point x="403" y="875"/>
      <point x="470" y="1001"/>
      <point x="597" y="1001" type="curve" smooth="yes"/>
      <point x="738" y="1001"/>
      <point x="792" y="862"/>
      <point x="792" y="546" type="curve" smooth="yes"/>
      <point x="792" y="241"/>
      <point x="729" y="118"/>
    </contour>
    <contour>
      <point x="1140" y="661" type="line"/>
      <point x="1146" y="941"/>
      <point x="1221" y="1001"/>
      <point x="1323" y="1001" type="curve" smooth="yes"/>
      <point x="1436" y="1001"/>
      <point x="1470" y="898"/>
      <point x="1470" y="744" type="curve" smooth="yes"/>
      <point x="1470" y="716"/>
      <point x="1470" y="689"/>
      <point x="1469" y="661" type="curve"/>
    </contour>
  </outline>
</glyph>
<glyph name="tbar" format="2">
  <advance width="839"/>
  <unicode hex="0167"/>
  <anchor x="444" y="0" name="bottom"/>
  <anchor x="409" y="556" name="center"/>
  <anchor x="441" y="-166" name="mark0"/>
  <anchor x="408" y="1356" name="top"/>
  <anchor x="678" y="1111" name="topright"/>
  <outline>
    <contour>
      <point x="776" y="719" type="line"/>
      <point x="55" y="719" type="line"/>
      <point x="55" y="566" type="line"/>
      <point x="776" y="566" type="line"/>
    </contour>
    <component base="t"/>
  </outline>
</glyph>
<glyph name="florin" format="2">
  <advance width="1080"/>
  <unicode hex="0192"/>
  <outline>
    <contour>
      <point x="108" y="922" type="line"/>
      <point x="314" y="922" type="line"/>
      <point x="193" y="-348" type="line"/>
      <point x="533" y="-348" type="line"/>
      <point x="652" y="922" type="line"/>
      <point x="915" y="922" type="line"/>
      <point x="933" y="1109" type="line"/>
      <point x="674" y="1109" type="line"/>
      <point x="689" y="1245" type="line"/>
      <point x="694" y="1321"/>
      <point x="712" y="1426"/>
      <point x="839" y="1426" type="curve" smooth="yes"/>
      <point x="887" y="1426"/>
      <point x="960" y="1410"/>
      <point x="998" y="1380" type="curve"/>
      <point x="1023" y="1625" type="line"/>
      <point x="1010" y="1631"/>
      <point x="928" y="1646"/>
      <point x="849" y="1646" type="curve" smooth="yes"/>
      <point x="602" y="1646"/>
      <point x="372" y="1493"/>
      <point x="345" y="1189" type="curve"/>
      <point x="335" y="1109" type="line"/>
      <point x="123" y="1053" type="line"/>
    </contour>
  </outline>
</glyph>
<glyph name="gravecomb" format="2">
  <unicode hex="0300"/>
  <anchor x="0" y="1110" name="_top"/>
  <anchor x="0" y="1797" name="top"/>
  <outline>
    <contour>
      <point x="112" y="1263" type="curve"/>
      <point x="114" y="1263" type="line"/>
      <point x="228" y="1361" type="line"/>
      <point x="-162" y="1783" type="line"/>
      <point x="-356" y="1610" type="line"/>
      <point x="-276" y="1494"/>
      <point x="-10" y="1306"/>
    </contour>
  </outline>
</glyph>
<glyph name="brevecomb" format="2">
  <unicode hex="0306"/>
  <anchor x="0" y="1110" name="_top"/>
  <anchor x="0" y="1738" name="top"/>
  <outline>
    <contour>
      <point x="0" y="1283" type="curve" smooth="yes"/>
      <point x="228" y="1283"/>
      <point x="384" y="1424"/>
      <point x="384" y="1618" type="curve" smooth="yes"/>
      <point x="384" y="1648"/>
      <point x="382" y="1675"/>
      <point x="379" y="1696" type="curve"/>
      <point x="233" y="1696" type="line"/>
      <point x="233" y="1683"/>
      <point x="233" y="1668"/>
      <point x="231" y="1653" type="curve" smooth="yes"/>
      <point x="220" y="1572"/>
      <point x="155" y="1497"/>
      <point x="0" y="1497" type="curve" smooth="yes"/>
      <point x="-155" y="1497"/>
      <point x="-220" y="1572"/>
      <point x="-231" y="1653" type="curve" smooth="yes"/>
      <point x="-233" y="1668"/>
      <point x="-233" y="1683"/>
      <point x="-233" y="1696" type="curve"/>
      <point x="-379" y="1696" type="line"/>
      <point x="-382" y="1675"/>
      <point x="-384" y="1648"/>
      <point x="-384" y="1618" type="curve" smooth="yes"/>
      <point x="-384" y="1424"/>
      <point x="-228" y="1283"/>
    </contour>
  </outline>
</glyph>
<glyph name="dotaccentcomb" format="2">
  <unicode hex="0307"/>
  <anchor x="0" y="1110" name="_top"/>
  <anchor x="0" y="1548" name="top"/>
  <outline>
    <contour>
      <point x="-10" y="1283" type="curve" smooth="yes"/>
      <point x="-8" y="1283" type="line" smooth="yes"/>
      <point x="127" y="1283"/>
      <point x="192" y="1369"/>
      <point x="192" y="1474" type="curve" smooth="yes"/>
      <point x="192" y="1557"/>
      <point x="132" y="1636"/>
      <point x="10" y="1636" type="curve" smooth="yes"/>
      <point x="8" y="1636" type="line" smooth="yes"/>
      <point x="-127" y="1636"/>
      <point x="-192" y="1550"/>
      <point x="-192" y="1445" type="curve" smooth="yes"/>
      <point x="-192" y="1362"/>
      <point x="-132" y="1283"/>
    </contour>
  </outline>
</glyph>
<glyph name="hookabovecomb" format="2">
  <unicode hex="0309"/>
  <anchor x="0" y="1110" name="_top"/>
  <anchor x="0" y="1576" name="top"/>
  <outline>
    <contour>
      <point x="-84" y="1263" type="curve"/>
      <point x="75" y="1263" type="line"/>
      <point x="58" y="1324"/>
      <point x="68" y="1355"/>
      <point x="120" y="1391" type="curve" smooth="yes"/>
      <point x="190" y="1440"/>
      <point x="266" y="1490"/>
      <point x="266" y="1579" type="curve" smooth="yes"/>
      <point x="266" y="1709"/>
      <point x="132" y="1802"/>
      <point x="-63" y="1802" type="curve" smooth="yes"/>
      <point x="-141" y="1802"/>
      <point x="-220" y="1787"/>
      <point x="-266" y="1767" type="curve"/>
      <point x="-266" y="1601" type="line"/>
      <point x="-235" y="1617"/>
      <point x="-186" y="1628"/>
      <point x="-134" y="1628" type="curve" smooth="yes"/>
      <point x="-43" y="1628"/>
      <point x="18" y="1598"/>
      <point x="18" y="1549" type="curve" smooth="yes"/>
      <point x="18" y="1464"/>
      <point x="-113" y="1443"/>
      <point x="-113" y="1355" type="curve" smooth="yes"/>
      <point x="-113" y="1313"/>
      <point x="-101" y="1292"/>
    </contour>
  </outline>
</glyph>
<glyph name="breveinvertedcomb" format="2">
  <unicode hex="0311"/>
  <anchor x="0" y="1110" name="_top"/>
  <anchor x="0" y="1738" name="top"/>
  <outline>
    <contour>
      <point x="0" y="1696" type="curve" smooth="yes"/>
      <point x="-228" y="1696"/>
      <point x="-384" y="1555"/>
      <point x="-384" y="1361" type="curve" smooth="yes"/>
      <point x="-384" y="1331"/>
      <point x="-382" y="1304"/>
      <point x="-379" y="1283" type="curve"/>
      <point x="-233" y="1283" type="line"/>
      <point x="-233" y="1296"/>
      <point x="-233" y="1311"/>
      <point x="-231" y="1326" type="curve" smooth="yes"/>
      <point x="-220" y="1407"/>
      <point x="-155" y="1482"/>
      <point x="0" y="1482" type="curve" smooth="yes"/>
      <point x="155" y="1482"/>
      <point x="220" y="1407"/>
      <point x="231" y="1326" type="curve" smooth="yes"/>
      <point x="233" y="1311"/>
      <point x="233" y="1296"/>
      <point x="233" y="1283" type="curve"/>
      <point x="379" y="1283" type="line"/>
      <point x="382" y="1304"/>
      <point x="384" y="1331"/>
      <point x="384" y="1361" type="curve" smooth="yes"/>
      <point x="384" y="1555"/>
      <point x="228" y="1696"/>
    </contour>
  </outline>
</glyph>
<glyph name="pi" format="2">
  <advance width="1614"/>
  <unicode hex="03C0"/>
  <outline>
    <contour>
      <point x="67" y="147" type="curve"/>
      <point x="253" y="-19" type="line"/>
      <point x="424" y="-12"/>
      <point x="608" y="87"/>
      <point x="660" y="435" type="curve" smooth="yes"/>
      <point x="722" y="851" type="line"/>
      <point x="962" y="851" type="line"/>
      <point x="903" y="483"/>
      <point x="862" y="302"/>
      <point x="857" y="191" type="curve"/>
      <point x="856" y="60"/>
      <point x="944" y="-19"/>
      <point x="1097" y="-19" type="curve" smooth="yes"/>
      <point x="1359" y="-19"/>
      <point x="1487" y="171"/>
      <point x="1520" y="359" type="curve"/>
      <point x="1371" y="359" type="line"/>
      <point x="1331" y="230"/>
      <point x="1254" y="197"/>
      <point x="1197" y="197" type="curve" smooth="yes"/>
      <point x="1137" y="197"/>
      <point x="1117" y="245"/>
      <point x="1121" y="305" type="curve"/>
      <point x="1130" y="412"/>
      <point x="1143" y="520"/>
      <point x="1174" y="851" type="curve"/>
      <point x="1235" y="851" type="line" smooth="yes"/>
      <point x="1474" y="851"/>
      <point x="1562" y="1031"/>
      <point x="1569" y="1214" type="curve"/>
      <point x="1419" y="1214" type="line"/>
      <point x="1400" y="1136"/>
      <point x="1345" y="1109"/>
      <point x="1239" y="1109" type="curve" smooth="yes"/>
      <point x="460" y="1110" type="line" smooth="yes"/>
      <point x="216" y="1110"/>
      <point x="91" y="965"/>
      <point x="91" y="738" type="curve"/>
      <point x="223" y="725" type="line"/>
      <point x="242" y="787"/>
      <point x="304" y="852"/>
      <point x="388" y="851" type="curve" smooth="yes"/>
      <point x="511" y="851" type="line"/>
      <point x="419" y="490" type="line" smooth="yes"/>
      <point x="367" y="286"/>
      <point x="240" y="171"/>
    </contour>
  </outline>
</glyph>
<glyph name="Yi-cy" format="2">
  <advance width="840"/>
  <unicode hex="0407"/>
  <anchor x="415" y="0" name="bottom"/>
  <anchor x="417" y="-166" name="mark0"/>
  <anchor x="717" y="20" name="ogonek"/>
  <anchor x="415" y="1486" name="top"/>
  <anchor x="36" y="1486" name="topleft"/>
  <outline>
    <contour>
      <point x="209" y="1610" type="curve" smooth="yes"/>
      <point x="211" y="1610" type="line" smooth="yes"/>
      <point x="319" y="1610"/>
      <point x="371" y="1696"/>
      <point x="371" y="1801" type="curve" smooth="yes"/>
      <point x="371" y="1884"/>
      <point x="324" y="1963"/>
      <point x="228" y="1963" type="curve" smooth="yes"/>
      <point x="226" y="1963" type="line" smooth="yes"/>
      <point x="118" y="1963"/>
      <point x="66" y="1877"/>
      <point x="66" y="1772" type="curve" smooth="yes"/>
      <point x="66" y="1689"/>
      <point x="113" y="1610"/>
    </contour>
    <contour>
      <point x="610" y="1610" type="curve" smooth="yes"/>
      <point x="612" y="1610" type="line" smooth="yes"/>
      <point x="720" y="1610"/>
      <point x="772" y="1696"/>
      <point x="772" y="1801" type="curve" smooth="yes"/>
      <point x="772" y="1884"/>
      <point x="725" y="1963"/>
      <point x="629" y="1963" type="curve" smooth="yes"/>
      <point x="627" y="1963" type="line" smooth="yes"/>
      <point x="519" y="1963"/>
      <point x="467" y="1877"/>
      <point x="467" y="1772" type="curve" smooth="yes"/>
      <point x="467" y="1689"/>
      <point x="514" y="1610"/>
    </contour>
    <component base="I"/>
  </outline>
</glyph>
<glyph name="Lje-cy" format="2">
  <advance width="2287"/>
  <unicode hex="0409"/>
  <outline>
    <contour>
      <point x="183" y="-13" type="curve" smooth="yes"/>
      <point x="288" y="-13"/>
      <point x="403" y="60"/>
      <point x="468" y="204" type="curve" smooth="yes"/>
      <point x="560" y="407"/>
      <point x="604" y="851"/>
      <point x="611" y="1175" type="curve" smooth="yes"/>
      <point x="614" y="1319" type="line"/>
      <point x="1059" y="1319" type="line"/>
      <point x="1059" y="155" type="line"/>
      <point x="844" y="132" type="line"/>
      <point x="844" y="0" type="line"/>
      <point x="1199" y="0" type="line" smooth="yes"/>
      <point x="1375" y="0"/>
      <point x="1521" y="-11"/>
      <point x="1655" y="-11" type="curve" smooth="yes"/>
      <point x="1990" y="-11"/>
      <point x="2257" y="166"/>
      <point x="2257" y="477" type="curve" smooth="yes"/>
      <point x="2257" y="745"/>
      <point x="2085" y="919"/>
      <point x="1684" y="919" type="curve" smooth="yes"/>
      <point x="1585" y="919"/>
      <point x="1461" y="907"/>
      <point x="1396" y="898" type="curve"/>
      <point x="1396" y="1319" type="line"/>
      <point x="1583" y="1347" type="line"/>
      <point x="1583" y="1486" type="line"/>
      <point x="243" y="1486" type="line"/>
      <point x="243" y="1347" type="line"/>
      <point x="447" y="1319" type="line"/>
      <point x="444" y="1224" type="line" smooth="yes"/>
      <point x="429" y="753"/>
      <point x="399" y="525"/>
      <point x="337" y="392" type="curve" smooth="yes"/>
      <point x="290" y="292"/>
      <point x="233" y="281"/>
      <point x="182" y="281" type="curve" smooth="yes"/>
      <point x="111" y="281"/>
      <point x="91" y="284"/>
      <point x="40" y="289" type="curve"/>
      <point x="52" y="6" type="line"/>
      <point x="93" y="-6"/>
      <point x="102" y="-13"/>
    </contour>
    <contour>
      <point x="1566" y="124" type="curve" smooth="yes"/>
      <point x="1496" y="124"/>
      <point x="1442" y="130"/>
      <point x="1396" y="140" type="curve"/>
      <point x="1396" y="761" type="line"/>
      <point x="1440" y="768"/>
      <point x="1536" y="776"/>
      <point x="1588" y="776" type="curve" smooth="yes"/>
      <point x="1773" y="776"/>
      <point x="1860" y="676"/>
      <point x="1860" y="481" type="curve" smooth="yes"/>
      <point x="1860" y="262"/>
      <point x="1775" y="124"/>
    </contour>
  </outline>
</glyph>
<glyph name="Dzhe-cy" format="2">
  <advance width="1800"/>
  <unicode hex="040F"/>
  <outline>
    <contour>
      <point x="798" y="-410" type="curve"/>
      <point x="1008" y="-410" type="line"/>
      <point x="1010" y="-274"/>
      <point x="1043" y="-51"/>
      <point x="1060" y="0" type="curve"/>
      <point x="1722" y="0" type="line"/>
      <point x="1722" y="132" type="line"/>
      <point x="1562" y="153" type="line"/>
      <point x="1562" y="1319" type="line"/>
      <point x="1714" y="1347" type="line"/>
      <point x="1714" y="1486" type="line"/>
      <point x="1037" y="1486" type="line"/>
      <point x="1037" y="1347" type="line"/>
      <point x="1211" y="1319" type="line"/>
      <point x="1211" y="140" type="line"/>
      <point x="588" y="140" type="line"/>
      <point x="588" y="1319" type="line"/>
      <point x="767" y="1347" type="line"/>
      <point x="767" y="1486" type="line"/>
      <point x="82" y="1486" type="line"/>
      <point x="82" y="1347" type="line"/>
      <point x="237" y="1319" type="line"/>
      <point x="237" y="155" type="line"/>
      <point x="78" y="132" type="line"/>
      <point x="78" y="0" type="line"/>
      <point x="741" y="0" type="line"/>
      <point x="754" y="-20"/>
      <point x="798" y="-304"/>
    </contour>
  </outline>
</glyph>
<glyph name="Be-cy" format="2">
  <advance width="1390"/>
  <unicode hex="0411"/>
  <outline>
    <contour>
      <point x="842" y="-9" type="curve" smooth="yes"/>
      <point x="1152" y="-9"/>
      <point x="1370" y="153"/>
      <point x="1370" y="464" type="curve" smooth="yes"/>
      <point x="1370" y="743"/>
      <point x="1200" y="885"/>
      <point x="844" y="885" type="curve" smooth="yes"/>
      <point x="791" y="885"/>
      <point x="612" y="866"/>
      <point x="592" y="862" type="curve"/>
      <point x="592" y="1341" type="line"/>
      <point x="998" y="1323" type="line"/>
      <point x="1060" y="1070" type="line"/>
      <point x="1256" y="1070" type="line"/>
      <point x="1234" y="1486" type="line"/>
      <point x="80" y="1486" type="line"/>
      <point x="80" y="1345" type="line"/>
      <point x="250" y="1317" type="line"/>
      <point x="250" y="153" type="line"/>
      <point x="78" y="133" type="line"/>
      <point x="78" y="0" type="line"/>
      <point x="434" y="0" type="line" smooth="yes"/>
      <point x="516" y="0"/>
      <point x="794" y="-9"/>
    </contour>
    <contour>
      <point x="730" y="125" type="curve" smooth="yes"/>
      <point x="657" y="125"/>
      <point x="620" y="135"/>
      <point x="592" y="143" type="curve"/>
      <point x="592" y="725" type="line"/>
      <point x="608" y="727"/>
      <point x="704" y="741"/>
      <point x="744" y="741" type="curve" smooth="yes"/>
      <point x="928" y="741"/>
      <point x="1018" y="652"/>
      <point x="1018" y="446" type="curve" smooth="yes"/>
      <point x="1018" y="264"/>
      <point x="948" y="125"/>
    </contour>
  </outline>
</glyph>
<glyph name="El-cy" format="2">
  <advance width="1670"/>
  <unicode hex="041B"/>
  <outline>
    <contour>
      <point x="183" y="-13" type="curve" smooth="yes"/>
      <point x="288" y="-13"/>
      <point x="403" y="60"/>
      <point x="468" y="204" type="curve" smooth="yes"/>
      <point x="560" y="407"/>
      <point x="604" y="851"/>
      <point x="611" y="1175" type="curve" smooth="yes"/>
      <point x="614" y="1319" type="line"/>
      <point x="1059" y="1319" type="line"/>
      <point x="1059" y="155" type="line"/>
      <point x="844" y="132" type="line"/>
      <point x="844" y="0" type="line"/>
      <point x="1592" y="0" type="line"/>
      <point x="1592" y="132" type="line"/>
      <point x="1396" y="153" type="line"/>
      <point x="1396" y="1319" type="line"/>
      <point x="1583" y="1347" type="line"/>
      <point x="1583" y="1486" type="line"/>
      <point x="243" y="1486" type="line"/>
      <point x="243" y="1347" type="line"/>
      <point x="447" y="1319" type="line"/>
      <point x="444" y="1224" type="line" smooth="yes"/>
      <point x="429" y="753"/>
      <point x="399" y="525"/>
      <point x="337" y="392" type="curve" smooth="yes"/>
      <point x="290" y="292"/>
      <point x="233" y="281"/>
      <point x="182" y="281" type="curve" smooth="yes"/>
      <point x="111" y="281"/>
      <point x="91" y="284"/>
      <point x="40" y="289" type="curve"/>
      <point x="52" y="6" type="line"/>
      <point x="93" y="-6"/>
      <point x="102" y="-13"/>
    </contour>
  </outline>
</glyph>
<glyph name="Shcha-cy" format="2">
  <advance width="2565"/>
  <unicode hex="0429"/>
  <outline>
    <contour>
      <point x="2241" y="-406" type="curve"/>
      <point x="2435" y="-406" type="line"/>
      <point x="2448" y="-338"/>
      <point x="2482" y="-1"/>
      <point x="2487" y="155" type="curve"/>
      <point x="2178" y="155" type="line"/>
      <point x="2181" y="0" type="line"/>
      <point x="2205" y="-49"/>
      <point x="2240" y="-345"/>
    </contour>
    <component base="Sha-cy"/>
  </outline>
</glyph>
<glyph name="Ereversed-cy" format="2">
  <advance width="1452"/>
  <unicode hex="042D"/>
  <anchor x="671" y="1486" name="top"/>
  <outline>
    <contour>
      <point x="569" y="-22" type="curve" smooth="yes"/>
      <point x="1054" y="-22"/>
      <point x="1412" y="270"/>
      <point x="1412" y="754" type="curve" smooth="yes"/>
      <point x="1412" y="1208"/>
      <point x="1145" y="1502"/>
      <point x="604" y="1502" type="curve" smooth="yes"/>
      <point x="345" y="1502"/>
      <point x="261" y="1437"/>
      <point x="122" y="1426" type="curve"/>
      <point x="112" y="1006" type="line"/>
      <point x="347" y="1006" type="line"/>
      <point x="411" y="1297" type="line"/>
      <point x="445" y="1330"/>
      <point x="482" y="1359"/>
      <point x="583" y="1359" type="curve" smooth="yes"/>
      <point x="832" y="1359"/>
      <point x="964" y="1143"/>
      <point x="987" y="827" type="curve"/>
      <point x="383" y="841" type="line"/>
      <point x="383" y="660" type="line"/>
      <point x="989" y="675" type="line"/>
      <point x="977" y="301"/>
      <point x="822" y="116"/>
      <point x="591" y="116" type="curve" smooth="yes"/>
      <point x="504" y="116"/>
      <point x="425" y="147"/>
      <point x="405" y="170" type="curve"/>
      <point x="351" y="404" type="line"/>
      <point x="122" y="414" type="line"/>
      <point x="97" y="18" type="line"/>
      <point x="244" y="14"/>
      <point x="366" y="-22"/>
    </contour>
  </outline>
</glyph>
<glyph name="Ia-cy" format="2">
  <advance width="1561"/>
  <unicode hex="042F"/>
  <outline>
    <contour>
      <point x="-5" y="0" type="line"/>
      <point x="417" y="0" type="line" smooth="yes"/>
      <point x="501" y="0"/>
      <point x="593" y="547"/>
      <point x="706" y="632" type="curve"/>
      <point x="761" y="631"/>
      <point x="867" y="631"/>
      <point x="964" y="631" type="curve"/>
      <point x="964" y="153" type="line"/>
      <point x="782" y="131" type="line"/>
      <point x="782" y="0" type="line"/>
      <point x="1483" y="0" type="line"/>
      <point x="1483" y="131" type="line"/>
      <point x="1316" y="153" type="line"/>
      <point x="1316" y="1319" type="line"/>
      <point x="1472" y="1347" type="line"/>
      <point x="1472" y="1486" type="line"/>
      <point x="1135" y="1486" type="line" smooth="yes"/>
      <point x="1010" y="1486"/>
      <point x="937" y="1489"/>
      <point x="786" y="1489" type="curve" smooth="yes"/>
      <point x="338" y="1489"/>
      <point x="148" y="1337"/>
      <point x="148" y="1046" type="curve" smooth="yes"/>
      <point x="148" y="858"/>
      <point x="269" y="726"/>
      <point x="503" y="680" type="curve"/>
      <point x="265" y="591"/>
      <point x="175" y="182"/>
      <point x="70" y="153" type="curve" smooth="yes"/>
      <point x="-5" y="131" type="line"/>
    </contour>
    <contour>
      <point x="777" y="757" type="curve" smooth="yes"/>
      <point x="635" y="757"/>
      <point x="546" y="829"/>
      <point x="546" y="1019" type="curve" smooth="yes"/>
      <point x="546" y="1209"/>
      <point x="619" y="1356"/>
      <point x="824" y="1356" type="curve" smooth="yes"/>
      <point x="871" y="1356"/>
      <point x="917" y="1356"/>
      <point x="964" y="1356" type="curve"/>
      <point x="964" y="769" type="line"/>
      <point x="931" y="762"/>
      <point x="845" y="757"/>
    </contour>
  </outline>
</glyph>
<glyph name="ve-cy" format="2">
  <advance width="1355"/>
  <unicode hex="0432"/>
  <outline>
    <contour>
      <point x="341" y="1112" type="curve" smooth="yes"/>
      <point x="81" y="1112" type="line"/>
      <point x="81" y="982" type="line"/>
      <point x="213" y="958" type="line"/>
      <point x="213" y="154" type="line"/>
      <point x="83" y="132" type="line"/>
      <point x="83" y="0" type="line"/>
      <point x="331" y="0" type="line" smooth="yes"/>
      <point x="425" y="0"/>
      <point x="575" y="-12"/>
      <point x="699" y="-12" type="curve" smooth="yes"/>
      <point x="1173" y="-12"/>
      <point x="1299" y="134"/>
      <point x="1299" y="346" type="curve" smooth="yes"/>
      <point x="1299" y="476"/>
      <point x="1207" y="588"/>
      <point x="993" y="610" type="curve"/>
      <point x="1139" y="654"/>
      <point x="1203" y="748"/>
      <point x="1203" y="872" type="curve" smooth="yes"/>
      <point x="1203" y="1014"/>
      <point x="1119" y="1126"/>
      <point x="717" y="1126" type="curve" smooth="yes"/>
      <point x="595" y="1126"/>
      <point x="409" y="1112"/>
    </contour>
    <contour>
      <point x="537" y="138" type="curve"/>
      <point x="537" y="522" type="line"/>
      <point x="683" y="522" type="line" smooth="yes"/>
      <point x="857" y="522"/>
      <point x="925" y="454"/>
      <point x="925" y="326" type="curve" smooth="yes"/>
      <point x="925" y="204"/>
      <point x="867" y="126"/>
      <point x="673" y="126" type="curve" smooth="yes"/>
      <point x="631" y="126"/>
      <point x="559" y="128"/>
    </contour>
    <contour>
      <point x="669" y="654" type="curve"/>
      <point x="537" y="654" type="line"/>
      <point x="537" y="988" type="line"/>
      <point x="579" y="992"/>
      <point x="629" y="992"/>
      <point x="679" y="992" type="curve" smooth="yes"/>
      <point x="833" y="992"/>
      <point x="875" y="936"/>
      <point x="875" y="844" type="curve" smooth="yes"/>
      <point x="875" y="752"/>
      <point x="831" y="654"/>
    </contour>
  </outline>
</glyph>
<glyph name="ii-cy" format="2">
  <advance width="1497"/>
  <unicode hex="0438"/>
  <anchor x="1231" y="0" name="bottomright"/>
  <anchor x="751" y="1111" name="top"/>
  <outline>
    <contour>
      <point x="51" y="0" type="line"/>
      <point x="654" y="0" type="line"/>
      <point x="654" y="132" type="line"/>
      <point x="524" y="146" type="line"/>
      <point x="524" y="197" type="line"/>
      <point x="873" y="597" type="line"/>
      <point x="968" y="733" type="line"/>
      <point x="968" y="151" type="line"/>
      <point x="825" y="132" type="line"/>
      <point x="825" y="0" type="line"/>
      <point x="1446" y="0" type="line"/>
      <point x="1446" y="132" type="line"/>
      <point x="1299" y="151" type="line"/>
      <point x="1299" y="957" type="line"/>
      <point x="1440" y="983" type="line"/>
      <point x="1440" y="1111" type="line"/>
      <point x="843" y="1111" type="line"/>
      <point x="843" y="983" type="line"/>
      <point x="968" y="959" type="line"/>
      <point x="968" y="911" type="line"/>
      <point x="639" y="538" type="line"/>
      <point x="524" y="379" type="line"/>
      <point x="524" y="959" type="line"/>
      <point x="669" y="983" type="line"/>
      <point x="669" y="1111" type="line"/>
      <point x="54" y="1111" type="line"/>
      <point x="54" y="983" type="line"/>
      <point x="194" y="959" type="line"/>
      <point x="194" y="151" type="line"/>
      <point x="51" y="132" type="line"/>
    </contour>
  </outline>
</glyph>
<glyph name="en-cy" format="2">
  <advance width="1456"/>
  <unicode hex="043D"/>
  <anchor x="1449" y="0" name="bottomright"/>
  <outline>
    <contour>
      <point x="51" y="1112" type="line"/>
      <point x="51" y="982" type="line"/>
      <point x="197" y="958" type="line"/>
      <point x="197" y="150" type="line"/>
      <point x="53" y="132" type="line"/>
      <point x="53" y="0" type="line"/>
      <point x="651" y="0" type="line"/>
      <point x="651" y="132" type="line"/>
      <point x="529" y="150" type="line"/>
      <point x="529" y="504" type="line"/>
      <point x="929" y="504" type="line"/>
      <point x="929" y="150" type="line"/>
      <point x="803" y="132" type="line"/>
      <point x="803" y="0" type="line"/>
      <point x="1405" y="0" type="line"/>
      <point x="1405" y="132" type="line"/>
      <point x="1261" y="150" type="line"/>
      <point x="1261" y="958" type="line"/>
      <point x="1405" y="982" type="line"/>
      <point x="1405" y="1112" type="line"/>
      <point x="805" y="1112" type="line"/>
      <point x="805" y="982" type="line"/>
      <point x="929" y="958" type="line"/>
      <point x="929" y="648" type="line"/>
      <point x="529" y="648" type="line"/>
      <point x="529" y="958" type="line"/>
      <point x="649" y="982" type="line"/>
      <point x="649" y="1112" type="line"/>
    </contour>
  </outline>
</glyph>
<glyph name="te-cy" format="2">
  <advance width="1326"/>
  <unicode hex="0442"/>
  <anchor x="711" y="-166" name="mark0"/>
  <outline>
    <contour>
      <point x="68" y="1111" type="line"/>
      <point x="49" y="637" type="line"/>
      <point x="246" y="637" type="line"/>
      <point x="307" y="962" type="line"/>
      <point x="500" y="980" type="line"/>
      <point x="500" y="153" type="line"/>
      <point x="249" y="132" type="line"/>
      <point x="249" y="0" type="line"/>
      <point x="1091" y="0" type="line"/>
      <point x="1091" y="132" type="line"/>
      <point x="832" y="153" type="line"/>
      <point x="832" y="980" type="line"/>
      <point x="1012" y="962" type="line"/>
      <point x="1076" y="637" type="line"/>
      <point x="1271" y="637" type="line"/>
      <point x="1251" y="1111" type="line"/>
    </contour>
  </outline>
</glyph>
<glyph name="tse-cy" format="2">
  <advance width="1521"/>
  <unicode hex="0446"/>
  <outline>
    <contour>
      <point x="1461" y="140" type="curve"/>
      <point x="1265" y="140" type="line"/>
      <point x="1265" y="958" type="line"/>
      <point x="1383" y="982" type="line"/>
      <point x="1383" y="1112" type="line"/>
      <point x="803" y="1112" type="line"/>
      <point x="803" y="982" type="line"/>
      <point x="931" y="958" type="line"/>
      <point x="931" y="140" type="line"/>
      <point x="545" y="140" type="line"/>
      <point x="545" y="960" type="line"/>
      <point x="677" y="982" type="line"/>
      <point x="677" y="1112" type="line"/>
      <point x="81" y="1112" type="line"/>
      <point x="81" y="982" type="line"/>
      <point x="213" y="960" type="line"/>
      <point x="213" y="152" type="line"/>
      <point x="85" y="132" type="line"/>
      <point x="85" y="0" type="line"/>
      <point x="1169" y="0" type="line"/>
      <point x="1191" y="-46"/>
      <point x="1229" y="-350"/>
      <point x="1237" y="-406" type="curve"/>
      <point x="1403" y="-406" type="line"/>
      <point x="1421" y="-332"/>
      <point x="1455" y="56"/>
    </contour>
  </outline>
</glyph>
<glyph name="sha-cy" format="2">
  <advance width="2103"/>
  <unicode hex="0448"/>
  <anchor x="777" y="-166" name="mark0"/>
  <outline>
    <contour>
      <point x="84" y="1111" type="line"/>
      <point x="84" y="983" type="line"/>
      <point x="218" y="956" type="line"/>
      <point x="218" y="151" type="line"/>
      <point x="81" y="128" type="line"/>
      <point x="81" y="0" type="line"/>
      <point x="2020" y="0" type="line"/>
      <point x="2020" y="128" type="line"/>
      <point x="1871" y="151" type="line"/>
      <point x="1871" y="959" type="line"/>
      <point x="2001" y="983" type="line"/>
      <point x="2001" y="1111" type="line"/>
      <point x="1418" y="1111" type="line"/>
      <point x="1418" y="983" type="line"/>
      <point x="1547" y="959" type="line"/>
      <point x="1547" y="138" type="line"/>
      <point x="1204" y="138" type="line"/>
      <point x="1204" y="959" type="line"/>
      <point x="1327" y="983" type="line"/>
      <point x="1327" y="1111" type="line"/>
      <point x="756" y="1111" type="line"/>
      <point x="756" y="983" type="line"/>
      <point x="883" y="959" type="line"/>
      <point x="882" y="138" type="line"/>
      <point x="540" y="138" type="line"/>
      <point x="540" y="959" type="line"/>
      <point x="673" y="983" type="line"/>
      <point x="673" y="1111" type="line"/>
    </contour>
  </outline>
</glyph>
<glyph name="shcha-cy" format="2">
  <advance width="2131"/>
  <unicode hex="0449"/>
  <outline>
    <contour>
      <point x="2071" y="141" type="curve"/>
      <point x="1871" y="141" type="line"/>
      <point x="1871" y="959" type="line"/>
      <point x="2001" y="983" type="line"/>
      <point x="2001" y="1111" type="line"/>
      <point x="1418" y="1111" type="line"/>
      <point x="1418" y="983" type="line"/>
      <point x="1547" y="959" type="line"/>
      <point x="1547" y="138" type="line"/>
      <point x="1204" y="138" type="line"/>
      <point x="1204" y="959" type="line"/>
      <point x="1327" y="983" type="line"/>
      <point x="1327" y="1111" type="line"/>
      <point x="756" y="1111" type="line"/>
      <point x="756" y="983" type="line"/>
      <point x="883" y="959" type="line"/>
      <point x="882" y="138" type="line"/>
      <point x="540" y="138" type="line"/>
      <point x="540" y="959" type="line"/>
      <point x="673" y="983" type="line"/>
      <point x="673" y="1111" type="line"/>
      <point x="84" y="1111" type="line"/>
      <point x="84" y="983" type="line"/>
      <point x="218" y="956" type="line"/>
      <point x="218" y="151" type="line"/>
      <point x="81" y="128" type="line"/>
      <point x="81" y="0" type="line"/>
      <point x="1779" y="0" type="line"/>
      <point x="1802" y="-47"/>
      <point x="1841" y="-355"/>
      <point x="1849" y="-410" type="curve"/>
      <point x="2016" y="-410" type="line"/>
      <point x="2031" y="-338"/>
      <point x="2066" y="56"/>
    </contour>
  </outline>
</glyph>
<glyph name="hardsign-cy" format="2">
  <advance width="1561"/>
  <unicode hex="044A"/>
  <outline>
    <contour>
      <point x="238" y="0" type="line"/>
      <point x="643" y="0" type="line" smooth="yes"/>
      <point x="718" y="0"/>
      <point x="955" y="-18"/>
      <point x="1006" y="-18" type="curve" smooth="yes"/>
      <point x="1328" y="-18"/>
      <point x="1513" y="89"/>
      <point x="1513" y="354" type="curve" smooth="yes"/>
      <point x="1513" y="563"/>
      <point x="1372" y="688"/>
      <point x="1056" y="688" type="curve" smooth="yes"/>
      <point x="999" y="688"/>
      <point x="864" y="684"/>
      <point x="813" y="682" type="curve"/>
      <point x="813" y="956" type="line"/>
      <point x="989" y="981" type="line"/>
      <point x="989" y="1111" type="line"/>
      <point x="50" y="1111" type="line"/>
      <point x="49" y="639" type="line"/>
      <point x="233" y="639" type="line"/>
      <point x="285" y="967" type="line"/>
      <point x="490" y="978" type="line"/>
      <point x="490" y="154" type="line"/>
      <point x="238" y="132" type="line"/>
    </contour>
    <contour>
      <point x="924" y="118" type="curve" smooth="yes"/>
      <point x="886" y="118"/>
      <point x="841" y="124"/>
      <point x="813" y="131" type="curve"/>
      <point x="813" y="543" type="line"/>
      <point x="850" y="545"/>
      <point x="928" y="546"/>
      <point x="959" y="546" type="curve" smooth="yes"/>
      <point x="1116" y="546"/>
      <point x="1173" y="448"/>
      <point x="1173" y="329" type="curve" smooth="yes"/>
      <point x="1173" y="197"/>
      <point x="1098" y="118"/>
    </contour>
  </outline>
</glyph>
<glyph name="yeru-cy" format="2">
  <advance width="1862"/>
  <unicode hex="044B"/>
  <anchor x="948" y="1110" name="top"/>
  <outline>
    <contour>
      <point x="1225" y="1112" type="line"/>
      <point x="1225" y="980" type="line"/>
      <point x="1355" y="958" type="line"/>
      <point x="1355" y="154" type="line"/>
      <point x="1229" y="132" type="line"/>
      <point x="1229" y="0" type="line"/>
      <point x="1811" y="0" type="line"/>
      <point x="1811" y="132" type="line"/>
      <point x="1673" y="152" type="line"/>
      <point x="1673" y="958" type="line"/>
      <point x="1791" y="980" type="line"/>
      <point x="1791" y="1112" type="line"/>
    </contour>
    <component base="softsign-cy"/>
  </outline>
</glyph>
<glyph name="softsign-cy" format="2">
  <advance width="1263"/>
  <unicode hex="044C"/>
  <outline>
    <contour>
      <point x="51" y="0" type="line"/>
      <point x="349" y="0" type="line" smooth="yes"/>
      <point x="423" y="0"/>
      <point x="657" y="-18"/>
      <point x="711" y="-18" type="curve" smooth="yes"/>
      <point x="1029" y="-18"/>
      <point x="1213" y="98"/>
      <point x="1213" y="356" type="curve" smooth="yes"/>
      <point x="1213" y="564"/>
      <point x="1071" y="688"/>
      <point x="757" y="688" type="curve" smooth="yes"/>
      <point x="701" y="688"/>
      <point x="569" y="684"/>
      <point x="519" y="682" type="curve"/>
      <point x="519" y="958" type="line"/>
      <point x="683" y="980" type="line"/>
      <point x="683" y="1112" type="line"/>
      <point x="55" y="1112" type="line"/>
      <point x="55" y="980" type="line"/>
      <point x="195" y="958" type="line"/>
      <point x="195" y="150" type="line"/>
      <point x="51" y="128" type="line"/>
    </contour>
    <contour>
      <point x="627" y="118" type="curve" smooth="yes"/>
      <point x="577" y="118"/>
      <point x="545" y="120"/>
      <point x="519" y="128" type="curve"/>
      <point x="519" y="544" type="line"/>
      <point x="557" y="546"/>
      <point x="631" y="546"/>
      <point x="659" y="546" type="curve" smooth="yes"/>
      <point x="817" y="546"/>
      <point x="873" y="448"/>
      <point x="873" y="332" type="curve" smooth="yes"/>
      <point x="873" y="200"/>
      <point x="803" y="118"/>
    </contour>
  </outline>
</glyph>
<glyph name="ia-cy" format="2">
  <advance width="1353"/>
  <unicode hex="044F"/>
  <outline>
    <contour>
      <point x="683" y="0" type="line"/>
      <point x="1302" y="0" type="line"/>
      <point x="1302" y="133" type="line"/>
      <point x="1158" y="154" type="line"/>
      <point x="1158" y="957" type="line"/>
      <point x="1296" y="981" type="line"/>
      <point x="1296" y="1111" type="line"/>
      <point x="1039" y="1111" type="line" smooth="yes"/>
      <point x="949" y="1111"/>
      <point x="795" y="1125"/>
      <point x="650" y="1125" type="curve" smooth="yes"/>
      <point x="285" y="1125"/>
      <point x="118" y="1000"/>
      <point x="118" y="784" type="curve" smooth="yes"/>
      <point x="118" y="577"/>
      <point x="240" y="455"/>
      <point x="489" y="440" type="curve"/>
      <point x="441" y="480" type="line"/>
      <point x="290" y="506"/>
      <point x="276" y="192"/>
      <point x="127" y="153" type="curve" smooth="yes"/>
      <point x="46" y="133" type="line"/>
      <point x="46" y="0" type="line"/>
      <point x="413" y="0" type="line" smooth="yes"/>
      <point x="521" y="0"/>
      <point x="539" y="359"/>
      <point x="650" y="434" type="curve"/>
      <point x="832" y="434" type="line"/>
      <point x="832" y="154" type="line"/>
      <point x="683" y="133" type="line"/>
    </contour>
    <contour>
      <point x="699" y="561" type="curve" smooth="yes"/>
      <point x="529" y="561"/>
      <point x="476" y="677"/>
      <point x="476" y="808" type="curve" smooth="yes"/>
      <point x="476" y="966"/>
      <point x="586" y="1000"/>
      <point x="693" y="1000" type="curve" smooth="yes"/>
      <point x="773" y="1000"/>
      <point x="811" y="994"/>
      <point x="832" y="990" type="curve"/>
      <point x="832" y="563" type="line"/>
      <point x="806" y="561"/>
      <point x="748" y="561"/>
    </contour>
  </outline>
</glyph>
<glyph name="dzhe-cy" format="2">
  <advance width="1406"/>
  <unicode hex="045F"/>
  <outline>
    <contour>
      <point x="57" y="0" type="line"/>
      <point x="563" y="0" type="line"/>
      <point x="575" y="-24"/>
      <point x="623" y="-282"/>
      <point x="623" y="-388" type="curve"/>
      <point x="813" y="-388" type="line"/>
      <point x="813" y="-282"/>
      <point x="845" y="-20"/>
      <point x="857" y="0" type="curve"/>
      <point x="1355" y="0" type="line"/>
      <point x="1355" y="132" type="line"/>
      <point x="1223" y="152" type="line"/>
      <point x="1223" y="958" type="line"/>
      <point x="1351" y="982" type="line"/>
      <point x="1351" y="1112" type="line"/>
      <point x="765" y="1112" type="line"/>
      <point x="765" y="982" type="line"/>
      <point x="897" y="958" type="line"/>
      <point x="897" y="138" type="line"/>
      <point x="507" y="138" type="line"/>
      <point x="507" y="958" type="line"/>
      <point x="639" y="982" type="line"/>
      <point x="639" y="1112" type="line"/>
      <point x="51" y="1112" type="line"/>
      <point x="51" y="982" type="line"/>
      <point x="183" y="958" type="line"/>
      <point x="183" y="152" type="line"/>
      <point x="57" y="132" type="line"/>
    </contour>
  </outline>
</glyph>
<glyph name="Semisoftsign-cy" format="2">
  <advance width="1477"/>
  <unicode hex="048C"/>
  <outline>
    <contour>
      <point x="62" y="1043" type="line"/>
      <point x="935" y="1043" type="line"/>
      <point x="935" y="1191" type="line"/>
      <point x="62" y="1191" type="line"/>
    </contour>
    <component base="Softsign-cy"/>
  </outline>
</glyph>
<glyph name="semisoftsign-cy" format="2">
  <advance width="1230"/>
  <unicode hex="048D"/>
  <anchor x="573" y="-166" name="mark0"/>
  <outline>
    <contour>
      <point x="475" y="661" type="curve"/>
      <point x="475" y="972" type="line"/>
      <point x="705" y="972" type="line"/>
      <point x="705" y="1116" type="line"/>
      <point x="475" y="1116" type="line"/>
      <point x="475" y="1600" type="line"/>
      <point x="410" y="1639" type="line"/>
      <point x="406" y="1639" type="line"/>
      <point x="10" y="1592" type="line"/>
      <point x="10" y="1475" type="line"/>
      <point x="152" y="1448" type="line"/>
      <point x="152" y="1116" type="line"/>
      <point x="-15" y="1116" type="line"/>
      <point x="-15" y="972" type="line"/>
      <point x="152" y="972" type="line"/>
      <point x="152" y="150" type="line"/>
      <point x="34" y="128" type="line"/>
      <point x="34" y="0" type="line"/>
      <point x="328" y="0" type="line" smooth="yes"/>
      <point x="403" y="0"/>
      <point x="638" y="-18"/>
      <point x="691" y="-18" type="curve" smooth="yes"/>
      <point x="1010" y="-18"/>
      <point x="1182" y="104"/>
      <point x="1182" y="358" type="curve" smooth="yes"/>
      <point x="1182" y="564"/>
      <point x="1037" y="688"/>
      <point x="722" y="688" type="curve" smooth="yes"/>
      <point x="615" y="688"/>
      <point x="529" y="677"/>
    </contour>
    <contour>
      <point x="476" y="131" type="curve"/>
      <point x="475" y="532" type="line"/>
      <point x="500" y="538"/>
      <point x="561" y="547"/>
      <point x="624" y="547" type="curve" smooth="yes"/>
      <point x="783" y="547"/>
      <point x="842" y="449"/>
      <point x="842" y="335" type="curve" smooth="yes"/>
      <point x="842" y="204"/>
      <point x="766" y="118"/>
      <point x="594" y="118" type="curve" smooth="yes"/>
      <point x="537" y="118"/>
      <point x="504" y="122"/>
    </contour>
  </outline>
</glyph>
<glyph name="Ertick-cy" format="2">
  <advance width="1398"/>
  <unicode hex="048E"/>
  <anchor x="504" y="0" name="bottom"/>
  <anchor x="676" y="-166" name="mark0"/>
  <anchor x="750" y="1486" name="top"/>
  <outline>
    <contour>
      <point x="1191" y="363" type="line"/>
      <point x="1281" y="439" type="line"/>
      <point x="824" y="932" type="line"/>
      <point x="734" y="856" type="line"/>
    </contour>
    <component base="P"/>
  </outline>
</glyph>
<glyph name="Zhedescender-cy" format="2">
  <advance width="2495"/>
  <unicode hex="0496"/>
  <anchor x="2089" y="0" name="bottomright"/>
  <anchor x="1063" y="1486" name="top"/>
  <outline>
    <contour>
      <point x="2168" y="-406" type="curve"/>
      <point x="2365" y="-406" type="line"/>
      <point x="2373" y="-376"/>
      <point x="2417" y="36"/>
      <point x="2417" y="154" type="curve"/>
      <point x="2079" y="154" type="line"/>
      <point x="2079" y="0" type="line"/>
      <point x="2111" y="0" type="line"/>
      <point x="2137" y="-52"/>
      <point x="2168" y="-340"/>
    </contour>
    <component base="Zhe-cy"/>
  </outline>
</glyph>
<glyph name="Zedescender-cy" format="2">
  <advance width="1357"/>
  <unicode hex="0498"/>
  <anchor x="630" y="0" name="bottom"/>
  <anchor x="630" y="1486" name="top"/>
  <outline>
    <contour>
      <point x="592" y="-513" type="curve" smooth="yes"/>
      <point x="789" y="-513"/>
      <point x="902" y="-431"/>
      <point x="902" y="-289" type="curve" smooth="yes"/>
      <point x="902" y="-158"/>
      <point x="801" y="-42"/>
      <point x="749" y="1" type="curve"/>
      <point x="597" y="0" type="line"/>
      <point x="649" y="-47"/>
      <point x="684" y="-115"/>
      <point x="684" y="-175" type="curve" smooth="yes"/>
      <point x="684" y="-262"/>
      <point x="630" y="-312"/>
      <point x="535" y="-312" type="curve" smooth="yes"/>
      <point x="518" y="-312"/>
      <point x="473" y="-308"/>
      <point x="442" y="-299" type="curve"/>
      <point x="442" y="-484" type="line"/>
      <point x="478" y="-499"/>
      <point x="545" y="-513"/>
    </contour>
    <component base="Ze-cy"/>
  </outline>
</glyph>
<glyph name="Kadescender-cy" format="2">
  <advance width="1854"/>
  <unicode hex="049A"/>
  <anchor x="1587" y="0" name="bottomright"/>
  <anchor x="885" y="1506" name="top"/>
  <outline>
    <contour>
      <point x="1527" y="-406" type="curve"/>
      <point x="1724" y="-406" type="line"/>
      <point x="1738" y="-338"/>
      <point x="1772" y="-2"/>
      <point x="1776" y="154" type="curve"/>
      <point x="1396" y="154" type="line"/>
      <point x="1396" y="0" type="line"/>
      <point x="1471" y="0" type="line"/>
      <point x="1493" y="-48"/>
      <point x="1527" y="-346"/>
    </contour>
    <component base="Ka-cy"/>
  </outline>
</glyph>
<glyph name="Kastroke-cy" format="2">
  <advance width="1633"/>
  <unicode hex="049E"/>
  <anchor x="1587" y="0" name="bottomright"/>
  <anchor x="885" y="1506" name="top"/>
  <outline>
    <contour>
      <point x="79" y="1014" type="line"/>
      <point x="815" y="1014" type="line"/>
      <point x="815" y="1162" type="line"/>
      <point x="79" y="1162" type="line"/>
    </contour>
    <component base="Ka-cy"/>
  </outline>
</glyph>
<glyph name="kastroke-cy" format="2">
  <advance width="1322"/>
  <unicode hex="049F"/>
  <anchor x="831" y="-166" name="mark0"/>
  <anchor x="692" y="0" name="bottom"/>
  <anchor x="711" y="1548" name="top"/>
  <outline>
    <contour>
      <point x="729" y="1355" type="line"/>
      <point x="42" y="1355" type="line"/>
      <point x="42" y="1225" type="line"/>
      <point x="729" y="1225" type="line"/>
    </contour>
    <component base="k"/>
  </outline>
</glyph>
<glyph name="Endescender-cy" format="2">
  <advance width="1881"/>
  <unicode hex="04A2"/>
  <anchor x="858" y="0" name="bottom"/>
  <anchor x="851" y="743" name="center"/>
  <anchor x="862" y="1486" name="top"/>
  <anchor x="32" y="1486" name="topleft"/>
  <outline>
    <contour>
      <point x="1561" y="-406" type="curve"/>
      <point x="1753" y="-406" type="line"/>
      <point x="1761" y="-378"/>
      <point x="1803" y="38"/>
      <point x="1803" y="154" type="curve"/>
      <point x="1391" y="154" type="line"/>
      <point x="1391" y="0" type="line"/>
      <point x="1501" y="0" type="line"/>
      <point x="1523" y="-50"/>
      <point x="1559" y="-346"/>
    </contour>
    <component base="H"/>
  </outline>
</glyph>
<glyph name="pemiddlehook-cy" format="2">
  <advance width="2025"/>
  <unicode hex="04A7"/>
  <anchor x="881" y="-166" name="mark0"/>
  <outline>
    <contour>
      <point x="1262" y="557" type="curve"/>
      <point x="1262" y="959" type="line"/>
      <point x="1398" y="983" type="line"/>
      <point x="1398" y="1111" type="line"/>
      <point x="81" y="1111" type="line"/>
      <point x="81" y="983" type="line"/>
      <point x="214" y="959" type="line"/>
      <point x="214" y="154" type="line"/>
      <point x="85" y="132" type="line"/>
      <point x="85" y="0" type="line"/>
      <point x="670" y="0" type="line"/>
      <point x="670" y="132" type="line"/>
      <point x="546" y="153" type="line"/>
      <point x="546" y="974" type="line"/>
      <point x="929" y="974" type="line"/>
      <point x="929" y="153" type="line"/>
      <point x="799" y="132" type="line"/>
      <point x="799" y="0" type="line"/>
      <point x="1392" y="0" type="line"/>
      <point x="1392" y="132" type="line"/>
      <point x="1262" y="153" type="line"/>
      <point x="1262" y="406" type="line"/>
      <point x="1299" y="437"/>
      <point x="1365" y="455"/>
      <point x="1427" y="455" type="curve" smooth="yes"/>
      <point x="1591" y="455"/>
      <point x="1655" y="342"/>
      <point x="1655" y="151" type="curve" smooth="yes"/>
      <point x="1655" y="-202"/>
      <point x="1580" y="-347"/>
      <point x="1410" y="-347" type="curve" smooth="yes"/>
      <point x="1320" y="-347"/>
      <point x="1286" y="-337"/>
      <point x="1265" y="-331" type="curve"/>
      <point x="1279" y="-477" type="line"/>
      <point x="1306" y="-488"/>
      <point x="1372" y="-509"/>
      <point x="1461" y="-509" type="curve" smooth="yes"/>
      <point x="1787" y="-509"/>
      <point x="1991" y="-270"/>
      <point x="1991" y="194" type="curve" smooth="yes"/>
      <point x="1991" y="507"/>
      <point x="1810" y="621"/>
      <point x="1505" y="621" type="curve" smooth="yes"/>
      <point x="1404" y="621"/>
      <point x="1306" y="590"/>
    </contour>
  </outline>
</glyph>
<glyph name="Esdescender-cy" format="2">
  <advance width="1426"/>
  <unicode hex="04AA"/>
  <anchor x="727" y="0" name="bottom"/>
  <anchor x="730" y="-166" name="mark0"/>
  <anchor x="757" y="1486" name="top"/>
  <outline>
    <contour>
      <point x="689" y="-410" type="curve"/>
      <point x="899" y="-410" type="line"/>
      <point x="902" y="-278"/>
      <point x="931" y="-66"/>
      <point x="949" y="-4" type="curve"/>
      <point x="633" y="-4" type="line"/>
      <point x="648" y="-46"/>
      <point x="689" y="-306"/>
    </contour>
    <component base="C"/>
  </outline>
</glyph>
<glyph name="ustraitstroke-cy" format="2">
  <advance width="1282"/>
  <unicode hex="04B1"/>
  <anchor x="656" y="22" name="center"/>
  <outline>
    <contour>
      <point x="1074" y="92" type="line"/>
      <point x="154" y="94" type="line"/>
      <point x="154" y="0" type="line"/>
      <point x="1074" y="0" type="line"/>
    </contour>
    <component base="ustrait-cy"/>
  </outline>
</glyph>
<glyph name="Hadescender-cy" format="2">
  <advance width="1624"/>
  <unicode hex="04B2"/>
  <anchor x="767" y="-166" name="mark0"/>
  <outline>
    <contour>
      <point x="1408" y="-404" type="curve"/>
      <point x="1602" y="-404" type="line"/>
      <point x="1612" y="-376"/>
      <point x="1654" y="38"/>
      <point x="1654" y="154" type="curve"/>
      <point x="1238" y="154" type="line"/>
      <point x="1238" y="0" type="line"/>
      <point x="1350" y="0" type="line"/>
      <point x="1374" y="-48"/>
      <point x="1408" y="-342"/>
    </contour>
    <component base="X"/>
  </outline>
</glyph>
<glyph name="Chedescender-cy" format="2">
  <advance width="1755"/>
  <unicode hex="04B6"/>
  <anchor x="1624" y="0" name="bottomright"/>
  <anchor x="871" y="744" name="center"/>
  <anchor x="808" y="1486" name="top"/>
  <outline>
    <contour>
      <point x="1433" y="-406" type="curve"/>
      <point x="1627" y="-406" type="line"/>
      <point x="1639" y="-338"/>
      <point x="1673" y="-1"/>
      <point x="1677" y="155" type="curve"/>
      <point x="1282" y="157" type="line"/>
      <point x="1277" y="0" type="line"/>
      <point x="1374" y="0" type="line"/>
      <point x="1396" y="-49"/>
      <point x="1431" y="-345"/>
    </contour>
    <component base="Che-cy"/>
  </outline>
</glyph>
<glyph name="Enhook-cy" format="2">
  <advance width="1803"/>
  <unicode hex="04C7"/>
  <outline>
    <contour>
      <point x="997" y="-387" type="line"/>
      <point x="1296" y="-342"/>
      <point x="1486" y="-184"/>
      <point x="1550" y="29" type="curve" smooth="yes"/>
      <point x="1575" y="120"/>
      <point x="1579" y="289"/>
      <point x="1579" y="531" type="curve" smooth="yes"/>
      <point x="1579" y="1320" type="line"/>
      <point x="1724" y="1347" type="line"/>
      <point x="1724" y="1486" type="line"/>
      <point x="1069" y="1486" type="line"/>
      <point x="1069" y="1347" type="line"/>
      <point x="1227" y="1319" type="line"/>
      <point x="1227" y="841" type="line"/>
      <point x="577" y="841" type="line"/>
      <point x="577" y="1320" type="line"/>
      <point x="747" y="1347" type="line"/>
      <point x="747" y="1486" type="line"/>
      <point x="79" y="1486" type="line"/>
      <point x="79" y="1347" type="line"/>
      <point x="225" y="1320" type="line"/>
      <point x="225" y="153" type="line"/>
      <point x="78" y="132" type="line"/>
      <point x="78" y="0" type="line"/>
      <point x="748" y="0" type="line"/>
      <point x="748" y="132" type="line"/>
      <point x="577" y="153" type="line"/>
      <point x="577" y="672" type="line"/>
      <point x="1227" y="672" type="line"/>
      <point x="1227" y="382" type="line" smooth="yes"/>
      <point x="1227" y="171"/>
      <point x="1212" y="68"/>
      <point x="1185" y="-12" type="curve" smooth="yes"/>
      <point x="1133" y="-155"/>
      <point x="1021" y="-239"/>
      <point x="920" y="-271" type="curve"/>
    </contour>
  </outline>
</glyph>
<glyph name="Entail-cy" format="2">
  <advance width="1879"/>
  <unicode hex="04C9"/>
  <anchor x="1638" y="0" name="bottomright"/>
  <anchor x="851" y="743" name="center"/>
  <anchor x="862" y="1486" name="top"/>
  <anchor x="32" y="1486" name="topleft"/>
  <outline>
    <contour>
      <point x="1403" y="-404" type="curve"/>
      <point x="1591" y="-404" type="line"/>
      <point x="1619" y="-358"/>
      <point x="1757" y="-84"/>
      <point x="1801" y="0" type="curve"/>
      <point x="1801" y="154" type="line"/>
      <point x="1400" y="154" type="line"/>
      <point x="1400" y="0" type="line"/>
      <point x="1545" y="0" type="line"/>
      <point x="1513" y="-92"/>
      <point x="1449" y="-274"/>
    </contour>
    <component base="En-cy"/>
  </outline>
</glyph>
<glyph name="Chekhakassian-cy" format="2">
  <advance width="1689"/>
  <unicode hex="04CB"/>
  <anchor x="1624" y="0" name="bottomright"/>
  <anchor x="871" y="744" name="center"/>
  <anchor x="808" y="1486" name="top"/>
  <outline>
    <contour>
      <point x="748" y="-410" type="curve"/>
      <point x="936" y="-410" type="line"/>
      <point x="949" y="-324"/>
      <point x="1009" y="-35"/>
      <point x="1040" y="0" type="curve"/>
      <point x="1116" y="0" type="line"/>
      <point x="1116" y="155" type="line"/>
      <point x="766" y="155" type="line"/>
      <point x="756" y="7"/>
      <point x="751" y="-344"/>
    </contour>
    <component base="Che-cy"/>
  </outline>
</glyph>
<glyph name="Emtail-cy" format="2">
  <advance width="2183"/>
  <unicode hex="04CD"/>
  <anchor x="1029" y="0" name="bottom"/>
  <anchor x="914" y="-166" name="mark0"/>
  <anchor x="1029" y="1486" name="top"/>
  <outline>
    <contour>
      <point x="1819" y="-410" type="curve"/>
      <point x="2001" y="-410" type="line"/>
      <point x="2026" y="-364"/>
      <point x="2136" y="-123"/>
      <point x="2193" y="0" type="curve"/>
      <point x="2193" y="154" type="line"/>
      <point x="1815" y="154" type="line"/>
      <point x="1818" y="0" type="line"/>
      <point x="1930" y="0" type="line"/>
      <point x="1915" y="-68"/>
      <point x="1845" y="-327"/>
    </contour>
    <component base="Em-cy"/>
  </outline>
</glyph>
<glyph name="gedescender-cy" format="2">
  <advance width="1066"/>
  <unicode hex="04F7"/>
  <anchor x="197" y="0" name="bottomright"/>
  <anchor x="513" y="556" name="center"/>
  <anchor x="513" y="1111" name="top"/>
  <outline>
    <contour>
      <point x="604" y="-406" type="curve"/>
      <point x="791" y="-406" type="line"/>
      <point x="791" y="-402"/>
      <point x="838" y="32"/>
      <point x="838" y="150" type="curve"/>
      <point x="399" y="150" type="line"/>
      <point x="546" y="0" type="line"/>
      <point x="572" y="-52"/>
      <point x="604" y="-342"/>
    </contour>
    <component base="ge-cy" xOffset="-30"/>
  </outline>
</glyph>
<glyph name="Gestrokehook-cy" format="2">
  <advance width="1255"/>
  <unicode hex="04FA"/>
  <anchor x="238" y="0" name="bottomright"/>
  <anchor x="554" y="744" name="center"/>
  <anchor x="650" y="1486" name="top"/>
  <outline>
    <contour>
      <point x="729" y="-512" type="curve" smooth="yes"/>
      <point x="933" y="-512"/>
      <point x="1067" y="-440"/>
      <point x="1067" y="-230" type="curve" smooth="yes"/>
      <point x="1067" y="-142"/>
      <point x="1031" y="-14"/>
      <point x="943" y="132" type="curve"/>
      <point x="581" y="154" type="line"/>
      <point x="581" y="0" type="line"/>
      <point x="829" y="0" type="line"/>
      <point x="841" y="-50"/>
      <point x="849" y="-106"/>
      <point x="849" y="-158" type="curve" smooth="yes"/>
      <point x="849" y="-280"/>
      <point x="787" y="-312"/>
      <point x="673" y="-312" type="curve" smooth="yes"/>
      <point x="651" y="-312"/>
      <point x="602" y="-308"/>
      <point x="567" y="-300" type="curve"/>
      <point x="567" y="-484" type="line"/>
      <point x="606" y="-500"/>
      <point x="677" y="-512"/>
    </contour>
    <component base="Ghestroke-cy" xOffset="-68"/>
  </outline>
</glyph>
<glyph name="gestrokehook-cy" format="2">
  <advance width="1086"/>
  <unicode hex="04FB"/>
  <outline>
    <contour>
      <point x="798" y="132" type="curve"/>
      <point x="553" y="151" type="line"/>
      <point x="553" y="382" type="line"/>
      <point x="786" y="382" type="line"/>
      <point x="786" y="528" type="line"/>
      <point x="553" y="528" type="line"/>
      <point x="553" y="980" type="line"/>
      <point x="786" y="962" type="line"/>
      <point x="846" y="658" type="line"/>
      <point x="1031" y="658" type="line"/>
      <point x="1021" y="1111" type="line"/>
      <point x="75" y="1111" type="line"/>
      <point x="75" y="984" type="line"/>
      <point x="219" y="959" type="line"/>
      <point x="219" y="528" type="line"/>
      <point x="51" y="528" type="line"/>
      <point x="51" y="382" type="line"/>
      <point x="219" y="382" type="line"/>
      <point x="219" y="151" type="line"/>
      <point x="71" y="132" type="line"/>
      <point x="71" y="0" type="line"/>
      <point x="684" y="0" type="line"/>
      <point x="697" y="-50"/>
      <point x="706" y="-106"/>
      <point x="706" y="-158" type="curve" smooth="yes"/>
      <point x="706" y="-281"/>
      <point x="658" y="-312"/>
      <point x="569" y="-312" type="curve" smooth="yes"/>
      <point x="552" y="-312"/>
      <point x="512" y="-308"/>
      <point x="484" y="-299" type="curve"/>
      <point x="484" y="-484" type="line"/>
      <point x="518" y="-499"/>
      <point x="580" y="-513"/>
      <point x="626" y="-513" type="curve" smooth="yes"/>
      <point x="805" y="-513"/>
      <point x="925" y="-441"/>
      <point x="925" y="-231" type="curve" smooth="yes"/>
      <point x="925" y="-143"/>
      <point x="886" y="-14"/>
    </contour>
  </outline>
</glyph>
<glyph name="Komide-cy" format="2">
  <advance width="1474"/>
  <unicode hex="0500"/>
  <outline>
    <contour>
      <point x="628" y="-20" type="curve" smooth="yes"/>
      <point x="768" y="-20"/>
      <point x="874" y="-4"/>
      <point x="1013" y="0" type="curve"/>
      <point x="1396" y="0" type="line"/>
      <point x="1396" y="132" type="line"/>
      <point x="1240" y="153" type="line"/>
      <point x="1240" y="1322" type="line"/>
      <point x="1393" y="1355" type="line"/>
      <point x="1393" y="1486" type="line"/>
      <point x="657" y="1486" type="line"/>
      <point x="657" y="1355" type="line"/>
      <point x="888" y="1322" type="line"/>
      <point x="888" y="887" type="line"/>
      <point x="836" y="895"/>
      <point x="735" y="907"/>
      <point x="645" y="907" type="curve" smooth="yes"/>
      <point x="254" y="907"/>
      <point x="30" y="732"/>
      <point x="30" y="426" type="curve" smooth="yes"/>
      <point x="30" y="142"/>
      <point x="248" y="-20"/>
    </contour>
    <contour>
      <point x="774" y="127" type="curve" smooth="yes"/>
      <point x="547" y="127"/>
      <point x="434" y="227"/>
      <point x="434" y="430" type="curve" smooth="yes"/>
      <point x="434" y="654"/>
      <point x="541" y="765"/>
      <point x="757" y="765" type="curve" smooth="yes"/>
      <point x="827" y="765"/>
      <point x="850" y="763"/>
      <point x="888" y="756" type="curve"/>
      <point x="888" y="143" type="line"/>
      <point x="859" y="133"/>
      <point x="820" y="127"/>
    </contour>
  </outline>
</glyph>
<glyph name="Komizje-cy" format="2">
  <advance width="2192"/>
  <unicode hex="0504"/>
  <outline>
    <contour>
      <point x="1475" y="-16" type="curve" smooth="yes"/>
      <point x="1806" y="-16"/>
      <point x="2036" y="100"/>
      <point x="2036" y="338" type="curve" smooth="yes"/>
      <point x="2036" y="674" type="line"/>
      <point x="2172" y="704" type="line"/>
      <point x="2172" y="840" type="line"/>
      <point x="1549" y="840" type="line"/>
      <point x="1549" y="704" type="line"/>
      <point x="1699" y="674" type="line"/>
      <point x="1699" y="348" type="line" smooth="yes"/>
      <point x="1699" y="196"/>
      <point x="1637" y="122"/>
      <point x="1487" y="124" type="curve" smooth="yes"/>
      <point x="1353" y="126"/>
      <point x="1287" y="180"/>
      <point x="1287" y="352" type="curve" smooth="yes"/>
      <point x="1287" y="641"/>
      <point x="1146" y="768"/>
      <point x="790" y="784" type="curve"/>
      <point x="987" y="813"/>
      <point x="1212" y="926"/>
      <point x="1212" y="1145" type="curve" smooth="yes"/>
      <point x="1212" y="1370"/>
      <point x="989" y="1502"/>
      <point x="617" y="1502" type="curve" smooth="yes"/>
      <point x="385" y="1502"/>
      <point x="214" y="1446"/>
      <point x="94" y="1441" type="curve"/>
      <point x="80" y="1063" type="line"/>
      <point x="279" y="1063" type="line"/>
      <point x="351" y="1311" type="line"/>
      <point x="373" y="1339"/>
      <point x="433" y="1370"/>
      <point x="553" y="1370" type="curve" smooth="yes"/>
      <point x="709" y="1370"/>
      <point x="810" y="1300"/>
      <point x="810" y="1129" type="curve" smooth="yes"/>
      <point x="810" y="929"/>
      <point x="673" y="856"/>
      <point x="523" y="856" type="curve" smooth="yes"/>
      <point x="371" y="860" type="line"/>
      <point x="371" y="679" type="line"/>
      <point x="543" y="693" type="line"/>
      <point x="789" y="693"/>
      <point x="868" y="605"/>
      <point x="868" y="350" type="curve" smooth="yes"/>
      <point x="868" y="96"/>
      <point x="1078" y="-16"/>
    </contour>
  </outline>
</glyph>
<glyph name="Elhook-cy" format="2">
  <advance width="1537"/>
  <unicode hex="0512"/>
  <outline>
    <contour>
      <point x="844" y="-387" type="line"/>
      <point x="1126" y="-342"/>
      <point x="1306" y="-184"/>
      <point x="1367" y="29" type="curve" smooth="yes"/>
      <point x="1390" y="120"/>
      <point x="1396" y="291"/>
      <point x="1396" y="536" type="curve" smooth="yes"/>
      <point x="1396" y="1319" type="line"/>
      <point x="1583" y="1347" type="line"/>
      <point x="1583" y="1486" type="line"/>
      <point x="243" y="1486" type="line"/>
      <point x="243" y="1347" type="line"/>
      <point x="447" y="1319" type="line"/>
      <point x="444" y="1224" type="line" smooth="yes"/>
      <point x="429" y="753"/>
      <point x="399" y="525"/>
      <point x="337" y="392" type="curve" smooth="yes"/>
      <point x="290" y="292"/>
      <point x="233" y="281"/>
      <point x="182" y="281" type="curve" smooth="yes"/>
      <point x="111" y="281"/>
      <point x="91" y="284"/>
      <point x="40" y="289" type="curve"/>
      <point x="52" y="6" type="line"/>
      <point x="93" y="-6"/>
      <point x="102" y="-13"/>
      <point x="183" y="-13" type="curve" smooth="yes"/>
      <point x="288" y="-13"/>
      <point x="403" y="60"/>
      <point x="468" y="204" type="curve" smooth="yes"/>
      <point x="560" y="407"/>
      <point x="604" y="851"/>
      <point x="611" y="1175" type="curve" smooth="yes"/>
      <point x="614" y="1319" type="line"/>
      <point x="1059" y="1319" type="line"/>
      <point x="1059" y="382" type="line" smooth="yes"/>
      <point x="1059" y="172"/>
      <point x="1045" y="68"/>
      <point x="1019" y="-12" type="curve" smooth="yes"/>
      <point x="973" y="-154"/>
      <point x="860" y="-239"/>
      <point x="767" y="-271" type="curve"/>
    </contour>
  </outline>
</glyph>
<glyph name="Pedescender-cy" format="2">
  <advance width="1852"/>
  <unicode hex="0524"/>
  <anchor x="1210" y="0" name="bottomright"/>
  <outline>
    <contour>
      <point x="1532" y="-406" type="curve"/>
      <point x="1722" y="-406" type="line"/>
      <point x="1730" y="-378"/>
      <point x="1774" y="38"/>
      <point x="1774" y="154" type="curve"/>
      <point x="1360" y="154" type="line"/>
      <point x="1360" y="0" type="line"/>
      <point x="1472" y="0" type="line"/>
      <point x="1494" y="-50"/>
      <point x="1530" y="-346"/>
    </contour>
    <component base="Pe-cy"/>
  </outline>
</glyph>
<glyph name="Shhadescender-cy" format="2">
  <advance width="1632"/>
  <unicode hex="0526"/>
  <anchor x="65" y="1486" name="bottomright"/>
  <anchor x="818" y="742" name="center"/>
  <anchor x="881" y="0" name="top"/>
  <outline>
    <contour>
      <point x="1479" y="-406" type="curve"/>
      <point x="1671" y="-406" type="line"/>
      <point x="1679" y="-378"/>
      <point x="1721" y="38"/>
      <point x="1721" y="168" type="curve"/>
      <point x="1298" y="168" type="line"/>
      <point x="1298" y="0" type="line"/>
      <point x="1419" y="0" type="line"/>
      <point x="1443" y="-50"/>
      <point x="1477" y="-346"/>
    </contour>
    <component base="Shha-cy"/>
  </outline>
</glyph>
<glyph name="shhadescender-cy" format="2">
  <advance width="1490"/>
  <unicode hex="0527"/>
  <anchor x="736" y="0" name="bottom"/>
  <anchor x="677" y="556" name="center"/>
  <anchor x="313" y="1596" name="top"/>
  <outline>
    <contour>
      <point x="1205" y="-406" type="curve"/>
      <point x="1373" y="-406" type="line"/>
      <point x="1390" y="-332"/>
      <point x="1425" y="67"/>
      <point x="1430" y="151" type="curve"/>
      <point x="1166" y="151" type="line"/>
      <point x="1138" y="0" type="line"/>
      <point x="1163" y="-74"/>
      <point x="1198" y="-350"/>
    </contour>
    <component base="h"/>
  </outline>
</glyph>
<glyph name="Eldescender-cy" format="2">
  <advance width="1676"/>
  <unicode hex="052E"/>
  <outline>
    <contour>
      <point x="1355" y="-406" type="curve"/>
      <point x="1547" y="-406" type="line"/>
      <point x="1555" y="-379"/>
      <point x="1598" y="39"/>
      <point x="1598" y="155" type="curve"/>
      <point x="1214" y="155" type="line"/>
      <point x="1214" y="0" type="line"/>
      <point x="1296" y="0" type="line"/>
      <point x="1318" y="-49"/>
      <point x="1354" y="-345"/>
    </contour>
    <component base="El-cy"/>
  </outline>
</glyph>
<glyph name="dram-arm" format="2">
  <advance width="1759"/>
  <unicode hex="058F"/>
  <outline>
    <contour>
      <point x="1427" y="333" type="line"/>
      <point x="1681" y="333" type="line"/>
      <point x="1681" y="462" type="line"/>
      <point x="1427" y="462" type="line"/>
      <point x="1427" y="611" type="line"/>
      <point x="1681" y="611" type="line"/>
      <point x="1681" y="741" type="line"/>
      <point x="1427" y="741" type="line"/>
      <point x="1427" y="936" type="line" smooth="yes"/>
      <point x="1427" y="1046"/>
      <point x="1481" y="1505"/>
      <point x="802" y="1505" type="curve" smooth="yes"/>
      <point x="348" y="1505"/>
      <point x="185" y="1289"/>
      <point x="185" y="1044" type="curve" smooth="yes"/>
      <point x="185" y="1004" type="line"/>
      <point x="72" y="976" type="line"/>
      <point x="72" y="840" type="line"/>
      <point x="644" y="840" type="line"/>
      <point x="644" y="976" type="line"/>
      <point x="535" y="1008" type="line"/>
      <point x="535" y="1058" type="line" smooth="yes"/>
      <point x="535" y="1269"/>
      <point x="623" y="1371"/>
      <point x="770" y="1371" type="curve" smooth="yes"/>
      <point x="1040" y="1371"/>
      <point x="1028" y="1077"/>
      <point x="1028" y="974" type="curve" smooth="yes"/>
      <point x="1028" y="741" type="line"/>
      <point x="750" y="741" type="line"/>
      <point x="750" y="611" type="line"/>
      <point x="1028" y="611" type="line"/>
      <point x="1028" y="462" type="line"/>
      <point x="750" y="462" type="line"/>
      <point x="750" y="333" type="line"/>
      <point x="1028" y="333" type="line"/>
      <point x="1028" y="167" type="line"/>
      <point x="848" y="139" type="line"/>
      <point x="848" y="0" type="line"/>
      <point x="1544" y="0" type="line"/>
      <point x="1544" y="139" type="line"/>
      <point x="1427" y="164" type="line"/>
    </contour>
  </outline>
</glyph>
<glyph name="quotedblright" format="2">
  <advance width="1352"/>
  <unicode hex="201D"/>
  <outline>
    <contour>
      <point x="287" y="822" type="line"/>
      <point x="401" y="885"/>
      <point x="600" y="1094"/>
      <point x="600" y="1377" type="curve" smooth="yes"/>
      <point x="600" y="1565"/>
      <point x="482" y="1693"/>
      <point x="363" y="1693" type="curve" smooth="yes"/>
      <point x="283" y="1693"/>
      <point x="223" y="1631"/>
      <point x="223" y="1550" type="curve" smooth="yes"/>
      <point x="223" y="1410"/>
      <point x="368" y="1403"/>
      <point x="368" y="1308" type="curve" smooth="yes"/>
      <point x="368" y="1129"/>
      <point x="257" y="946"/>
      <point x="214" y="906" type="curve"/>
      <point x="214" y="875" type="line"/>
    </contour>
    <contour>
      <point x="832" y="822" type="line"/>
      <point x="946" y="885"/>
      <point x="1145" y="1094"/>
      <point x="1145" y="1377" type="curve" smooth="yes"/>
      <point x="1145" y="1565"/>
      <point x="1027" y="1693"/>
      <point x="908" y="1693" type="curve" smooth="yes"/>
      <point x="828" y="1693"/>
      <point x="768" y="1631"/>
      <point x="768" y="1550" type="curve" smooth="yes"/>
      <point x="768" y="1410"/>
      <point x="913" y="1403"/>
      <point x="913" y="1308" type="curve" smooth="yes"/>
      <point x="913" y="1129"/>
      <point x="802" y="946"/>
      <point x="759" y="906" type="curve"/>
      <point x="759" y="875" type="line"/>
    </contour>
  </outline>
</glyph>
<glyph name="dagger" format="2">
  <advance width="1259"/>
  <unicode hex="2020"/>
  <outline>
    <contour>
      <point x="526" y="1074" type="line"/>
      <point x="496" y="803" type="line"/>
      <point x="540" y="74" type="line"/>
      <point x="722" y="74" type="line"/>
      <point x="764" y="803" type="line"/>
      <point x="736" y="1074" type="line"/>
      <point x="1059" y="1055" type="line"/>
      <point x="1059" y="1284" type="line"/>
      <point x="736" y="1265" type="line"/>
      <point x="765" y="1482" type="line"/>
      <point x="765" y="1620" type="line"/>
      <point x="497" y="1620" type="line"/>
      <point x="497" y="1482" type="line"/>
      <point x="526" y="1265" type="line"/>
      <point x="201" y="1284" type="line"/>
      <point x="201" y="1055" type="line"/>
    </contour>
  </outline>
</glyph>
<glyph name="lira" format="2">
  <advance width="1693"/>
  <unicode hex="20A4"/>
  <outline>
    <contour>
      <point x="381" y="982" type="line"/>
      <point x="216" y="982" type="line"/>
      <point x="216" y="861" type="line"/>
      <point x="381" y="861" type="line"/>
      <point x="381" y="714" type="line"/>
      <point x="193" y="714" type="line"/>
      <point x="193" y="596" type="line"/>
      <point x="381" y="596" type="line"/>
      <point x="381" y="469" type="line" smooth="yes"/>
      <point x="381" y="366"/>
      <point x="370" y="283"/>
      <point x="357" y="258" type="curve"/>
      <point x="228" y="258"/>
      <point x="85" y="198"/>
      <point x="85" y="101" type="curve" smooth="yes"/>
      <point x="85" y="36"/>
      <point x="152" y="0"/>
      <point x="228" y="0" type="curve" smooth="yes"/>
      <point x="316" y="0"/>
      <point x="393" y="47"/>
      <point x="458" y="104" type="curve"/>
      <point x="628" y="100"/>
      <point x="833" y="-14"/>
      <point x="1095" y="-14" type="curve" smooth="yes"/>
      <point x="1415" y="-14"/>
      <point x="1605" y="156"/>
      <point x="1605" y="364" type="curve" smooth="yes"/>
      <point x="1605" y="447"/>
      <point x="1575" y="512"/>
      <point x="1552" y="533" type="curve"/>
      <point x="1178" y="533" type="line"/>
      <point x="1213" y="499"/>
      <point x="1239" y="432"/>
      <point x="1239" y="343" type="curve" smooth="yes"/>
      <point x="1239" y="224"/>
      <point x="1190" y="159"/>
      <point x="1022" y="159" type="curve" smooth="yes"/>
      <point x="889" y="159"/>
      <point x="732" y="202"/>
      <point x="612" y="213" type="curve"/>
      <point x="731" y="289"/>
      <point x="771" y="384"/>
      <point x="771" y="513" type="curve" smooth="yes"/>
      <point x="771" y="596" type="line"/>
      <point x="1057" y="596" type="line"/>
      <point x="1057" y="714" type="line"/>
      <point x="771" y="714" type="line"/>
      <point x="771" y="861" type="line"/>
      <point x="1082" y="861" type="line"/>
      <point x="1082" y="982" type="line"/>
      <point x="771" y="982" type="line"/>
      <point x="771" y="1071" type="line" smooth="yes"/>
      <point x="771" y="1274"/>
      <point x="845" y="1345"/>
      <point x="956" y="1345" type="curve" smooth="yes"/>
      <point x="1087" y="1345"/>
      <point x="1185" y="1238"/>
      <point x="1206" y="1198" type="curve"/>
      <point x="1390" y="1398" type="line"/>
      <point x="1311" y="1452"/>
      <point x="1165" y="1505"/>
      <point x="985" y="1505" type="curve" smooth="yes"/>
      <point x="634" y="1505"/>
      <point x="381" y="1296"/>
      <point x="381" y="999" type="curve" smooth="yes"/>
    </contour>
  </outline>
</glyph>
<glyph name="naira" format="2">
  <advance width="2101"/>
  <unicode hex="20A6"/>
  <outline>
    <contour>
      <point x="234" y="0" type="line"/>
      <point x="852" y="0" type="line"/>
      <point x="852" y="130" type="line"/>
      <point x="624" y="156" type="line"/>
      <point x="624" y="517" type="line"/>
      <point x="1041" y="517" type="line"/>
      <point x="1387" y="0" type="line"/>
      <point x="1729" y="0" type="line"/>
      <point x="1729" y="517" type="line"/>
      <point x="1956" y="517" type="line"/>
      <point x="1956" y="647" type="line"/>
      <point x="1729" y="647" type="line"/>
      <point x="1729" y="855" type="line"/>
      <point x="1984" y="855" type="line"/>
      <point x="1984" y="985" type="line"/>
      <point x="1729" y="985" type="line"/>
      <point x="1729" y="1320" type="line"/>
      <point x="1921" y="1349" type="line"/>
      <point x="1921" y="1486" type="line"/>
      <point x="1329" y="1486" type="line"/>
      <point x="1329" y="1349" type="line"/>
      <point x="1544" y="1320" type="line"/>
      <point x="1547" y="985" type="line"/>
      <point x="1148" y="985" type="line"/>
      <point x="807" y="1486" type="line"/>
      <point x="233" y="1486" type="line"/>
      <point x="233" y="1349" type="line"/>
      <point x="299" y="1339"/>
      <point x="369" y="1330"/>
      <point x="436" y="1320" type="curve"/>
      <point x="436" y="985" type="line"/>
      <point x="175" y="985" type="line"/>
      <point x="175" y="855" type="line"/>
      <point x="436" y="855" type="line"/>
      <point x="436" y="647" type="line"/>
      <point x="156" y="647" type="line"/>
      <point x="156" y="517" type="line"/>
      <point x="436" y="517" type="line"/>
      <point x="436" y="156" type="line"/>
      <point x="234" y="130" type="line"/>
    </contour>
    <contour>
      <point x="624" y="647" type="line"/>
      <point x="624" y="855" type="line"/>
      <point x="812" y="855" type="line"/>
      <point x="951" y="647" type="line"/>
    </contour>
    <contour>
      <point x="1370" y="647" type="line"/>
      <point x="1232" y="855" type="line"/>
      <point x="1547" y="855" type="line"/>
      <point x="1549" y="647" type="line"/>
    </contour>
    <contour>
      <point x="1552" y="316" type="line"/>
      <point x="1441" y="517" type="line"/>
      <point x="1549" y="517" type="line"/>
    </contour>
    <contour>
      <point x="624" y="985" type="line"/>
      <point x="624" y="1195" type="line"/>
      <point x="736" y="985" type="line"/>
    </contour>
  </outline>
</glyph>
<glyph name="won" format="2">
  <advance width="2461"/>
  <unicode hex="20A9"/>
  <outline>
    <contour>
      <point x="631" y="-10" type="line"/>
      <point x="969" y="-10" type="line"/>
      <point x="1126" y="518" type="line"/>
      <point x="1332" y="518" type="line"/>
      <point x="1508" y="-10" type="line"/>
      <point x="1834" y="-10" type="line"/>
      <point x="1995" y="518" type="line"/>
      <point x="2363" y="518" type="line"/>
      <point x="2363" y="651" type="line"/>
      <point x="2037" y="651" type="line"/>
      <point x="2138" y="979" type="line"/>
      <point x="2388" y="979" type="line"/>
      <point x="2388" y="1111" type="line"/>
      <point x="2178" y="1111" type="line"/>
      <point x="2238" y="1321" type="line"/>
      <point x="2375" y="1350" type="line"/>
      <point x="2375" y="1486" type="line"/>
      <point x="1883" y="1486" type="line"/>
      <point x="1883" y="1350" type="line"/>
      <point x="2060" y="1321" type="line"/>
      <point x="2000" y="1111" type="line"/>
      <point x="1495" y="1111" type="line"/>
      <point x="1435" y="1320" type="line"/>
      <point x="1610" y="1350" type="line"/>
      <point x="1610" y="1486" type="line"/>
      <point x="938" y="1486" type="line"/>
      <point x="938" y="1350" type="line"/>
      <point x="1068" y="1320" type="line"/>
      <point x="1127" y="1151" type="line"/>
      <point x="1119" y="1111" type="line"/>
      <point x="625" y="1111" type="line"/>
      <point x="559" y="1321" type="line"/>
      <point x="704" y="1350" type="line"/>
      <point x="704" y="1486" type="line"/>
      <point x="69" y="1486" type="line"/>
      <point x="69" y="1350" type="line"/>
      <point x="178" y="1320" type="line"/>
      <point x="253" y="1111" type="line"/>
      <point x="69" y="1111" type="line"/>
      <point x="69" y="979" type="line"/>
      <point x="298" y="979" type="line"/>
      <point x="407" y="651" type="line"/>
      <point x="94" y="651" type="line"/>
      <point x="94" y="518" type="line"/>
      <point x="450" y="518" type="line"/>
    </contour>
    <contour>
      <point x="883" y="245" type="line"/>
      <point x="824" y="449" type="line"/>
      <point x="801" y="518" type="line"/>
      <point x="957" y="518" type="line"/>
      <point x="939" y="449" type="line"/>
    </contour>
    <contour>
      <point x="1758" y="231" type="line"/>
      <point x="1701" y="449" type="line"/>
      <point x="1680" y="518" type="line"/>
      <point x="1827" y="518" type="line"/>
      <point x="1809" y="449" type="line"/>
    </contour>
    <contour>
      <point x="757" y="651" type="line"/>
      <point x="656" y="979" type="line"/>
      <point x="1088" y="979" type="line"/>
      <point x="989" y="651" type="line"/>
    </contour>
    <contour>
      <point x="1166" y="651" type="line"/>
      <point x="1219" y="864" type="line"/>
      <point x="1231" y="864" type="line"/>
      <point x="1291" y="651" type="line"/>
    </contour>
    <contour>
      <point x="1634" y="651" type="line"/>
      <point x="1535" y="979" type="line"/>
      <point x="1961" y="979" type="line"/>
      <point x="1860" y="651" type="line"/>
    </contour>
  </outline>
</glyph>
<glyph name="sheqel" format="2">
  <advance width="2105"/>
  <unicode hex="20AA"/>
  <outline>
    <contour>
      <point x="253" y="1486" type="line"/>
      <point x="253" y="0" type="line"/>
      <point x="525" y="0" type="line"/>
      <point x="525" y="1293" type="line"/>
      <point x="921" y="1293" type="line" smooth="yes"/>
      <point x="1110" y="1293"/>
      <point x="1137" y="1238"/>
      <point x="1137" y="1098" type="curve" smooth="yes"/>
      <point x="1137" y="375" type="line"/>
      <point x="1409" y="375" type="line"/>
      <point x="1409" y="1092" type="line" smooth="yes"/>
      <point x="1409" y="1440"/>
      <point x="1296" y="1487"/>
      <point x="1014" y="1487" type="curve" smooth="yes"/>
    </contour>
    <contour>
      <point x="1849" y="0" type="line"/>
      <point x="1849" y="1487" type="line"/>
      <point x="1577" y="1487" type="line"/>
      <point x="1577" y="194" type="line"/>
      <point x="1179" y="194" type="line" smooth="yes"/>
      <point x="987" y="194"/>
      <point x="960" y="249"/>
      <point x="960" y="390" type="curve" smooth="yes"/>
      <point x="960" y="1113" type="line"/>
      <point x="689" y="1113" type="line"/>
      <point x="689" y="398" type="line" smooth="yes"/>
      <point x="689" y="50"/>
      <point x="801" y="0"/>
      <point x="1086" y="0" type="curve" smooth="yes"/>
    </contour>
  </outline>
</glyph>
<glyph name="euro" format="2">
  <advance width="1646"/>
  <unicode hex="20AC"/>
  <outline>
    <contour>
      <point x="995" y="-28" type="curve" smooth="yes"/>
      <point x="1249" y="-28"/>
      <point x="1409" y="55"/>
      <point x="1495" y="59" type="curve"/>
      <point x="1518" y="369" type="line"/>
      <point x="1315" y="395" type="line"/>
      <point x="1227" y="179" type="line"/>
      <point x="1177" y="126"/>
      <point x="1110" y="105"/>
      <point x="1037" y="105" type="curve" smooth="yes"/>
      <point x="831" y="105"/>
      <point x="752" y="255"/>
      <point x="720" y="503" type="curve"/>
      <point x="1026" y="503" type="line"/>
      <point x="1070" y="640" type="line"/>
      <point x="709" y="640" type="line"/>
      <point x="707" y="700"/>
      <point x="707" y="714"/>
      <point x="707" y="747" type="curve" smooth="yes"/>
      <point x="707" y="763"/>
      <point x="707" y="792"/>
      <point x="708" y="815" type="curve"/>
      <point x="1132" y="815" type="line"/>
      <point x="1175" y="951" type="line"/>
      <point x="718" y="951" type="line"/>
      <point x="746" y="1201"/>
      <point x="825" y="1371"/>
      <point x="1029" y="1371" type="curve" smooth="yes"/>
      <point x="1099" y="1371"/>
      <point x="1193" y="1350"/>
      <point x="1219" y="1312" type="curve"/>
      <point x="1275" y="1061" type="line"/>
      <point x="1500" y="1061" type="line"/>
      <point x="1526" y="1428" type="line"/>
      <point x="1432" y="1435"/>
      <point x="1298" y="1512"/>
      <point x="1054" y="1512" type="curve" smooth="yes"/>
      <point x="661" y="1512"/>
      <point x="398" y="1307"/>
      <point x="316" y="951" type="curve"/>
      <point x="137" y="951" type="line"/>
      <point x="94" y="815" type="line"/>
      <point x="294" y="815" type="line"/>
      <point x="290" y="767"/>
      <point x="289" y="748"/>
      <point x="289" y="677" type="curve"/>
      <point x="290" y="640" type="line"/>
      <point x="139" y="640" type="line"/>
      <point x="96" y="503" type="line"/>
      <point x="307" y="503" type="line"/>
      <point x="376" y="146"/>
      <point x="627" y="-28"/>
    </contour>
  </outline>
</glyph>
<glyph name="guarani" format="2">
  <advance width="1538"/>
  <unicode hex="20B2"/>
  <anchor x="753" y="0" name="bottom"/>
  <anchor x="763" y="-166" name="mark0"/>
  <anchor x="813" y="1486" name="top"/>
  <outline>
    <contour>
      <point x="990" y="1738" type="line"/>
      <point x="805" y="1738" type="line"/>
      <point x="805" y="1460" type="line"/>
      <point x="990" y="1460" type="line"/>
    </contour>
    <contour>
      <point x="990" y="18" type="line"/>
      <point x="805" y="18" type="line"/>
      <point x="805" y="-260" type="line"/>
      <point x="990" y="-260" type="line"/>
    </contour>
    <component base="G" xOffset="35"/>
  </outline>
</glyph>
<glyph name="hryvnia" format="2">
  <advance width="1507"/>
  <unicode hex="20B4"/>
  <outline>
    <contour>
      <point x="722" y="-22" type="curve" smooth="yes"/>
      <point x="1032" y="-22"/>
      <point x="1181" y="66"/>
      <point x="1305" y="71" type="curve"/>
      <point x="1325" y="372" type="line"/>
      <point x="1108" y="375" type="line"/>
      <point x="1019" y="177" type="line"/>
      <point x="979" y="146"/>
      <point x="900" y="105"/>
      <point x="784" y="105" type="curve" smooth="yes"/>
      <point x="609" y="105"/>
      <point x="552" y="199"/>
      <point x="552" y="293" type="curve" smooth="yes"/>
      <point x="552" y="399"/>
      <point x="626" y="462"/>
      <point x="763" y="560" type="curve"/>
      <point x="1397" y="560" type="line"/>
      <point x="1397" y="682" type="line"/>
      <point x="913" y="682" type="line"/>
      <point x="998" y="753"/>
      <point x="1060" y="809"/>
      <point x="1113" y="849" type="curve"/>
      <point x="1397" y="849" type="line"/>
      <point x="1397" y="971" type="line"/>
      <point x="1225" y="971" type="line"/>
      <point x="1284" y="1033"/>
      <point x="1319" y="1105"/>
      <point x="1319" y="1197" type="curve" smooth="yes"/>
      <point x="1319" y="1350"/>
      <point x="1214" y="1505"/>
      <point x="790" y="1505" type="curve" smooth="yes"/>
      <point x="581" y="1505"/>
      <point x="402" y="1461"/>
      <point x="231" y="1445" type="curve"/>
      <point x="262" y="1131" type="line"/>
      <point x="493" y="1131" type="line"/>
      <point x="536" y="1310" type="line"/>
      <point x="559" y="1344"/>
      <point x="649" y="1373"/>
      <point x="733" y="1373" type="curve" smooth="yes"/>
      <point x="882" y="1373"/>
      <point x="933" y="1296"/>
      <point x="933" y="1194" type="curve" smooth="yes"/>
      <point x="933" y="1106"/>
      <point x="892" y="1037"/>
      <point x="812" y="971" type="curve"/>
      <point x="117" y="971" type="line"/>
      <point x="117" y="849" type="line"/>
      <point x="657" y="849" type="line"/>
      <point x="585" y="800"/>
      <point x="509" y="737"/>
      <point x="437" y="682" type="curve"/>
      <point x="117" y="682" type="line"/>
      <point x="117" y="560" type="line"/>
      <point x="299" y="560" type="line"/>
      <point x="210" y="484"/>
      <point x="161" y="405"/>
      <point x="161" y="301" type="curve" smooth="yes"/>
      <point x="161" y="101"/>
      <point x="357" y="-22"/>
    </contour>
  </outline>
</glyph>
<glyph name="cedi" format="2">
  <advance width="1575"/>
  <unicode hex="20B5"/>
  <outline>
    <contour>
      <point x="763" y="-337" type="line"/>
      <point x="906" y="-337" type="line"/>
      <point x="924" y="-24" type="line"/>
      <point x="1173" y="-15"/>
      <point x="1272" y="49"/>
      <point x="1398" y="60" type="curve"/>
      <point x="1427" y="354" type="line"/>
      <point x="1208" y="384" type="line"/>
      <point x="1108" y="188" type="line"/>
      <point x="1072" y="154"/>
      <point x="1002" y="126"/>
      <point x="931" y="120" type="curve"/>
      <point x="1010" y="1354" type="line"/>
      <point x="1060" y="1346"/>
      <point x="1097" y="1331"/>
      <point x="1116" y="1314" type="curve"/>
      <point x="1178" y="1055" type="line"/>
      <point x="1406" y="1055" type="line"/>
      <point x="1432" y="1446" type="line"/>
      <point x="1361" y="1446"/>
      <point x="1202" y="1495"/>
      <point x="1017" y="1503" type="curve"/>
      <point x="1033" y="1772" type="line"/>
      <point x="894" y="1772" type="line"/>
      <point x="878" y="1502" type="line"/>
      <point x="453" y="1476"/>
      <point x="155" y="1193"/>
      <point x="155" y="709" type="curve" smooth="yes"/>
      <point x="155" y="300"/>
      <point x="368" y="13"/>
      <point x="781" y="-20" type="curve"/>
    </contour>
    <contour>
      <point x="789" y="139" type="line"/>
      <point x="631" y="197"/>
      <point x="572" y="427"/>
      <point x="572" y="731" type="curve" smooth="yes"/>
      <point x="572" y="1128"/>
      <point x="672" y="1338"/>
      <point x="870" y="1360" type="curve"/>
    </contour>
  </outline>
</glyph>
<glyph name="tenge" format="2">
  <advance width="1703"/>
  <unicode hex="20B8"/>
  <anchor x="801" y="-166" name="mark0"/>
  <outline>
    <contour>
      <point x="663" y="154" type="line"/>
      <point x="419" y="132" type="line"/>
      <point x="419" y="0" type="line"/>
      <point x="1321" y="0" type="line"/>
      <point x="1321" y="132" type="line"/>
      <point x="1054" y="154" type="line"/>
      <point x="1054" y="991" type="line"/>
      <point x="1264" y="965" type="line"/>
      <point x="1351" y="676" type="line"/>
      <point x="1573" y="676" type="line"/>
      <point x="1543" y="1139" type="line"/>
      <point x="168" y="1139" type="line"/>
      <point x="130" y="676" type="line"/>
      <point x="362" y="676" type="line"/>
      <point x="445" y="965" type="line"/>
      <point x="663" y="991" type="line"/>
    </contour>
    <contour>
      <point x="169" y="1486" type="line"/>
      <point x="169" y="1306" type="line"/>
      <point x="1543" y="1306" type="line"/>
      <point x="1543" y="1486" type="line"/>
    </contour>
  </outline>
</glyph>
<glyph name="bitcoin" format="2">
  <advance width="1624"/>
  <unicode hex="20BF"/>
  <anchor x="744" y="0" name="bottom"/>
  <anchor x="760" y="-166" name="mark0"/>
  <anchor x="744" y="1486" name="top"/>
  <outline>
    <contour>
      <point x="610" y="1738" type="line"/>
      <point x="441" y="1738" type="line"/>
      <point x="441" y="1440" type="line"/>
      <point x="610" y="1440" type="line"/>
    </contour>
    <contour>
      <point x="998" y="1738" type="line"/>
      <point x="828" y="1738" type="line"/>
      <point x="828" y="1440" type="line"/>
      <point x="998" y="1440" type="line"/>
    </contour>
    <contour>
      <point x="610" y="38" type="line"/>
      <point x="441" y="38" type="line"/>
      <point x="441" y="-260" type="line"/>
      <point x="610" y="-260" type="line"/>
    </contour>
    <contour>
      <point x="998" y="38" type="line"/>
      <point x="828" y="38" type="line"/>
      <point x="828" y="-260" type="line"/>
      <point x="998" y="-260" type="line"/>
    </contour>
    <component base="B" xOffset="16"/>
  </outline>
</glyph>
<glyph name="accountof" format="2">
  <advance width="2517"/>
  <unicode hex="2100"/>
  <outline>
    <contour>
      <point x="90" y="872" type="curve" smooth="yes"/>
      <point x="90" y="698"/>
      <point x="240" y="584"/>
      <point x="409" y="584" type="curve" smooth="yes"/>
      <point x="545" y="584"/>
      <point x="641" y="659"/>
      <point x="689" y="717" type="curve"/>
      <point x="689" y="677" type="line" smooth="yes"/>
      <point x="689" y="630"/>
      <point x="689" y="582"/>
      <point x="826" y="582" type="curve" smooth="yes"/>
      <point x="906" y="582"/>
      <point x="1017" y="599"/>
      <point x="1061" y="609" type="curve"/>
      <point x="1061" y="717" type="line"/>
      <point x="990" y="717" type="line"/>
      <point x="990" y="1231" type="line" smooth="yes"/>
      <point x="990" y="1360"/>
      <point x="991" y="1582"/>
      <point x="595" y="1582" type="curve" smooth="yes"/>
      <point x="333" y="1582"/>
      <point x="188" y="1485"/>
      <point x="135" y="1449" type="curve"/>
      <point x="199" y="1320" type="line"/>
      <point x="259" y="1346"/>
      <point x="356" y="1392"/>
      <point x="495" y="1392" type="curve" smooth="yes"/>
      <point x="673" y="1392"/>
      <point x="672" y="1315"/>
      <point x="672" y="1229" type="curve" smooth="yes"/>
      <point x="672" y="1196" type="line"/>
      <point x="315" y="1191"/>
      <point x="90" y="1086"/>
    </contour>
    <contour>
      <point x="526" y="738" type="curve" smooth="yes"/>
      <point x="456" y="738"/>
      <point x="411" y="806"/>
      <point x="411" y="885" type="curve" smooth="yes"/>
      <point x="411" y="988"/>
      <point x="486" y="1065"/>
      <point x="672" y="1065" type="curve"/>
      <point x="672" y="801" type="line"/>
      <point x="637" y="770"/>
      <point x="576" y="738"/>
    </contour>
    <contour>
      <point x="1545" y="474" type="curve" smooth="yes"/>
      <point x="1545" y="181"/>
      <point x="1730" y="-13"/>
      <point x="2035" y="-13" type="curve" smooth="yes"/>
      <point x="2242" y="-13"/>
      <point x="2374" y="77"/>
      <point x="2427" y="122" type="curve"/>
      <point x="2375" y="227" type="line"/>
      <point x="2329" y="200"/>
      <point x="2218" y="163"/>
      <point x="2129" y="163" type="curve" smooth="yes"/>
      <point x="1969" y="163"/>
      <point x="1891" y="284"/>
      <point x="1891" y="533" type="curve" smooth="yes"/>
      <point x="1891" y="781"/>
      <point x="1968" y="861"/>
      <point x="2066" y="861" type="curve" smooth="yes"/>
      <point x="2098" y="861"/>
      <point x="2131" y="852"/>
      <point x="2138" y="821" type="curve" smooth="yes"/>
      <point x="2184" y="622" type="line"/>
      <point x="2405" y="622" type="line"/>
      <point x="2418" y="938" type="line"/>
      <point x="2357" y="946"/>
      <point x="2264" y="991"/>
      <point x="2102" y="991" type="curve" smooth="yes"/>
      <point x="1763" y="991"/>
      <point x="1545" y="794"/>
    </contour>
    <contour>
      <point x="1795" y="1767" type="line"/>
      <point x="1528" y="1767" type="line"/>
      <point x="931" y="-120" type="line"/>
      <point x="1198" y="-120" type="line"/>
    </contour>
  </outline>
</glyph>
<glyph name="addressedtothesubject" format="2">
  <advance width="2629"/>
  <unicode hex="2101"/>
  <outline>
    <contour>
      <point x="2068" y="-17" type="curve" smooth="yes"/>
      <point x="2371" y="-17"/>
      <point x="2512" y="124"/>
      <point x="2512" y="287" type="curve" smooth="yes"/>
      <point x="2512" y="471"/>
      <point x="2333" y="544"/>
      <point x="2161" y="613" type="curve"/>
      <point x="2048" y="658"/>
      <point x="1939" y="693"/>
      <point x="1939" y="773" type="curve" smooth="yes"/>
      <point x="1939" y="829"/>
      <point x="1991" y="871"/>
      <point x="2071" y="871" type="curve" smooth="yes"/>
      <point x="2129" y="871"/>
      <point x="2167" y="849"/>
      <point x="2176" y="831" type="curve"/>
      <point x="2227" y="696" type="line"/>
      <point x="2435" y="696" type="line"/>
      <point x="2435" y="939" type="line"/>
      <point x="2377" y="943"/>
      <point x="2255" y="990"/>
      <point x="2071" y="990" type="curve" smooth="yes"/>
      <point x="1767" y="990"/>
      <point x="1640" y="861"/>
      <point x="1640" y="692" type="curve" smooth="yes"/>
      <point x="1640" y="539"/>
      <point x="1744" y="443"/>
      <point x="1911" y="377" type="curve"/>
      <point x="2066" y="315"/>
      <point x="2200" y="284"/>
      <point x="2200" y="200" type="curve" smooth="yes"/>
      <point x="2200" y="148"/>
      <point x="2151" y="104"/>
      <point x="2059" y="104" type="curve" smooth="yes"/>
      <point x="1991" y="104"/>
      <point x="1928" y="128"/>
      <point x="1915" y="149" type="curve"/>
      <point x="1865" y="286" type="line"/>
      <point x="1645" y="286" type="line"/>
      <point x="1645" y="52" type="line"/>
      <point x="1712" y="42"/>
      <point x="1872" y="-17"/>
    </contour>
    <contour>
      <point x="1795" y="1767" type="line"/>
      <point x="1528" y="1767" type="line"/>
      <point x="931" y="-120" type="line"/>
      <point x="1198" y="-120" type="line"/>
    </contour>
    <contour>
      <point x="90" y="872" type="curve" smooth="yes"/>
      <point x="90" y="698"/>
      <point x="240" y="584"/>
      <point x="409" y="584" type="curve" smooth="yes"/>
      <point x="545" y="584"/>
      <point x="641" y="659"/>
      <point x="689" y="717" type="curve"/>
      <point x="689" y="677" type="line" smooth="yes"/>
      <point x="689" y="630"/>
      <point x="689" y="582"/>
      <point x="826" y="582" type="curve" smooth="yes"/>
      <point x="906" y="582"/>
      <point x="1017" y="599"/>
      <point x="1061" y="609" type="curve"/>
      <point x="1061" y="717" type="line"/>
      <point x="990" y="717" type="line"/>
      <point x="990" y="1231" type="line" smooth="yes"/>
      <point x="990" y="1360"/>
      <point x="991" y="1582"/>
      <point x="595" y="1582" type="curve" smooth="yes"/>
      <point x="333" y="1582"/>
      <point x="188" y="1485"/>
      <point x="135" y="1449" type="curve"/>
      <point x="199" y="1320" type="line"/>
      <point x="259" y="1346"/>
      <point x="356" y="1392"/>
      <point x="495" y="1392" type="curve" smooth="yes"/>
      <point x="673" y="1392"/>
      <point x="672" y="1315"/>
      <point x="672" y="1229" type="curve" smooth="yes"/>
      <point x="672" y="1196" type="line"/>
      <point x="315" y="1191"/>
      <point x="90" y="1086"/>
    </contour>
    <contour>
      <point x="526" y="738" type="curve" smooth="yes"/>
      <point x="456" y="738"/>
      <point x="411" y="806"/>
      <point x="411" y="885" type="curve" smooth="yes"/>
      <point x="411" y="988"/>
      <point x="486" y="1065"/>
      <point x="672" y="1065" type="curve"/>
      <point x="672" y="801" type="line"/>
      <point x="637" y="770"/>
      <point x="576" y="738"/>
    </contour>
  </outline>
</glyph>
<glyph name="careof" format="2">
  <advance width="2316"/>
  <unicode hex="2105"/>
  <outline>
    <contour>
      <point x="678" y="0" type="line"/>
      <point x="892" y="0" type="line"/>
      <point x="1609" y="1502" type="line"/>
      <point x="1396" y="1502" type="line"/>
    </contour>
    <contour>
      <point x="562" y="617" type="curve" smooth="yes"/>
      <point x="706" y="617"/>
      <point x="823" y="676"/>
      <point x="891" y="732" type="curve"/>
      <point x="825" y="851" type="line"/>
      <point x="779" y="819"/>
      <point x="710" y="790"/>
      <point x="605" y="790" type="curve" smooth="yes"/>
      <point x="469" y="790"/>
      <point x="388" y="900"/>
      <point x="391" y="1090" type="curve" smooth="yes"/>
      <point x="393" y="1243"/>
      <point x="459" y="1343"/>
      <point x="582" y="1343" type="curve" smooth="yes"/>
      <point x="640" y="1343"/>
      <point x="671" y="1317"/>
      <point x="689" y="1293" type="curve"/>
      <point x="719" y="1164" type="line"/>
      <point x="880" y="1164" type="line"/>
      <point x="888" y="1449" type="line"/>
      <point x="841" y="1453"/>
      <point x="751" y="1492"/>
      <point x="604" y="1492" type="curve" smooth="yes"/>
      <point x="300" y="1492"/>
      <point x="129" y="1277"/>
      <point x="131" y="1039" type="curve"/>
      <point x="131" y="780"/>
      <point x="296" y="617"/>
    </contour>
    <contour>
      <point x="1749" y="20" type="curve" smooth="yes"/>
      <point x="1999" y="20"/>
      <point x="2211" y="176"/>
      <point x="2211" y="460" type="curve" smooth="yes"/>
      <point x="2211" y="699"/>
      <point x="2096" y="892"/>
      <point x="1789" y="892" type="curve" smooth="yes"/>
      <point x="1533" y="892"/>
      <point x="1327" y="732"/>
      <point x="1327" y="448" type="curve" smooth="yes"/>
      <point x="1327" y="217"/>
      <point x="1474" y="20"/>
    </contour>
    <contour>
      <point x="1766" y="151" type="curve" smooth="yes"/>
      <point x="1642" y="151"/>
      <point x="1597" y="321"/>
      <point x="1597" y="461" type="curve" smooth="yes"/>
      <point x="1597" y="635"/>
      <point x="1646" y="761"/>
      <point x="1774" y="761" type="curve" smooth="yes"/>
      <point x="1902" y="761"/>
      <point x="1942" y="605"/>
      <point x="1942" y="452" type="curve" smooth="yes"/>
      <point x="1942" y="277"/>
      <point x="1894" y="151"/>
    </contour>
  </outline>
</glyph>
<glyph name="numero" format="2">
  <advance width="2956"/>
  <unicode hex="2116"/>
  <outline>
    <contour>
      <point x="323" y="156" type="line"/>
      <point x="127" y="130" type="line"/>
      <point x="127" y="0" type="line"/>
      <point x="735" y="0" type="line"/>
      <point x="735" y="130" type="line"/>
      <point x="517" y="156" type="line"/>
      <point x="517" y="1089" type="line"/>
      <point x="612" y="924" type="line"/>
      <point x="1241" y="0" type="line"/>
      <point x="1541" y="0" type="line"/>
      <point x="1541" y="1320" type="line"/>
      <point x="1729" y="1349" type="line"/>
      <point x="1729" y="1486" type="line"/>
      <point x="1146" y="1486" type="line"/>
      <point x="1146" y="1349" type="line"/>
      <point x="1349" y="1319" type="line"/>
      <point x="1349" y="460" type="line"/>
      <point x="1262" y="626" type="line"/>
      <point x="670" y="1486" type="line"/>
      <point x="127" y="1486" type="line"/>
      <point x="127" y="1349" type="line"/>
      <point x="192" y="1339"/>
      <point x="258" y="1330"/>
      <point x="323" y="1320" type="curve"/>
    </contour>
    <contour>
      <point x="2257" y="509" type="curve" smooth="yes"/>
      <point x="2546" y="509"/>
      <point x="2796" y="678"/>
      <point x="2799" y="1028" type="curve" smooth="yes"/>
      <point x="2802" y="1335"/>
      <point x="2612" y="1510"/>
      <point x="2317" y="1510" type="curve" smooth="yes"/>
      <point x="2036" y="1510"/>
      <point x="1774" y="1352"/>
      <point x="1774" y="993" type="curve" smooth="yes"/>
      <point x="1774" y="698"/>
      <point x="1952" y="509"/>
    </contour>
    <contour>
      <point x="2292" y="625" type="curve" smooth="yes"/>
      <point x="2191" y="625"/>
      <point x="2137" y="745"/>
      <point x="2137" y="1017" type="curve" smooth="yes"/>
      <point x="2137" y="1294"/>
      <point x="2193" y="1397"/>
      <point x="2289" y="1395" type="curve" smooth="yes"/>
      <point x="2387" y="1393"/>
      <point x="2439" y="1282"/>
      <point x="2439" y="1004" type="curve" smooth="yes"/>
      <point x="2439" y="734"/>
      <point x="2389" y="625"/>
    </contour>
    <contour>
      <point x="2767" y="172" type="line"/>
      <point x="1803" y="172" type="line"/>
      <point x="1803" y="0" type="line"/>
      <point x="2767" y="0" type="line"/>
    </contour>
  </outline>
</glyph>
<glyph name="upDownArrow" format="2">
  <advance width="1428"/>
  <unicode hex="2195"/>
  <outline>
    <contour>
      <point x="1157" y="829" type="line"/>
      <point x="1301" y="976" type="line"/>
      <point x="714" y="1565" type="line"/>
      <point x="126" y="976" type="line"/>
      <point x="271" y="829" type="line"/>
      <point x="623" y="1180" type="line"/>
      <point x="607" y="1026" type="line"/>
      <point x="607" y="246" type="line"/>
      <point x="623" y="91" type="line"/>
      <point x="271" y="443" type="line"/>
      <point x="126" y="295" type="line"/>
      <point x="714" y="-292" type="line"/>
      <point x="1301" y="295" type="line"/>
      <point x="1157" y="443" type="line"/>
      <point x="806" y="91" type="line"/>
      <point x="822" y="246" type="line"/>
      <point x="822" y="1026" type="line"/>
      <point x="806" y="1181" type="line"/>
    </contour>
  </outline>
</glyph>
<glyph name="partialdiff" format="2">
  <advance width="1396"/>
  <unicode hex="2202"/>
  <outline>
    <contour>
      <point x="107" y="460" type="curve" smooth="yes"/>
      <point x="107" y="185"/>
      <point x="286" y="-24"/>
      <point x="601" y="-24" type="curve" smooth="yes"/>
      <point x="1093" y="-24"/>
      <point x="1289" y="494"/>
      <point x="1289" y="925" type="curve" smooth="yes"/>
      <point x="1289" y="1345"/>
      <point x="1102" y="1640"/>
      <point x="652" y="1640" type="curve" smooth="yes"/>
      <point x="443" y="1640"/>
      <point x="275" y="1576"/>
      <point x="208" y="1507" type="curve"/>
      <point x="274" y="1356" type="line"/>
      <point x="326" y="1408"/>
      <point x="448" y="1436"/>
      <point x="557" y="1436" type="curve" smooth="yes"/>
      <point x="885" y="1436"/>
      <point x="936" y="1176"/>
      <point x="947" y="944" type="curve"/>
      <point x="891" y="981"/>
      <point x="833" y="1003"/>
      <point x="723" y="1003" type="curve" smooth="yes"/>
      <point x="387" y="1003"/>
      <point x="107" y="803"/>
    </contour>
    <contour>
      <point x="934" y="592" type="curve" smooth="yes"/>
      <point x="894" y="316"/>
      <point x="800" y="181"/>
      <point x="655" y="181" type="curve" smooth="yes"/>
      <point x="507" y="181"/>
      <point x="432" y="320"/>
      <point x="434" y="489" type="curve" smooth="yes"/>
      <point x="437" y="714"/>
      <point x="577" y="850"/>
      <point x="744" y="850" type="curve" smooth="yes"/>
      <point x="818" y="850"/>
      <point x="893" y="823"/>
      <point x="949" y="779" type="curve"/>
      <point x="949" y="712"/>
      <point x="941" y="639"/>
    </contour>
  </outline>
</glyph>
<glyph name="infinity" format="2">
  <advance width="2207"/>
  <unicode hex="221E"/>
  <outline>
    <contour>
      <point x="579" y="100" type="curve" smooth="yes"/>
      <point x="782" y="103"/>
      <point x="953" y="225"/>
      <point x="1047" y="366" type="curve"/>
      <point x="1181" y="212"/>
      <point x="1338" y="100"/>
      <point x="1572" y="100" type="curve" smooth="yes"/>
      <point x="1886" y="100"/>
      <point x="2117" y="303"/>
      <point x="2117" y="561" type="curve" smooth="yes"/>
      <point x="2117" y="808"/>
      <point x="1905" y="1022"/>
      <point x="1637" y="1022" type="curve" smooth="yes"/>
      <point x="1433" y="1022"/>
      <point x="1259" y="899"/>
      <point x="1156" y="747" type="curve"/>
      <point x="1003" y="929"/>
      <point x="864" y="1023"/>
      <point x="640" y="1023" type="curve" smooth="yes"/>
      <point x="314" y="1023"/>
      <point x="90" y="824"/>
      <point x="90" y="566" type="curve" smooth="yes"/>
      <point x="90" y="314"/>
      <point x="304" y="96"/>
    </contour>
    <contour>
      <point x="674" y="327" type="curve" smooth="yes"/>
      <point x="497" y="327"/>
      <point x="337" y="464"/>
      <point x="337" y="626" type="curve" smooth="yes"/>
      <point x="337" y="743"/>
      <point x="420" y="824"/>
      <point x="540" y="824" type="curve" smooth="yes"/>
      <point x="715" y="824"/>
      <point x="856" y="651"/>
      <point x="970" y="471" type="curve"/>
      <point x="899" y="385"/>
      <point x="789" y="327"/>
    </contour>
    <contour>
      <point x="1531" y="796" type="curve" smooth="yes"/>
      <point x="1705" y="796"/>
      <point x="1872" y="664"/>
      <point x="1872" y="497" type="curve" smooth="yes"/>
      <point x="1872" y="378"/>
      <point x="1788" y="297"/>
      <point x="1662" y="297" type="curve" smooth="yes"/>
      <point x="1494" y="297"/>
      <point x="1389" y="441"/>
      <point x="1234" y="648" type="curve"/>
      <point x="1305" y="736"/>
      <point x="1413" y="796"/>
    </contour>
  </outline>
</glyph>
<glyph name="greaterequal" format="2">
  <advance width="1499"/>
  <unicode hex="2265"/>
  <outline>
    <contour>
      <point x="1324" y="856" type="line"/>
      <point x="1324" y="932" type="line"/>
      <point x="240" y="1375" type="line"/>
      <point x="240" y="1145" type="line"/>
      <point x="946" y="895" type="line"/>
      <point x="240" y="633" type="line"/>
      <point x="240" y="414" type="line"/>
    </contour>
    <contour>
      <point x="1306" y="76" type="line"/>
      <point x="1306" y="270" type="line"/>
      <point x="244" y="270" type="line"/>
      <point x="244" y="76" type="line"/>
    </contour>
  </outline>
</glyph>
<glyph name="leftanglebracket-math" format="2">
  <advance width="874"/>
  <unicode hex="27E8"/>
  <outline>
    <contour>
      <point x="584" y="1802" type="line"/>
      <point x="80" y="635" type="line"/>
      <point x="614" y="-510" type="line"/>
      <point x="794" y="-510" type="line"/>
      <point x="276" y="631" type="line"/>
      <point x="785" y="1802" type="line"/>
    </contour>
  </outline>
</glyph>
<glyph name="El-cy.loclBGR" format="2">
  <advance width="1433"/>
  <outline>
    <contour>
      <point x="-69" y="0" type="line"/>
      <point x="476" y="0" type="line"/>
      <point x="476" y="132" type="line"/>
      <point x="304" y="150" type="line"/>
      <point x="621" y="1142" type="line"/>
      <point x="674" y="1284" type="line"/>
      <point x="705" y="1143" type="line"/>
      <point x="979" y="153" type="line"/>
      <point x="821" y="132" type="line"/>
      <point x="821" y="0" type="line"/>
      <point x="1504" y="0" type="line"/>
      <point x="1504" y="132" type="line"/>
      <point x="1387" y="153" type="line"/>
      <point x="948" y="1493" type="line"/>
      <point x="551" y="1493" type="line"/>
      <point x="50" y="154" type="line"/>
      <point x="-71" y="132" type="line"/>
    </contour>
  </outline>
</glyph>
<glyph name="Esdescender-cy.loclBSH" format="2">
  <advance width="1426"/>
  <anchor x="727" y="0" name="bottom"/>
  <anchor x="730" y="-166" name="mark0"/>
  <anchor x="757" y="1486" name="top"/>
  <outline>
    <contour>
      <point x="762" y="-537" type="curve" smooth="yes"/>
      <point x="873" y="-537"/>
      <point x="965" y="-458"/>
      <point x="965" y="-330" type="curve" smooth="yes"/>
      <point x="965" y="-206"/>
      <point x="893" y="-80"/>
      <point x="816" y="6" type="curve"/>
      <point x="660" y="-1" type="line"/>
      <point x="711" y="-58"/>
      <point x="746" y="-147"/>
      <point x="746" y="-244" type="curve"/>
      <point x="584" y="-365" type="line"/>
      <point x="595" y="-467"/>
      <point x="660" y="-537"/>
    </contour>
    <component base="C"/>
  </outline>
</glyph>
<glyph name="a.sc" format="2">
  <advance width="1458"/>
  <anchor x="681" y="0" name="bottom"/>
  <anchor x="1257" y="18" name="ogonek"/>
  <anchor x="717" y="1292" name="top"/>
  <outline>
    <contour>
      <point x="92" y="146" type="line"/>
      <point x="-25" y="126" type="line"/>
      <point x="-23" y="0" type="line"/>
      <point x="527" y="0" type="line"/>
      <point x="527" y="126" type="line"/>
      <point x="370" y="142" type="line"/>
      <point x="436" y="334" type="line"/>
      <point x="928" y="334" type="line"/>
      <point x="984" y="144" type="line"/>
      <point x="835" y="126" type="line"/>
      <point x="835" y="0" type="line"/>
      <point x="1478" y="0" type="line"/>
      <point x="1478" y="126" type="line"/>
      <point x="1368" y="144" type="line"/>
      <point x="928" y="1298" type="line"/>
      <point x="553" y="1298" type="line"/>
    </contour>
    <contour>
      <point x="876" y="480" type="line"/>
      <point x="476" y="480" type="line"/>
      <point x="649" y="984" type="line"/>
      <point x="679" y="1094" type="line"/>
      <point x="708" y="984" type="line"/>
    </contour>
  </outline>
</glyph>
<glyph name="acutecomb.case" format="2">
  <anchor x="0" y="1486" name="_top"/>
  <anchor x="0" y="1964" name="top"/>
  <outline>
    <contour>
      <point x="-62" y="1597" type="line"/>
      <point x="71" y="1637"/>
      <point x="268" y="1770"/>
      <point x="347" y="1871" type="curve"/>
      <point x="154" y="2044" type="line"/>
      <point x="-178" y="1695" type="line"/>
      <point x="-64" y="1597" type="line"/>
    </contour>
  </outline>
</glyph>
<glyph name="ae.sc" format="2">
  <advance width="1903"/>
  <anchor x="915" y="0" name="bottom"/>
  <anchor x="878" y="-144" name="mark0"/>
  <anchor x="915" y="1287" name="top"/>
  <outline>
    <contour>
      <point x="823" y="145" type="line"/>
      <point x="667" y="124" type="line"/>
      <point x="667" y="0" type="line"/>
      <point x="1823" y="0" type="line"/>
      <point x="1892" y="337" type="line"/>
      <point x="1730" y="384" type="line"/>
      <point x="1601" y="155" type="line"/>
      <point x="1168" y="130" type="line"/>
      <point x="1168" y="583" type="line"/>
      <point x="1408" y="578" type="line"/>
      <point x="1441" y="426" type="line"/>
      <point x="1584" y="426" type="line"/>
      <point x="1584" y="877" type="line"/>
      <point x="1440" y="877" type="line"/>
      <point x="1406" y="738" type="line"/>
      <point x="1168" y="732" type="line"/>
      <point x="1168" y="1170" type="line"/>
      <point x="1560" y="1147" type="line"/>
      <point x="1633" y="969" type="line"/>
      <point x="1798" y="969" type="line"/>
      <point x="1769" y="1292" type="line"/>
      <point x="239" y="1292" type="line"/>
      <point x="239" y="1158" type="line"/>
      <point x="509" y="1132" type="line"/>
      <point x="10" y="145" type="line"/>
      <point x="-153" y="124" type="line"/>
      <point x="-153" y="0" type="line"/>
      <point x="424" y="0" type="line"/>
      <point x="424" y="124" type="line"/>
      <point x="273" y="145" type="line"/>
      <point x="367" y="350" type="line"/>
      <point x="823" y="350" type="line"/>
    </contour>
    <contour>
      <point x="823" y="500" type="line"/>
      <point x="427" y="500" type="line"/>
      <point x="607" y="905" type="line"/>
      <point x="707" y="1155" type="line"/>
      <point x="823" y="1155" type="line"/>
    </contour>
  </outline>
</glyph>
<glyph name="brevecomb_acutecomb" format="2">
  <anchor x="0" y="1110" name="_top"/>
  <anchor x="0" y="1739" name="top"/>
  <outline>
    <contour>
      <point x="0" y="1283" type="curve" smooth="yes"/>
      <point x="198" y="1283"/>
      <point x="344" y="1394"/>
      <point x="344" y="1558" type="curve" smooth="yes"/>
      <point x="344" y="1583"/>
      <point x="342" y="1600"/>
      <point x="339" y="1616" type="curve"/>
      <point x="203" y="1616" type="line"/>
      <point x="203" y="1603"/>
      <point x="203" y="1588"/>
      <point x="201" y="1573" type="curve" smooth="yes"/>
      <point x="192" y="1502"/>
      <point x="125" y="1457"/>
      <point x="0" y="1457" type="curve" smooth="yes"/>
      <point x="-125" y="1457"/>
      <point x="-192" y="1502"/>
      <point x="-201" y="1573" type="curve" smooth="yes"/>
      <point x="-203" y="1588"/>
      <point x="-203" y="1603"/>
      <point x="-203" y="1616" type="curve"/>
      <point x="-339" y="1616" type="line"/>
      <point x="-342" y="1600"/>
      <point x="-344" y="1583"/>
      <point x="-344" y="1558" type="curve" smooth="yes"/>
      <point x="-344" y="1394"/>
      <point x="-198" y="1283"/>
    </contour>
    <contour>
      <point x="-9" y="1612" type="line"/>
      <point x="106" y="1667"/>
      <point x="266" y="1783"/>
      <point x="352" y="1882" type="curve"/>
      <point x="199" y="2022" type="line"/>
      <point x="-111" y="1698" type="line"/>
      <point x="-11" y="1612" type="line"/>
    </contour>
  </outline>
</glyph>
<glyph name="brevecomb_tildecomb.case" format="2">
  <anchor x="0" y="1486" name="_top"/>
  <anchor x="0" y="1958" name="top"/>
  <outline>
    <contour>
      <point x="0" y="1610" type="curve" smooth="yes"/>
      <point x="198" y="1610"/>
      <point x="344" y="1715"/>
      <point x="344" y="1879" type="curve" smooth="yes"/>
      <point x="344" y="1904"/>
      <point x="342" y="1921"/>
      <point x="339" y="1937" type="curve"/>
      <point x="203" y="1937" type="line"/>
      <point x="203" y="1924"/>
      <point x="203" y="1909"/>
      <point x="201" y="1894" type="curve" smooth="yes"/>
      <point x="192" y="1823"/>
      <point x="125" y="1784"/>
      <point x="0" y="1784" type="curve" smooth="yes"/>
      <point x="-125" y="1784"/>
      <point x="-192" y="1823"/>
      <point x="-201" y="1894" type="curve" smooth="yes"/>
      <point x="-203" y="1909"/>
      <point x="-203" y="1924"/>
      <point x="-203" y="1937" type="curve"/>
      <point x="-339" y="1937" type="line"/>
      <point x="-342" y="1921"/>
      <point x="-344" y="1904"/>
      <point x="-344" y="1879" type="curve" smooth="yes"/>
      <point x="-344" y="1715"/>
      <point x="-198" y="1610"/>
    </contour>
    <contour>
      <point x="135" y="2028" type="curve" smooth="yes"/>
      <point x="265" y="2028"/>
      <point x="329" y="2124"/>
      <point x="349" y="2233" type="curve"/>
      <point x="233" y="2275" type="line"/>
      <point x="216" y="2227"/>
      <point x="193" y="2192"/>
      <point x="145" y="2192" type="curve" smooth="yes"/>
      <point x="75" y="2192"/>
      <point x="-6" y="2298"/>
      <point x="-123" y="2298" type="curve" smooth="yes"/>
      <point x="-253" y="2298"/>
      <point x="-317" y="2202"/>
      <point x="-337" y="2093" type="curve"/>
      <point x="-221" y="2051" type="line"/>
      <point x="-204" y="2099"/>
      <point x="-181" y="2134"/>
      <point x="-133" y="2134" type="curve" smooth="yes"/>
      <point x="-63" y="2134"/>
      <point x="18" y="2028"/>
    </contour>
  </outline>
</glyph>
<glyph name="brevecomb_tildecomb" format="2">
  <anchor x="0" y="1110" name="_top"/>
  <anchor x="0" y="1713" name="top"/>
  <outline>
    <contour>
      <point x="0" y="1283" type="curve" smooth="yes"/>
      <point x="198" y="1283"/>
      <point x="344" y="1394"/>
      <point x="344" y="1558" type="curve" smooth="yes"/>
      <point x="344" y="1583"/>
      <point x="342" y="1600"/>
      <point x="339" y="1616" type="curve"/>
      <point x="203" y="1616" type="line"/>
      <point x="203" y="1603"/>
      <point x="203" y="1588"/>
      <point x="201" y="1573" type="curve" smooth="yes"/>
      <point x="192" y="1502"/>
      <point x="125" y="1457"/>
      <point x="0" y="1457" type="curve" smooth="yes"/>
      <point x="-125" y="1457"/>
      <point x="-192" y="1502"/>
      <point x="-201" y="1573" type="curve" smooth="yes"/>
      <point x="-203" y="1588"/>
      <point x="-203" y="1603"/>
      <point x="-203" y="1616" type="curve"/>
      <point x="-339" y="1616" type="line"/>
      <point x="-342" y="1600"/>
      <point x="-344" y="1583"/>
      <point x="-344" y="1558" type="curve" smooth="yes"/>
      <point x="-344" y="1394"/>
      <point x="-198" y="1283"/>
    </contour>
    <contour>
      <point x="135" y="1691" type="curve" smooth="yes"/>
      <point x="265" y="1691"/>
      <point x="329" y="1787"/>
      <point x="349" y="1896" type="curve"/>
      <point x="233" y="1938" type="line"/>
      <point x="216" y="1890"/>
      <point x="193" y="1855"/>
      <point x="145" y="1855" type="curve" smooth="yes"/>
      <point x="75" y="1855"/>
      <point x="-6" y="1961"/>
      <point x="-123" y="1961" type="curve" smooth="yes"/>
      <point x="-253" y="1961"/>
      <point x="-317" y="1865"/>
      <point x="-337" y="1756" type="curve"/>
      <point x="-221" y="1714" type="line"/>
      <point x="-204" y="1762"/>
      <point x="-181" y="1797"/>
      <point x="-133" y="1797" type="curve" smooth="yes"/>
      <point x="-63" y="1797"/>
      <point x="18" y="1691"/>
    </contour>
  </outline>
</glyph>
<glyph name="c.sc" format="2">
  <advance width="1326"/>
  <anchor x="700" y="0" name="bottom"/>
  <anchor x="703" y="-144" name="mark0"/>
  <anchor x="732" y="1287" name="top"/>
  <outline>
    <contour>
      <point x="751" y="-20" type="curve" smooth="yes"/>
      <point x="1012" y="-20"/>
      <point x="1091" y="35"/>
      <point x="1224" y="46" type="curve"/>
      <point x="1260" y="373" type="line"/>
      <point x="1069" y="391" type="line"/>
      <point x="980" y="169" type="line"/>
      <point x="947" y="142"/>
      <point x="882" y="117"/>
      <point x="772" y="117" type="curve" smooth="yes"/>
      <point x="542" y="117"/>
      <point x="441" y="333"/>
      <point x="441" y="656" type="curve" smooth="yes"/>
      <point x="441" y="1009"/>
      <point x="562" y="1172"/>
      <point x="766" y="1172" type="curve" smooth="yes"/>
      <point x="857" y="1172"/>
      <point x="939" y="1152"/>
      <point x="960" y="1135" type="curve"/>
      <point x="1028" y="848" type="line"/>
      <point x="1231" y="848" type="line"/>
      <point x="1255" y="1278" type="line"/>
      <point x="1113" y="1278"/>
      <point x="1004" y="1306"/>
      <point x="784" y="1306" type="curve" smooth="yes"/>
      <point x="334" y="1306"/>
      <point x="50" y="1060"/>
      <point x="50" y="629" type="curve" smooth="yes"/>
      <point x="50" y="238"/>
      <point x="265" y="-20"/>
    </contour>
  </outline>
</glyph>
<glyph name="cheabkhasian-cy.sc" format="2">
  <advance width="1782"/>
  <outline>
    <contour>
      <point x="1641" y="46" type="curve"/>
      <point x="1644" y="345" type="line"/>
      <point x="1413" y="358" type="line"/>
      <point x="1375" y="250" type="line"/>
      <point x="1330" y="177"/>
      <point x="1278" y="113"/>
      <point x="1107" y="113" type="curve" smooth="yes"/>
      <point x="880" y="113"/>
      <point x="756" y="296"/>
      <point x="743" y="565" type="curve"/>
      <point x="1687" y="563" type="line"/>
      <point x="1698" y="608"/>
      <point x="1706" y="725"/>
      <point x="1706" y="803" type="curve" smooth="yes"/>
      <point x="1706" y="1108"/>
      <point x="1456" y="1306"/>
      <point x="1110" y="1306" type="curve" smooth="yes"/>
      <point x="756" y="1306"/>
      <point x="439" y="1108"/>
      <point x="395" y="728" type="curve"/>
      <point x="280" y="728"/>
      <point x="260" y="763"/>
      <point x="260" y="816" type="curve" smooth="yes"/>
      <point x="260" y="841"/>
      <point x="298" y="930"/>
      <point x="316" y="948" type="curve"/>
      <point x="129" y="974" type="line"/>
      <point x="105" y="962"/>
      <point x="29" y="895"/>
      <point x="29" y="767" type="curve" smooth="yes"/>
      <point x="29" y="639"/>
      <point x="200" y="575"/>
      <point x="391" y="575" type="curve"/>
      <point x="406" y="173"/>
      <point x="688" y="-20"/>
      <point x="1073" y="-20" type="curve" smooth="yes"/>
      <point x="1369" y="-20"/>
      <point x="1525" y="44"/>
    </contour>
    <contour>
      <point x="1356" y="728" type="curve"/>
      <point x="739" y="728" type="line"/>
      <point x="748" y="1011"/>
      <point x="873" y="1142"/>
      <point x="1065" y="1142" type="curve" smooth="yes"/>
      <point x="1309" y="1142"/>
      <point x="1353" y="920"/>
      <point x="1357" y="777" type="curve" smooth="yes"/>
      <point x="1359" y="763"/>
      <point x="1357" y="744"/>
    </contour>
  </outline>
</glyph>
<glyph name="chedescender-cy.sc" format="2">
  <advance width="1609"/>
  <anchor x="1553" y="0" name="bottomright"/>
  <anchor x="787" y="1292" name="top"/>
  <outline>
    <contour>
      <point x="1177" y="153" type="line"/>
      <point x="1177" y="0" type="line"/>
      <point x="1246" y="0" type="line"/>
      <point x="1274" y="-56"/>
      <point x="1307" y="-305"/>
      <point x="1307" y="-372" type="curve"/>
      <point x="1496" y="-372" type="line"/>
      <point x="1504" y="-335"/>
      <point x="1548" y="5"/>
      <point x="1548" y="153" type="curve"/>
    </contour>
    <component base="che-cy.sc"/>
  </outline>
</glyph>
<glyph name="chedescenderabkhasian-cy.sc" format="2">
  <advance width="1782"/>
  <outline>
    <contour>
      <point x="1198" y="-6" type="curve"/>
      <point x="1044" y="-10" type="line"/>
      <point x="1064" y="-40"/>
      <point x="1091" y="-86"/>
      <point x="1091" y="-141" type="curve" smooth="yes"/>
      <point x="1091" y="-249"/>
      <point x="1042" y="-260"/>
      <point x="947" y="-260" type="curve" smooth="yes"/>
      <point x="929" y="-260"/>
      <point x="883" y="-256"/>
      <point x="858" y="-251" type="curve"/>
      <point x="858" y="-437" type="line"/>
      <point x="893" y="-451"/>
      <point x="963" y="-461"/>
      <point x="1005" y="-461" type="curve" smooth="yes"/>
      <point x="1195" y="-461"/>
      <point x="1309" y="-415"/>
      <point x="1317" y="-259" type="curve" smooth="yes"/>
      <point x="1324" y="-149"/>
      <point x="1255" y="-61"/>
    </contour>
    <component base="cheabkhasian-cy.sc"/>
  </outline>
</glyph>
<glyph name="chekhakassian-cy.sc" format="2">
  <advance width="1573"/>
  <anchor x="1553" y="0" name="bottomright"/>
  <anchor x="787" y="1292" name="top"/>
  <outline>
    <contour>
      <point x="1170" y="0" type="line"/>
      <point x="1170" y="163" type="line"/>
      <point x="750" y="163" type="line"/>
      <point x="736" y="-10"/>
      <point x="721" y="-287"/>
      <point x="721" y="-372" type="curve"/>
      <point x="916" y="-372" type="line"/>
      <point x="927" y="-326"/>
      <point x="1001" y="-75"/>
      <point x="1029" y="0" type="curve"/>
    </contour>
    <component base="che-cy.sc"/>
  </outline>
</glyph>
<glyph name="cheverticalstroke-cy.sc" format="2">
  <advance width="1699"/>
  <outline>
    <contour>
      <point x="1102" y="524" type="curve"/>
      <point x="1102" y="163" type="line"/>
      <point x="866" y="138" type="line"/>
      <point x="866" y="0" type="line"/>
      <point x="1622" y="0" type="line"/>
      <point x="1622" y="130" type="line"/>
      <point x="1455" y="153" type="line"/>
      <point x="1455" y="1126" type="line"/>
      <point x="1622" y="1151" type="line"/>
      <point x="1622" y="1292" type="line"/>
      <point x="922" y="1292" type="line"/>
      <point x="922" y="1151" type="line"/>
      <point x="1102" y="1126" type="line"/>
      <point x="1102" y="684" type="line"/>
      <point x="1069" y="668"/>
      <point x="992" y="652"/>
      <point x="903" y="641" type="curve"/>
      <point x="903" y="893" type="line"/>
      <point x="768" y="893" type="line"/>
      <point x="768" y="632" type="line"/>
      <point x="587" y="632"/>
      <point x="557" y="697"/>
      <point x="557" y="909" type="curve" smooth="yes"/>
      <point x="557" y="1126" type="line"/>
      <point x="726" y="1151" type="line"/>
      <point x="726" y="1292" type="line"/>
      <point x="88" y="1292" type="line"/>
      <point x="88" y="1151" type="line"/>
      <point x="206" y="1126" type="line"/>
      <point x="206" y="837" type="line" smooth="yes"/>
      <point x="206" y="558"/>
      <point x="339" y="448"/>
      <point x="689" y="448" type="curve" smooth="yes"/>
      <point x="709" y="448"/>
      <point x="744" y="448"/>
      <point x="768" y="450" type="curve"/>
      <point x="768" y="283" type="line"/>
      <point x="903" y="283" type="line"/>
      <point x="903" y="473" type="line"/>
      <point x="977" y="486"/>
      <point x="1049" y="504"/>
    </contour>
  </outline>
</glyph>
<glyph name="circumflexcomb.case" format="2">
  <anchor x="0" y="1486" name="_top"/>
  <anchor x="0" y="1960" name="top"/>
  <outline>
    <contour>
      <point x="-106" y="1982" type="line"/>
      <point x="-421" y="1695" type="line"/>
      <point x="-305" y="1597" type="line"/>
      <point x="0" y="1790" type="line"/>
      <point x="305" y="1597" type="line"/>
      <point x="421" y="1695" type="line"/>
      <point x="106" y="1982" type="line"/>
    </contour>
  </outline>
</glyph>
<glyph name="circumflexcomb_acutecomb" format="2">
  <anchor x="0" y="1110" name="_top"/>
  <anchor x="0" y="1726" name="top"/>
  <outline>
    <contour>
      <point x="-280" y="1263" type="line"/>
      <point x="0" y="1464" type="line"/>
      <point x="280" y="1263" type="line"/>
      <point x="383" y="1350" type="line"/>
      <point x="100" y="1647" type="line"/>
      <point x="-100" y="1647" type="line"/>
      <point x="-383" y="1350" type="line"/>
    </contour>
    <contour>
      <point x="353" y="1546" type="line"/>
      <point x="468" y="1601"/>
      <point x="628" y="1717"/>
      <point x="714" y="1816" type="curve"/>
      <point x="561" y="1956" type="line"/>
      <point x="251" y="1632" type="line"/>
      <point x="351" y="1546" type="line"/>
    </contour>
  </outline>
</glyph>
<glyph name="commaturnedabovecomb.case" format="2">
  <anchor x="0" y="1111" name="_top"/>
  <anchor x="0" y="1729" name="top"/>
  <outline>
    <contour>
      <point x="-1" y="1283" type="curve" smooth="yes"/>
      <point x="3" y="1283" type="line" smooth="yes"/>
      <point x="69" y="1283"/>
      <point x="157" y="1316"/>
      <point x="157" y="1412" type="curve" smooth="yes"/>
      <point x="157" y="1458"/>
      <point x="137" y="1477"/>
      <point x="113" y="1497" type="curve" smooth="yes"/>
      <point x="91" y="1516"/>
      <point x="71" y="1535"/>
      <point x="71" y="1580" type="curve" smooth="yes"/>
      <point x="71" y="1624"/>
      <point x="93" y="1673"/>
      <point x="123" y="1692" type="curve"/>
      <point x="119" y="1707" type="line"/>
      <point x="16" y="1748" type="line"/>
      <point x="12" y="1748" type="line"/>
      <point x="-35" y="1710"/>
      <point x="-157" y="1594"/>
      <point x="-157" y="1445" type="curve" smooth="yes"/>
      <point x="-157" y="1339"/>
      <point x="-93" y="1283"/>
    </contour>
  </outline>
</glyph>
<glyph name="d.sc" format="2">
  <advance width="1494"/>
  <anchor x="744" y="0" name="bottom"/>
  <anchor x="744" y="648" name="center"/>
  <anchor x="776" y="-144" name="mark0"/>
  <anchor x="744" y="1286" name="top"/>
  <outline>
    <contour>
      <point x="209" y="145" type="line"/>
      <point x="74" y="126" type="line"/>
      <point x="74" y="0" type="line"/>
      <point x="402" y="0" type="line" smooth="yes"/>
      <point x="494" y="0"/>
      <point x="628" y="-12"/>
      <point x="732" y="-14" type="curve" smooth="yes"/>
      <point x="1200" y="-22"/>
      <point x="1444" y="296"/>
      <point x="1444" y="694" type="curve" smooth="yes"/>
      <point x="1444" y="1086"/>
      <point x="1234" y="1304"/>
      <point x="760" y="1304" type="curve" smooth="yes"/>
      <point x="602" y="1304"/>
      <point x="505" y="1292"/>
      <point x="400" y="1292" type="curve" smooth="yes"/>
      <point x="74" y="1292" type="line"/>
      <point x="74" y="1158" type="line"/>
      <point x="209" y="1134" type="line"/>
    </contour>
    <contour>
      <point x="553" y="140" type="curve"/>
      <point x="553" y="1160" type="line"/>
      <point x="571" y="1162"/>
      <point x="628" y="1174"/>
      <point x="692" y="1174" type="curve" smooth="yes"/>
      <point x="962" y="1174"/>
      <point x="1062" y="944"/>
      <point x="1062" y="648" type="curve" smooth="yes"/>
      <point x="1062" y="278"/>
      <point x="930" y="124"/>
      <point x="714" y="124" type="curve" smooth="yes"/>
      <point x="662" y="124"/>
      <point x="595" y="128"/>
    </contour>
  </outline>
</glyph>
<glyph name="dblgravecomb.case" format="2">
  <anchor x="0" y="1486" name="_top"/>
  <anchor x="0" y="1965" name="top"/>
  <outline>
    <contour>
      <point x="85" y="2044" type="line"/>
      <point x="-67" y="1904" type="line"/>
      <point x="-3" y="1800"/>
      <point x="151" y="1665"/>
      <point x="271" y="1597" type="curve"/>
      <point x="273" y="1597" type="line"/>
      <point x="387" y="1695" type="line"/>
    </contour>
    <contour>
      <point x="-418" y="2044" type="line"/>
      <point x="-570" y="1904" type="line"/>
      <point x="-506" y="1800"/>
      <point x="-352" y="1665"/>
      <point x="-232" y="1597" type="curve"/>
      <point x="-230" y="1597" type="line"/>
      <point x="-116" y="1695" type="line"/>
    </contour>
  </outline>
</glyph>
<glyph name="dieresiscomb.case" format="2">
  <anchor x="0" y="1486" name="_top"/>
  <anchor x="0" y="1858" name="top"/>
  <outline>
    <contour>
      <point x="-278" y="1610" type="curve" smooth="yes"/>
      <point x="-276" y="1610" type="line" smooth="yes"/>
      <point x="-161" y="1610"/>
      <point x="-106" y="1696"/>
      <point x="-106" y="1801" type="curve" smooth="yes"/>
      <point x="-106" y="1884"/>
      <point x="-156" y="1963"/>
      <point x="-258" y="1963" type="curve" smooth="yes"/>
      <point x="-260" y="1963" type="line" smooth="yes"/>
      <point x="-375" y="1963"/>
      <point x="-430" y="1877"/>
      <point x="-430" y="1772" type="curve" smooth="yes"/>
      <point x="-430" y="1689"/>
      <point x="-380" y="1610"/>
    </contour>
    <contour>
      <point x="258" y="1610" type="curve" smooth="yes"/>
      <point x="260" y="1610" type="line" smooth="yes"/>
      <point x="375" y="1610"/>
      <point x="430" y="1696"/>
      <point x="430" y="1801" type="curve" smooth="yes"/>
      <point x="430" y="1884"/>
      <point x="380" y="1963"/>
      <point x="278" y="1963" type="curve" smooth="yes"/>
      <point x="276" y="1963" type="line" smooth="yes"/>
      <point x="161" y="1963"/>
      <point x="106" y="1877"/>
      <point x="106" y="1772" type="curve" smooth="yes"/>
      <point x="106" y="1689"/>
      <point x="156" y="1610"/>
    </contour>
  </outline>
</glyph>
<glyph name="dje-cy.sc" format="2">
  <advance width="1887"/>
  <outline>
    <contour>
      <point x="959" y="682" type="curve"/>
      <point x="959" y="1149" type="line"/>
      <point x="1301" y="1127" type="line"/>
      <point x="1364" y="869" type="line"/>
      <point x="1557" y="869" type="line"/>
      <point x="1533" y="1292" type="line"/>
      <point x="94" y="1292" type="line"/>
      <point x="64" y="869" type="line"/>
      <point x="255" y="869" type="line"/>
      <point x="320" y="1127" type="line"/>
      <point x="604" y="1149" type="line"/>
      <point x="604" y="163" type="line"/>
      <point x="308" y="138" type="line"/>
      <point x="308" y="0" type="line"/>
      <point x="1225" y="0" type="line"/>
      <point x="1225" y="138" type="line"/>
      <point x="959" y="163" type="line"/>
      <point x="959" y="524" type="line"/>
      <point x="1020" y="555"/>
      <point x="1108" y="585"/>
      <point x="1216" y="585" type="curve" smooth="yes"/>
      <point x="1403" y="585"/>
      <point x="1470" y="470"/>
      <point x="1470" y="240" type="curve" smooth="yes"/>
      <point x="1470" y="-50"/>
      <point x="1384" y="-203"/>
      <point x="1205" y="-203" type="curve" smooth="yes"/>
      <point x="1140" y="-203"/>
      <point x="1077" y="-189"/>
      <point x="1056" y="-181" type="curve"/>
      <point x="1070" y="-329" type="line"/>
      <point x="1100" y="-340"/>
      <point x="1170" y="-363"/>
      <point x="1259" y="-363" type="curve" smooth="yes"/>
      <point x="1602" y="-363"/>
      <point x="1831" y="-162"/>
      <point x="1831" y="266" type="curve" smooth="yes"/>
      <point x="1831" y="568"/>
      <point x="1628" y="752"/>
      <point x="1318" y="752" type="curve" smooth="yes"/>
      <point x="1189" y="752"/>
      <point x="1020" y="706"/>
    </contour>
  </outline>
</glyph>
<glyph name="dzhe-cy.sc" format="2">
  <advance width="1755"/>
  <outline>
    <contour>
      <point x="1040" y="0" type="curve"/>
      <point x="1671" y="0" type="line"/>
      <point x="1671" y="132" type="line"/>
      <point x="1505" y="151" type="line"/>
      <point x="1505" y="1126" type="line"/>
      <point x="1662" y="1151" type="line"/>
      <point x="1662" y="1292" type="line"/>
      <point x="978" y="1292" type="line"/>
      <point x="978" y="1151" type="line"/>
      <point x="1155" y="1126" type="line"/>
      <point x="1155" y="137" type="line"/>
      <point x="602" y="137" type="line"/>
      <point x="602" y="1126" type="line"/>
      <point x="783" y="1151" type="line"/>
      <point x="783" y="1292" type="line"/>
      <point x="91" y="1292" type="line"/>
      <point x="91" y="1151" type="line"/>
      <point x="251" y="1126" type="line"/>
      <point x="251" y="153" type="line"/>
      <point x="86" y="132" type="line"/>
      <point x="86" y="0" type="line"/>
      <point x="720" y="0" type="line"/>
      <point x="733" y="-24"/>
      <point x="779" y="-247"/>
      <point x="779" y="-376" type="curve"/>
      <point x="986" y="-376" type="line"/>
      <point x="989" y="-253"/>
      <point x="1021" y="-18"/>
    </contour>
  </outline>
</glyph>
<glyph name="e-cy.sc" format="2">
  <advance width="1449"/>
  <outline>
    <contour>
      <point x="1336" y="46" type="curve"/>
      <point x="1350" y="372" type="line"/>
      <point x="1152" y="373" type="line"/>
      <point x="1064" y="166" type="line"/>
      <point x="1031" y="146"/>
      <point x="979" y="115"/>
      <point x="846" y="115" type="curve" smooth="yes"/>
      <point x="615" y="115"/>
      <point x="488" y="314"/>
      <point x="466" y="568" type="curve"/>
      <point x="1058" y="556" type="line"/>
      <point x="1058" y="749" type="line"/>
      <point x="463" y="736" type="line"/>
      <point x="481" y="1052"/>
      <point x="644" y="1177"/>
      <point x="863" y="1177" type="curve" smooth="yes"/>
      <point x="975" y="1177"/>
      <point x="1006" y="1152"/>
      <point x="1036" y="1127" type="curve"/>
      <point x="1094" y="876" type="line"/>
      <point x="1326" y="876" type="line"/>
      <point x="1348" y="1253" type="line"/>
      <point x="1246" y="1262"/>
      <point x="1092" y="1306"/>
      <point x="887" y="1306" type="curve" smooth="yes"/>
      <point x="393" y="1306"/>
      <point x="70" y="1062"/>
      <point x="70" y="633" type="curve" smooth="yes"/>
      <point x="70" y="250"/>
      <point x="330" y="-20"/>
      <point x="815" y="-20" type="curve" smooth="yes"/>
      <point x="1096" y="-20"/>
      <point x="1216" y="41"/>
    </contour>
  </outline>
</glyph>
<glyph name="e.sc" format="2">
  <advance width="1304"/>
  <anchor x="646" y="0" name="bottom"/>
  <anchor x="686" y="-144" name="mark0"/>
  <anchor x="1152" y="18" name="ogonek"/>
  <anchor x="670" y="1286" name="top"/>
  <anchor x="54" y="1292" name="topleft"/>
  <outline>
    <contour>
      <point x="209" y="144" type="line"/>
      <point x="74" y="126" type="line"/>
      <point x="74" y="0" type="line"/>
      <point x="1255" y="0" type="line"/>
      <point x="1293" y="366" type="line"/>
      <point x="1123" y="404" type="line"/>
      <point x="1011" y="156" type="line"/>
      <point x="554" y="130" type="line"/>
      <point x="554" y="584" type="line"/>
      <point x="812" y="578" type="line"/>
      <point x="846" y="426" type="line"/>
      <point x="980" y="426" type="line"/>
      <point x="980" y="878" type="line"/>
      <point x="846" y="878" type="line"/>
      <point x="812" y="736" type="line"/>
      <point x="554" y="732" type="line"/>
      <point x="554" y="1168" type="line"/>
      <point x="974" y="1148" type="line"/>
      <point x="1040" y="970" type="line"/>
      <point x="1198" y="970" type="line"/>
      <point x="1172" y="1292" type="line"/>
      <point x="74" y="1292" type="line"/>
      <point x="74" y="1158" type="line"/>
      <point x="209" y="1132" type="line"/>
    </contour>
  </outline>
</glyph>
<glyph name="ef-cy.sc" format="2">
  <advance width="1847"/>
  <outline>
    <contour>
      <point x="1092" y="1072" type="curve"/>
      <point x="1092" y="1170" type="line"/>
      <point x="1268" y="1198" type="line"/>
      <point x="1268" y="1331" type="line"/>
      <point x="573" y="1331" type="line"/>
      <point x="573" y="1198" type="line"/>
      <point x="753" y="1170" type="line"/>
      <point x="753" y="1070" type="line"/>
      <point x="243" y="1065"/>
      <point x="48" y="899"/>
      <point x="48" y="654" type="curve" smooth="yes"/>
      <point x="48" y="423"/>
      <point x="156" y="223"/>
      <point x="753" y="232" type="curve"/>
      <point x="753" y="120" type="line"/>
      <point x="574" y="101" type="line"/>
      <point x="574" y="-36" type="line"/>
      <point x="1272" y="-36" type="line"/>
      <point x="1272" y="103" type="line"/>
      <point x="1092" y="116" type="line"/>
      <point x="1092" y="231" type="line"/>
      <point x="1558" y="224"/>
      <point x="1799" y="391"/>
      <point x="1799" y="644" type="curve" smooth="yes"/>
      <point x="1799" y="884"/>
      <point x="1693" y="1076"/>
    </contour>
    <contour>
      <point x="753" y="962" type="curve"/>
      <point x="753" y="341" type="line"/>
      <point x="471" y="370"/>
      <point x="416" y="512"/>
      <point x="416" y="662" type="curve" smooth="yes"/>
      <point x="416" y="839"/>
      <point x="466" y="950"/>
    </contour>
    <contour>
      <point x="1092" y="335" type="curve"/>
      <point x="1092" y="958" type="line"/>
      <point x="1382" y="927"/>
      <point x="1430" y="788"/>
      <point x="1430" y="642" type="curve" smooth="yes"/>
      <point x="1430" y="465"/>
      <point x="1376" y="349"/>
    </contour>
  </outline>
</glyph>
<glyph name="eight.sc" format="2">
  <advance width="1230"/>
  <outline>
    <contour>
      <point x="76" y="316" type="curve" smooth="yes"/>
      <point x="76" y="74"/>
      <point x="353" y="-20"/>
      <point x="642" y="-20" type="curve" smooth="yes"/>
      <point x="961" y="-20"/>
      <point x="1242" y="84"/>
      <point x="1242" y="359" type="curve" smooth="yes"/>
      <point x="1242" y="528"/>
      <point x="1082" y="668"/>
      <point x="888" y="744" type="curve"/>
      <point x="1068" y="806"/>
      <point x="1160" y="899"/>
      <point x="1160" y="1019" type="curve" smooth="yes"/>
      <point x="1160" y="1183"/>
      <point x="992" y="1311"/>
      <point x="672" y="1311" type="curve" smooth="yes"/>
      <point x="387" y="1311"/>
      <point x="149" y="1190"/>
      <point x="149" y="947" type="curve" smooth="yes"/>
      <point x="149" y="806"/>
      <point x="241" y="676"/>
      <point x="388" y="620" type="curve"/>
      <point x="179" y="556"/>
      <point x="76" y="438"/>
    </contour>
    <contour>
      <point x="458" y="1038" type="curve" smooth="yes"/>
      <point x="458" y="1140"/>
      <point x="564" y="1190"/>
      <point x="673" y="1190" type="curve" smooth="yes"/>
      <point x="822" y="1190"/>
      <point x="905" y="1114"/>
      <point x="905" y="982" type="curve" smooth="yes"/>
      <point x="905" y="914"/>
      <point x="852" y="842"/>
      <point x="768" y="791" type="curve"/>
      <point x="589" y="858"/>
      <point x="458" y="933"/>
    </contour>
    <contour>
      <point x="889" y="278" type="curve" smooth="yes"/>
      <point x="889" y="175"/>
      <point x="765" y="108"/>
      <point x="647" y="108" type="curve" smooth="yes"/>
      <point x="464" y="108"/>
      <point x="359" y="217"/>
      <point x="359" y="361" type="curve" smooth="yes"/>
      <point x="359" y="443"/>
      <point x="418" y="522"/>
      <point x="498" y="571" type="curve"/>
      <point x="690" y="490"/>
      <point x="889" y="409"/>
    </contour>
  </outline>
</glyph>
<glyph name="el-cy.loclBGR" format="2">
  <advance width="1220"/>
  <outline>
    <contour>
      <point x="473" y="1111" type="line"/>
      <point x="108" y="152" type="line"/>
      <point x="6" y="128" type="line"/>
      <point x="6" y="0" type="line"/>
      <point x="468" y="0" type="line"/>
      <point x="468" y="128" type="line"/>
      <point x="344" y="152" type="line"/>
      <point x="510" y="666" type="line"/>
      <point x="553" y="846" type="line"/>
      <point x="604" y="664" type="line"/>
      <point x="772" y="152" type="line"/>
      <point x="648" y="128" type="line"/>
      <point x="648" y="0" type="line"/>
      <point x="1214" y="0" type="line"/>
      <point x="1214" y="128" type="line"/>
      <point x="1136" y="152" type="line"/>
      <point x="740" y="1111" type="line"/>
    </contour>
  </outline>
</glyph>
<glyph name="el-cy.sc" format="2">
  <advance width="1663"/>
  <outline>
    <contour>
      <point x="653" y="1018" type="curve" smooth="yes"/>
      <point x="653" y="1123" type="line"/>
      <point x="1034" y="1123" type="line"/>
      <point x="1034" y="153" type="line"/>
      <point x="815" y="132" type="line"/>
      <point x="815" y="0" type="line"/>
      <point x="1585" y="0" type="line"/>
      <point x="1585" y="132" type="line"/>
      <point x="1383" y="151" type="line"/>
      <point x="1383" y="1126" type="line"/>
      <point x="1576" y="1151" type="line"/>
      <point x="1576" y="1292" type="line"/>
      <point x="228" y="1292" type="line"/>
      <point x="228" y="1151" type="line"/>
      <point x="487" y="1126" type="line"/>
      <point x="487" y="1076" type="line" smooth="yes"/>
      <point x="487" y="595"/>
      <point x="435" y="374"/>
      <point x="357" y="252" type="curve"/>
      <point x="321" y="187"/>
      <point x="287" y="175"/>
      <point x="229" y="175" type="curve" smooth="yes"/>
      <point x="154" y="175"/>
      <point x="113" y="177"/>
      <point x="66" y="181" type="curve"/>
      <point x="88" y="0" type="line"/>
      <point x="129" y="-9"/>
      <point x="186" y="-13"/>
      <point x="257" y="-13" type="curve" smooth="yes"/>
      <point x="366" y="-13"/>
      <point x="447" y="35"/>
      <point x="505" y="129" type="curve" smooth="yes"/>
      <point x="608" y="296"/>
      <point x="653" y="672"/>
    </contour>
  </outline>
</glyph>
<glyph name="eldescender-cy.sc" format="2">
  <advance width="1677"/>
  <outline>
    <contour>
      <point x="1248" y="153" type="line"/>
      <point x="1248" y="0" type="line"/>
      <point x="1317" y="0" type="line"/>
      <point x="1345" y="-56"/>
      <point x="1378" y="-305"/>
      <point x="1378" y="-372" type="curve"/>
      <point x="1567" y="-372" type="line"/>
      <point x="1575" y="-335"/>
      <point x="1619" y="5"/>
      <point x="1619" y="153" type="curve"/>
    </contour>
    <component base="el-cy.sc"/>
  </outline>
</glyph>
<glyph name="eltail-cy.sc" format="2">
  <advance width="1663"/>
  <outline>
    <contour>
      <point x="1204" y="149" type="line"/>
      <point x="1204" y="0" type="line"/>
      <point x="1333" y="0" type="line"/>
      <point x="1311" y="-64"/>
      <point x="1246" y="-254"/>
      <point x="1204" y="-376" type="curve"/>
      <point x="1395" y="-376" type="line"/>
      <point x="1424" y="-327"/>
      <point x="1544" y="-110"/>
      <point x="1606" y="0" type="curve"/>
      <point x="1606" y="149" type="line"/>
    </contour>
    <component base="el-cy.sc"/>
  </outline>
</glyph>
<glyph name="emtail-cy.sc" format="2">
  <advance width="2203"/>
  <outline>
    <contour>
      <point x="2215" y="0" type="curve"/>
      <point x="2215" y="136" type="line"/>
      <point x="2030" y="136" type="line"/>
      <point x="1843" y="1126" type="line"/>
      <point x="2062" y="1151" type="line"/>
      <point x="2062" y="1292" type="line"/>
      <point x="1374" y="1292" type="line"/>
      <point x="1153" y="544" type="line"/>
      <point x="1112" y="368" type="line"/>
      <point x="1066" y="544" type="line"/>
      <point x="819" y="1292" type="line"/>
      <point x="142" y="1292" type="line"/>
      <point x="142" y="1151" type="line"/>
      <point x="344" y="1126" type="line"/>
      <point x="178" y="153" type="line"/>
      <point x="3" y="132" type="line"/>
      <point x="3" y="0" type="line"/>
      <point x="605" y="0" type="line"/>
      <point x="605" y="132" type="line"/>
      <point x="396" y="153" type="line"/>
      <point x="480" y="884" type="line"/>
      <point x="510" y="1174" type="line"/>
      <point x="598" y="886" type="line"/>
      <point x="911" y="-14" type="line"/>
      <point x="1177" y="-14" type="line"/>
      <point x="1455" y="911" type="line"/>
      <point x="1515" y="1161" type="line"/>
      <point x="1558" y="884" type="line"/>
      <point x="1658" y="153" type="line"/>
      <point x="1484" y="132" type="line"/>
      <point x="1484" y="0" type="line"/>
      <point x="1944" y="0" type="line"/>
      <point x="1927" y="-81"/>
      <point x="1854" y="-274"/>
      <point x="1828" y="-376" type="curve"/>
      <point x="2016" y="-376" type="line"/>
      <point x="2044" y="-318"/>
      <point x="2156" y="-151"/>
    </contour>
  </outline>
</glyph>
<glyph name="enghe-cy.sc" format="2">
  <advance width="2139"/>
  <outline>
    <contour>
      <point x="91" y="1292" type="line"/>
      <point x="91" y="1151" type="line"/>
      <point x="250" y="1127" type="line"/>
      <point x="250" y="151" type="line"/>
      <point x="88" y="132" type="line"/>
      <point x="88" y="0" type="line"/>
      <point x="779" y="0" type="line"/>
      <point x="779" y="132" type="line"/>
      <point x="604" y="153" type="line"/>
      <point x="604" y="569" type="line"/>
      <point x="1184" y="569" type="line"/>
      <point x="1184" y="153" type="line"/>
      <point x="1023" y="132" type="line"/>
      <point x="1023" y="0" type="line"/>
      <point x="1716" y="0" type="line"/>
      <point x="1716" y="132" type="line"/>
      <point x="1537" y="153" type="line"/>
      <point x="1537" y="1146" type="line"/>
      <point x="1795" y="1125" type="line"/>
      <point x="1875" y="751" type="line"/>
      <point x="2079" y="751" type="line"/>
      <point x="2045" y="1292" type="line"/>
      <point x="1020" y="1292" type="line"/>
      <point x="1020" y="1151" type="line"/>
      <point x="1184" y="1126" type="line"/>
      <point x="1184" y="742" type="line"/>
      <point x="604" y="742" type="line"/>
      <point x="604" y="1126" type="line"/>
      <point x="779" y="1151" type="line"/>
      <point x="779" y="1292" type="line"/>
    </contour>
  </outline>
</glyph>
<glyph name="esdescender-cy.loclBSH" format="2">
  <advance width="1054"/>
  <anchor x="554" y="0" name="bottom"/>
  <anchor x="571" y="-166" name="mark0"/>
  <anchor x="570" y="1111" name="top"/>
  <outline>
    <contour>
      <point x="645" y="-17" type="curve"/>
      <point x="495" y="-18" type="line"/>
      <point x="525" y="-59"/>
      <point x="547" y="-116"/>
      <point x="547" y="-180" type="curve"/>
      <point x="431" y="-342" type="line"/>
      <point x="440" y="-415"/>
      <point x="499" y="-468"/>
      <point x="589" y="-468" type="curve" smooth="yes"/>
      <point x="683" y="-468"/>
      <point x="758" y="-398"/>
      <point x="758" y="-284" type="curve" smooth="yes"/>
      <point x="758" y="-186"/>
      <point x="707" y="-91"/>
    </contour>
    <component base="c"/>
  </outline>
</glyph>
<glyph name="esdescender-cy.loclBSH.sc" format="2">
  <advance width="1284"/>
  <anchor x="700" y="0" name="bottom"/>
  <anchor x="703" y="-144" name="mark0"/>
  <anchor x="732" y="1287" name="top"/>
  <outline>
    <contour>
      <point x="812" y="-17" type="curve"/>
      <point x="650" y="-17" type="line"/>
      <point x="688" y="-61"/>
      <point x="711" y="-123"/>
      <point x="711" y="-180" type="curve"/>
      <point x="593" y="-341" type="line"/>
      <point x="602" y="-415"/>
      <point x="659" y="-475"/>
      <point x="759" y="-475" type="curve" smooth="yes"/>
      <point x="855" y="-475"/>
      <point x="938" y="-412"/>
      <point x="938" y="-297" type="curve" smooth="yes"/>
      <point x="938" y="-190"/>
      <point x="877" y="-88"/>
    </contour>
    <component base="c.sc"/>
  </outline>
</glyph>
<glyph name="f.sc" format="2">
  <advance width="1250"/>
  <anchor x="616" y="0" name="bottom"/>
  <anchor x="634" y="-144" name="mark0"/>
  <anchor x="658" y="1286" name="top"/>
  <outline>
    <contour>
      <point x="224" y="146" type="line"/>
      <point x="82" y="126" type="line"/>
      <point x="82" y="0" type="line"/>
      <point x="862" y="0" type="line"/>
      <point x="862" y="126" type="line"/>
      <point x="570" y="146" type="line"/>
      <point x="570" y="546" type="line"/>
      <point x="808" y="540" type="line"/>
      <point x="848" y="374" type="line"/>
      <point x="986" y="374" type="line"/>
      <point x="986" y="862" type="line"/>
      <point x="846" y="862" type="line"/>
      <point x="808" y="700" type="line"/>
      <point x="570" y="696" type="line"/>
      <point x="570" y="1168" type="line"/>
      <point x="922" y="1142" type="line"/>
      <point x="1002" y="956" type="line"/>
      <point x="1180" y="956" type="line"/>
      <point x="1160" y="1292" type="line"/>
      <point x="74" y="1292" type="line"/>
      <point x="74" y="1158" type="line"/>
      <point x="224" y="1132" type="line"/>
    </contour>
  </outline>
</glyph>
<glyph name="fita-cy.sc" format="2">
  <advance width="1498"/>
  <outline>
    <contour>
      <point x="739" y="-20" type="curve" smooth="yes"/>
      <point x="1159" y="-19"/>
      <point x="1430" y="269"/>
      <point x="1430" y="674" type="curve" smooth="yes"/>
      <point x="1430" y="1057"/>
      <point x="1239" y="1309"/>
      <point x="761" y="1311" type="curve" smooth="yes"/>
      <point x="344" y="1313"/>
      <point x="68" y="1051"/>
      <point x="68" y="648" type="curve" smooth="yes"/>
      <point x="68" y="249"/>
      <point x="268" y="-21"/>
    </contour>
    <contour>
      <point x="747" y="113" type="curve" smooth="yes"/>
      <point x="568" y="113"/>
      <point x="456" y="233"/>
      <point x="441" y="597" type="curve"/>
      <point x="470" y="614"/>
      <point x="511" y="626"/>
      <point x="567" y="626" type="curve" smooth="yes"/>
      <point x="673" y="626"/>
      <point x="753" y="538"/>
      <point x="895" y="538" type="curve" smooth="yes"/>
      <point x="963" y="538"/>
      <point x="1015" y="544"/>
      <point x="1054" y="559" type="curve"/>
      <point x="1043" y="267"/>
      <point x="933" y="113"/>
    </contour>
    <contour>
      <point x="445" y="768" type="curve"/>
      <point x="457" y="1048"/>
      <point x="571" y="1181"/>
      <point x="753" y="1181" type="curve" smooth="yes"/>
      <point x="926" y="1181"/>
      <point x="1039" y="1083"/>
      <point x="1053" y="724" type="curve"/>
      <point x="1028" y="713"/>
      <point x="994" y="705"/>
      <point x="935" y="705" type="curve" smooth="yes"/>
      <point x="826" y="705"/>
      <point x="747" y="794"/>
      <point x="605" y="794" type="curve" smooth="yes"/>
      <point x="543" y="794"/>
      <point x="487" y="786"/>
    </contour>
  </outline>
</glyph>
<glyph name="five.tosf" format="2">
  <advance width="1298"/>
  <outline>
    <contour>
      <point x="123" y="-163" type="curve"/>
      <point x="123" y="-308" type="line"/>
      <point x="173" y="-319"/>
      <point x="229" y="-322"/>
      <point x="277" y="-322" type="curve" smooth="yes"/>
      <point x="784" y="-322"/>
      <point x="1133" y="-73"/>
      <point x="1133" y="300" type="curve" smooth="yes"/>
      <point x="1133" y="544"/>
      <point x="985" y="697"/>
      <point x="698" y="697" type="curve" smooth="yes"/>
      <point x="536" y="697"/>
      <point x="412" y="646"/>
      <point x="350" y="618" type="curve"/>
      <point x="436" y="1002" type="line"/>
      <point x="1027" y="1002" type="line"/>
      <point x="1072" y="1279" type="line"/>
      <point x="926" y="1279" type="line"/>
      <point x="906" y="1241" type="line"/>
      <point x="225" y="1241" type="line"/>
      <point x="120" y="493" type="line"/>
      <point x="201" y="442" type="line"/>
      <point x="272" y="471"/>
      <point x="375" y="498"/>
      <point x="478" y="498" type="curve" smooth="yes"/>
      <point x="658" y="498"/>
      <point x="774" y="437"/>
      <point x="774" y="243" type="curve" smooth="yes"/>
      <point x="774" y="19"/>
      <point x="542" y="-167"/>
      <point x="250" y="-167" type="curve" smooth="yes"/>
      <point x="210" y="-167"/>
      <point x="165" y="-165"/>
    </contour>
  </outline>
</glyph>
<glyph name="four.dnom" format="2">
  <advance width="912"/>
  <outline>
    <contour>
      <point x="490" y="0" type="line"/>
      <point x="725" y="0" type="line"/>
      <point x="725" y="186" type="line"/>
      <point x="875" y="186" type="line"/>
      <point x="875" y="367" type="line"/>
      <point x="725" y="359" type="line"/>
      <point x="725" y="574" type="line"/>
      <point x="523" y="572" type="line"/>
      <point x="496" y="355" type="line"/>
      <point x="212" y="332" type="line"/>
      <point x="299" y="411" type="line"/>
      <point x="637" y="888" type="line"/>
      <point x="584" y="942" type="line"/>
      <point x="356" y="942" type="line"/>
      <point x="289" y="784"/>
      <point x="107" y="458"/>
      <point x="17" y="327" type="curve"/>
      <point x="69" y="186" type="line"/>
      <point x="490" y="186" type="line"/>
    </contour>
  </outline>
</glyph>
<glyph name="four.osf" format="2">
  <advance width="1449"/>
  <outline>
    <contour>
      <point x="837" y="-321" type="line"/>
      <point x="1156" y="-321" type="line"/>
      <point x="1156" y="0" type="line"/>
      <point x="1404" y="0" type="line"/>
      <point x="1404" y="226" type="line"/>
      <point x="1156" y="212" type="line"/>
      <point x="1156" y="580" type="line"/>
      <point x="870" y="562" type="line"/>
      <point x="839" y="192" type="line"/>
      <point x="354" y="164" type="line"/>
      <point x="456" y="299" type="line"/>
      <point x="993" y="1288" type="line"/>
      <point x="757" y="1399" type="line"/>
      <point x="667" y="1399" type="line"/>
      <point x="544" y="1122"/>
      <point x="211" y="385"/>
      <point x="50" y="114" type="curve"/>
      <point x="133" y="0" type="line"/>
      <point x="837" y="0" type="line"/>
    </contour>
  </outline>
</glyph>
<glyph name="four.sc" format="2">
  <advance width="1286"/>
  <outline>
    <contour>
      <point x="774" y="0" type="line"/>
      <point x="1051" y="0" type="line"/>
      <point x="1051" y="279" type="line"/>
      <point x="1275" y="279" type="line"/>
      <point x="1275" y="496" type="line"/>
      <point x="1051" y="484" type="line"/>
      <point x="1051" y="740" type="line"/>
      <point x="805" y="723" type="line"/>
      <point x="776" y="464" type="line"/>
      <point x="312" y="440" type="line"/>
      <point x="418" y="561" type="line"/>
      <point x="880" y="1176" type="line"/>
      <point x="614" y="1310" type="line"/>
      <point x="545" y="1310" type="line"/>
      <point x="440" y="1075"/>
      <point x="177" y="599"/>
      <point x="38" y="387" type="curve"/>
      <point x="112" y="279" type="line"/>
      <point x="774" y="279" type="line"/>
    </contour>
  </outline>
</glyph>
<glyph name="four.tosf" format="2">
  <advance width="1298"/>
  <outline>
    <contour>
      <point x="778" y="-321" type="line"/>
      <point x="1063" y="-321" type="line"/>
      <point x="1063" y="0" type="line"/>
      <point x="1328" y="0" type="line"/>
      <point x="1328" y="226" type="line"/>
      <point x="1063" y="212" type="line"/>
      <point x="1063" y="580" type="line"/>
      <point x="808" y="562" type="line"/>
      <point x="780" y="192" type="line"/>
      <point x="263" y="164" type="line"/>
      <point x="354" y="299" type="line"/>
      <point x="913" y="1288" type="line"/>
      <point x="701" y="1399" type="line"/>
      <point x="620" y="1399" type="line"/>
      <point x="506" y="1122"/>
      <point x="135" y="385"/>
      <point x="-10" y="114" type="curve"/>
      <point x="65" y="0" type="line"/>
      <point x="778" y="0" type="line"/>
    </contour>
  </outline>
</glyph>
<glyph name="gedescender-cy.sc" format="2">
  <advance width="1293"/>
  <anchor x="1296" y="0" name="bottomright"/>
  <anchor x="667" y="1292" name="top"/>
  <outline>
    <contour>
      <point x="485" y="153" type="line"/>
      <point x="485" y="0" type="line"/>
      <point x="738" y="0" type="line"/>
      <point x="766" y="-56"/>
      <point x="799" y="-305"/>
      <point x="799" y="-372" type="curve"/>
      <point x="988" y="-372" type="line"/>
      <point x="996" y="-335"/>
      <point x="1040" y="5"/>
      <point x="1040" y="153" type="curve"/>
    </contour>
    <component base="ge-cy.sc"/>
  </outline>
</glyph>
<glyph name="gestrokehook-cy.sc" format="2">
  <advance width="1298"/>
  <anchor x="1296" y="0" name="bottomright"/>
  <anchor x="667" y="1292" name="top"/>
  <outline>
    <contour>
      <point x="484" y="163" type="line"/>
      <point x="484" y="0" type="line"/>
      <point x="863" y="0" type="line"/>
      <point x="875" y="-36"/>
      <point x="885" y="-82"/>
      <point x="885" y="-128" type="curve" smooth="yes"/>
      <point x="885" y="-237"/>
      <point x="834" y="-260"/>
      <point x="740" y="-260" type="curve" smooth="yes"/>
      <point x="724" y="-260"/>
      <point x="679" y="-256"/>
      <point x="650" y="-250" type="curve"/>
      <point x="650" y="-437" type="line"/>
      <point x="687" y="-450"/>
      <point x="754" y="-462"/>
      <point x="799" y="-462" type="curve" smooth="yes"/>
      <point x="986" y="-462"/>
      <point x="1112" y="-401"/>
      <point x="1112" y="-192" type="curve" smooth="yes"/>
      <point x="1112" y="-118"/>
      <point x="1068" y="-10"/>
      <point x="980" y="133" type="curve"/>
    </contour>
    <component base="ghestroke-cy.sc"/>
  </outline>
</glyph>
